<svg xmlns="http://www.w3.org/2000/svg" width="60" height="60" viewBox="0 0 60 60">
  <metadata><?xpacket begin="﻿" id="W5M0MpCehiHzreSzNTczkc9d"?>
<x:xmpmeta xmlns:x="adobe:ns:meta/" x:xmptk="Adobe XMP Core 5.6-c138 79.159824, 2016/09/14-01:09:01        ">
   <rdf:RDF xmlns:rdf="http://www.w3.org/1999/02/22-rdf-syntax-ns#">
      <rdf:Description rdf:about=""/>
   </rdf:RDF>
</x:xmpmeta>
                                                                                                    
                                                                                                    
                                                                                                    
                                                                                                    
                                                                                                    
                                                                                                    
                                                                                                    
                                                                                                    
                                                                                                    
                                                                                                    
                                                                                                    
                                                                                                    
                                                                                                    
                                                                                                    
                                                                                                    
                                                                                                    
                                                                                                    
                                                                                                    
                                                                                                    
                                                                                                    
                           
<?xpacket end="w"?></metadata>
<defs>
    <style>
      .cls-1 {
        fill: #00a8ff;
        fill-rule: evenodd;
      }
    </style>
  </defs>
  <path id="icon_menu_mem" class="cls-1" d="M50,542a30,30,0,1,1-30,30A30,30,0,0,1,50,542Zm-1.773,18.124a3.349,3.349,0,0,1-.64-5.07,3.272,3.272,0,0,1,4.648-.16c0.046,0.044.091,0.088,0.135,0.135a3.352,3.352,0,0,1-.616,5.1l7.119,7.893c0.091-.059.173-0.109,0.253-0.162q3.3-2.194,6.59-4.39a1.141,1.141,0,0,1,1.011-.187,1.105,1.105,0,0,1,.759,1.25q-0.8,5.055-1.611,10.109-0.738,4.649-1.472,9.3c-0.055.346-.115,0.691-0.169,1.037a1.1,1.1,0,0,1-1.2,1.027H37a1.132,1.132,0,0,1-1.267-1.108q-0.408-2.619-.831-5.236a1.119,1.119,0,0,1,1.135-1.388c0.356-.009.712,0,1.068,0q10.734,0,21.468.01a1.893,1.893,0,0,1,.516.058,1.1,1.1,0,0,1,.761,1.141,1.069,1.069,0,0,1-.989,1c-0.506.026-1.014,0.009-1.521,0.009l-19.832-.011H37.25l0.528,3.331h0.255q11.961,0,23.922,0a0.23,0.23,0,0,0,.288-0.235q0.781-5,1.583-10,0.534-3.351,1.069-6.7c0.008-.052.01-0.1,0.019-0.21-0.1.065-.174,0.108-0.244,0.154l-5.209,3.468a1.125,1.125,0,0,1-1.7-.211l-7.621-8.45c-0.045-.05-0.086-0.105-0.14-0.173-0.4.439-.774,0.854-1.149,1.271l-6.536,7.248-0.107.118a1.118,1.118,0,0,1-1.666.211L35.295,566.8l-0.242-.156,0.3,1.883c0.3,1.918.613,3.836,0.912,5.755a1.093,1.093,0,0,1-2.162.315c-0.2-1.225-.394-2.451-0.589-3.677-0.328-2.061-.659-4.122-0.978-6.184a1.806,1.806,0,0,1,0-.72,1.074,1.074,0,0,1,1.665-.586c0.85,0.557,1.693,1.125,2.539,1.688l4.363,2.9ZM50,558.41a1.1,1.1,0,1,0-1.1-1.107v0.011a1.087,1.087,0,0,0,1.1,1.1h0Z" transform="translate(-20 -542)"/>
</svg>
