<svg xmlns="http://www.w3.org/2000/svg" width="40" height="40" viewBox="0 0 40 40">
  <metadata><?xpacket begin="﻿" id="W5M0MpCehiHzreSzNTczkc9d"?>
<x:xmpmeta xmlns:x="adobe:ns:meta/" x:xmptk="Adobe XMP Core 5.6-c138 79.159824, 2016/09/14-01:09:01        ">
   <rdf:RDF xmlns:rdf="http://www.w3.org/1999/02/22-rdf-syntax-ns#">
      <rdf:Description rdf:about=""/>
   </rdf:RDF>
</x:xmpmeta>
                                                                                                    
                                                                                                    
                                                                                                    
                                                                                                    
                                                                                                    
                                                                                                    
                                                                                                    
                                                                                                    
                                                                                                    
                                                                                                    
                                                                                                    
                                                                                                    
                                                                                                    
                                                                                                    
                                                                                                    
                                                                                                    
                                                                                                    
                                                                                                    
                                                                                                    
                                                                                                    
                           
<?xpacket end="w"?></metadata>
<defs>
    <style>
      .cls-1 {
        fill: #8a8a8a;
        fill-rule: evenodd;
      }
    </style>
  </defs>
  <path id="icon_ewm" class="cls-1" d="M694,191v16.02h16.4V191H694Zm13.467,13.058H696.933V193.826h10.534v10.231ZM694,209.98V226h16.4V209.98H694Zm13.467,13.058H696.933V212.807h10.534v10.231Zm6-32.039v16.02h16.4V191h-16.4Zm13.466,13.058H716.4V193.826h10.533v10.231ZM716.4,226h-2.933V209.98H722.4v6.731c0,0.4.133,0.4,0.4,0.4h4v-7.269h2.933v10.1h-10.4v-7.269h-2.8l-0.133.134V226h0Zm3.067,0H724v-4.308h-4.533V226Zm6.133,0H730v-4.308h-4.4V226ZM700,201.1v-4.307h4.4v4.038a0.318,0.318,0,0,1-.267.4h-4c0-.135,0-0.135-0.133-0.135h0Zm0,18.982v-4.308h4.133a0.315,0.315,0,0,1,.4.269v4.039H700Zm19.6-23.289H724V201.1h-4.133c-0.267,0-.4,0-0.4-0.269v-3.9a0.131,0.131,0,0,0,.133-0.134h0Z" transform="translate(-692 -188.5)"/>
</svg>
