<svg xmlns="http://www.w3.org/2000/svg" width="50" height="50" viewBox="0 0 50 50">
  <metadata><?xpacket begin="﻿" id="W5M0MpCehiHzreSzNTczkc9d"?>
<x:xmpmeta xmlns:x="adobe:ns:meta/" x:xmptk="Adobe XMP Core 5.6-c138 79.159824, 2016/09/14-01:09:01        ">
   <rdf:RDF xmlns:rdf="http://www.w3.org/1999/02/22-rdf-syntax-ns#">
      <rdf:Description rdf:about=""/>
   </rdf:RDF>
</x:xmpmeta>
                                                                                                    
                                                                                                    
                                                                                                    
                                                                                                    
                                                                                                    
                                                                                                    
                                                                                                    
                                                                                                    
                                                                                                    
                                                                                                    
                                                                                                    
                                                                                                    
                                                                                                    
                                                                                                    
                                                                                                    
                                                                                                    
                                                                                                    
                                                                                                    
                                                                                                    
                                                                                                    
                           
<?xpacket end="w"?></metadata>
<defs>
    <style>
      .cls-1 {
        fill: #8a8a8a;
        fill-rule: evenodd;
      }
    </style>
  </defs>
  <path id="icon_bus" class="cls-1" d="M460,2285.62a4.625,4.625,0,0,0-4.624-4.62H424.624a4.625,4.625,0,0,0-4.624,4.62v30.76a4.625,4.625,0,0,0,4.624,4.62h30.752a4.625,4.625,0,0,0,4.624-4.62v-30.76Zm-35.376-1.54h30.752a1.543,1.543,0,0,1,1.541,1.54v7.71H423.082v-7.71A1.544,1.544,0,0,1,424.624,2284.08Zm30.752,33.84H424.624a1.549,1.549,0,0,1-1.542-1.54v-19.97h33.835v19.97a1.549,1.549,0,0,1-1.541,1.54h0Zm-3.061-30.76h0a1.544,1.544,0,0,0-1.542,1.55h0a1.542,1.542,0,0,0,1.542,1.54h0a1.541,1.541,0,0,0,1.541-1.54h0A1.543,1.543,0,0,0,452.315,2287.16Zm-24.607,3.09h18.468a1.546,1.546,0,0,0,0-3.09H427.708A1.545,1.545,0,0,0,427.708,2290.25Z" transform="translate(-415 -2276)"/>
</svg>
