<svg xmlns="http://www.w3.org/2000/svg" width="100" height="100" viewBox="0 0 100 100">
  <metadata><?xpacket begin="﻿" id="W5M0MpCehiHzreSzNTczkc9d"?>
<x:xmpmeta xmlns:x="adobe:ns:meta/" x:xmptk="Adobe XMP Core 5.6-c138 79.159824, 2016/09/14-01:09:01        ">
   <rdf:RDF xmlns:rdf="http://www.w3.org/1999/02/22-rdf-syntax-ns#">
      <rdf:Description rdf:about=""/>
   </rdf:RDF>
</x:xmpmeta>
                                                                                                    
                                                                                                    
                                                                                                    
                                                                                                    
                                                                                                    
                                                                                                    
                                                                                                    
                                                                                                    
                                                                                                    
                                                                                                    
                                                                                                    
                                                                                                    
                                                                                                    
                                                                                                    
                                                                                                    
                                                                                                    
                                                                                                    
                                                                                                    
                                                                                                    
                                                                                                    
                           
<?xpacket end="w"?></metadata>
<defs>
    <style>
      .cls-1 {
        fill: #fff;
        fill-rule: evenodd;
      }
    </style>
  </defs>
  <path id="icon_menu_tgjj" class="cls-1" d="M398.432,830.746c-2.817-5.531-8.146-.562-7.418,1.827a6.8,6.8,0,0,1-.384,4.588,35.5,35.5,0,0,0-15.524-3.853,39.2,39.2,0,0,0-15,3.535c1.589-2.946-1.281-10.947-6.266-7.492-5.045,3.487,1.87,17.29,1.87,17.29a1.828,1.828,0,0,0,1.958,1.175h0.385a1.905,1.905,0,0,0-.074.39v1.056A1.733,1.733,0,0,0,359.709,851h0.4a1.736,1.736,0,0,0,1.731-1.738v-1.056a1.733,1.733,0,0,0-.08-0.39l27.672,0a1.851,1.851,0,0,0-.079.393v1.056a1.737,1.737,0,0,0,1.73,1.738h0.4a1.737,1.737,0,0,0,1.731-1.738v-1.056a2.054,2.054,0,0,0-.077-0.393h0.094a2.391,2.391,0,0,0,2.136-1.172c0.6-.78,5.219-11.661,3.063-15.895h0Zm-36.915,4.008c14.527-7.382,28.275,0,28.275,0-1.071-7.213,5.3-8.355,5.3-8.355-0.171-4.154.323-14.705-20.749-14.389-20.3.306-18.127,14.389-18.127,14.389A7.625,7.625,0,0,1,361.517,834.754Z" transform="translate(-325.5 -781.5)"/>
</svg>
