<svg xmlns="http://www.w3.org/2000/svg" width="50" height="50" viewBox="0 0 50 50">
  <metadata><?xpacket begin="﻿" id="W5M0MpCehiHzreSzNTczkc9d"?>
<x:xmpmeta xmlns:x="adobe:ns:meta/" x:xmptk="Adobe XMP Core 5.6-c138 79.159824, 2016/09/14-01:09:01        ">
   <rdf:RDF xmlns:rdf="http://www.w3.org/1999/02/22-rdf-syntax-ns#">
      <rdf:Description rdf:about=""/>
   </rdf:RDF>
</x:xmpmeta>
                                                                                                    
                                                                                                    
                                                                                                    
                                                                                                    
                                                                                                    
                                                                                                    
                                                                                                    
                                                                                                    
                                                                                                    
                                                                                                    
                                                                                                    
                                                                                                    
                                                                                                    
                                                                                                    
                                                                                                    
                                                                                                    
                                                                                                    
                                                                                                    
                                                                                                    
                                                                                                    
                           
<?xpacket end="w"?></metadata>
<defs>
    <style>
      .cls-1 {
        fill: #8a8a8a;
        fill-rule: evenodd;
      }
    </style>
  </defs>
  <path id="icon_shop" class="cls-1" d="M269.5,1448a5.519,5.519,0,0,1-5.494-5.05l0-.03v-0.1l0.9-24.35a1.475,1.475,0,0,1,1.481-1.46h5.646A11.116,11.116,0,0,1,283.149,1406h0.8a11,11,0,0,1,7.9,3.34,10.767,10.767,0,0,1,3.116,7.57h5.545a1.559,1.559,0,0,1,1.48,1.48l1,24.41v0.15a5.519,5.519,0,0,1-5.5,5.05H269.5Zm-2.533-5.21a2.641,2.641,0,0,0,2.533,2.25H297.5a2.5,2.5,0,0,0,2.534-2.23l-0.884-22.84h-4.084v5.53a1.481,1.481,0,0,1-2.961,0v-8.41a8.25,8.25,0,0,0-8.156-8.13h-0.8a8.25,8.25,0,0,0-8.157,8.13v8.41a1.481,1.481,0,0,1-2.961,0v-5.53h-4.184Zm16.487,0.1a2.881,2.881,0,0,1-2.043-1.04l-5.035-5.22-0.009-.01a5.432,5.432,0,0,1-1.421-3.61,4.952,4.952,0,0,1,8.442-3.65l0.066,0.07,0.065-.07a4.855,4.855,0,0,1,3.448-1.44,5.056,5.056,0,0,1,3.721,8.41l-0.271.36h-0.039l-4.872,5.15A2.9,2.9,0,0,1,283.45,1442.89Zm-3.514-12.01a2.082,2.082,0,0,0-2.033,2.13,2.306,2.306,0,0,0,.663,1.56l4.884,5.07,4.868-5.06a2.019,2.019,0,0,0,.678-1.57,2.082,2.082,0,0,0-2.033-2.13,1.886,1.886,0,0,0-1.371.56l-0.054.06-0.053.02c-0.133.1-.608,0.6-0.979,1.01l-0.018.01a1.446,1.446,0,0,1-2.077,0l-1.085-1.08A2.4,2.4,0,0,0,279.936,1430.88Zm-2.409-10.81a1.48,1.48,0,1,1,0-2.96h12.046a1.48,1.48,0,1,1,0,2.96H277.527Z" transform="translate(-258.5 -1402)"/>
</svg>
