<svg xmlns="http://www.w3.org/2000/svg" width="86" height="86" viewBox="0 0 86 86">
  <metadata><?xpacket begin="﻿" id="W5M0MpCehiHzreSzNTczkc9d"?>
<x:xmpmeta xmlns:x="adobe:ns:meta/" x:xmptk="Adobe XMP Core 5.6-c138 79.159824, 2016/09/14-01:09:01        ">
   <rdf:RDF xmlns:rdf="http://www.w3.org/1999/02/22-rdf-syntax-ns#">
      <rdf:Description rdf:about=""/>
   </rdf:RDF>
</x:xmpmeta>
                                                                                                    
                                                                                                    
                                                                                                    
                                                                                                    
                                                                                                    
                                                                                                    
                                                                                                    
                                                                                                    
                                                                                                    
                                                                                                    
                                                                                                    
                                                                                                    
                                                                                                    
                                                                                                    
                                                                                                    
                                                                                                    
                                                                                                    
                                                                                                    
                                                                                                    
                                                                                                    
                           
<?xpacket end="w"?></metadata>
<defs>
    <style>
      .cls-1 {
        fill: #fff;
        fill-rule: evenodd;
      }
    </style>
  </defs>
  <path id="icon_menu_sqfw" class="cls-1" d="M666.432,401.133H624.576A2.629,2.629,0,0,0,622,403.8v6.428a2.648,2.648,0,0,0,2.208,2.643v6.178A2.9,2.9,0,0,0,627.052,422h36.9a2.9,2.9,0,0,0,2.844-2.947v-6.184A2.642,2.642,0,0,0,669,410.226V403.8A2.619,2.619,0,0,0,666.432,401.133Zm-2.476,18.687h-36.9a0.754,0.754,0,0,1-.742-0.768v-6.1h2.235v3.427a1.243,1.243,0,0,0,1.219,1.264H664.7v1.406A0.754,0.754,0,0,1,663.956,419.82Zm2.476-9.1H624.576a0.484,0.484,0,0,1-.473-0.491V403.8a0.484,0.484,0,0,1,.473-0.491h1.556v1.5a1.029,1.029,0,0,0,1.01,1.046H638.2a0.536,0.536,0,0,0-.525.544v1.09a0.537,0.537,0,0,0,.525.545h15.624a0.537,0.537,0,0,0,.525-0.545V406.4a0.536,0.536,0,0,0-.525-0.544h13.079v4.374A0.484,0.484,0,0,1,666.432,410.722Zm-31.7-13.108h21.632a1.113,1.113,0,0,0,1.067-1.15l-3.559-10.787a1.112,1.112,0,0,0-1.067-1.149h-6.64a5.586,5.586,0,1,0-1.324,0h-6.55a1.113,1.113,0,0,0-1.068,1.149l-3.559,10.787A1.114,1.114,0,0,0,634.733,397.614Zm9.084-10.836a0.775,0.775,0,0,1,.825-0.708h1.6a0.779,0.779,0,0,1,.826.708l-0.689,1.694,0.689,5.432c0,0.392-1.057,2.479-1.514,2.479h-0.232c-0.452,0-1.514-2.092-1.514-2.479l0.694-5.459Z" transform="translate(-602.5 -354.5)"/>
</svg>
