<svg xmlns="http://www.w3.org/2000/svg" width="60" height="60" viewBox="0 0 60 60">
  <metadata><?xpacket begin="﻿" id="W5M0MpCehiHzreSzNTczkc9d"?>
<x:xmpmeta xmlns:x="adobe:ns:meta/" x:xmptk="Adobe XMP Core 5.6-c138 79.159824, 2016/09/14-01:09:01        ">
   <rdf:RDF xmlns:rdf="http://www.w3.org/1999/02/22-rdf-syntax-ns#">
      <rdf:Description rdf:about=""/>
   </rdf:RDF>
</x:xmpmeta>
                                                                                                    
                                                                                                    
                                                                                                    
                                                                                                    
                                                                                                    
                                                                                                    
                                                                                                    
                                                                                                    
                                                                                                    
                                                                                                    
                                                                                                    
                                                                                                    
                                                                                                    
                                                                                                    
                                                                                                    
                                                                                                    
                                                                                                    
                                                                                                    
                                                                                                    
                                                                                                    
                           
<?xpacket end="w"?></metadata>
<defs>
    <style>
      .cls-1 {
        fill: #4cd137;
        fill-rule: evenodd;
      }
    </style>
  </defs>
  <path id="icon_menu_set" class="cls-1" d="M50,809a30,30,0,1,1-30,30A30,30,0,0,1,50,809Zm13.929,31.071H58.438a4.288,4.288,0,0,1-8.3,0H36.071a1.071,1.071,0,1,1,0-2.142H50.134a4.288,4.288,0,0,1,8.3,0h5.491A1.071,1.071,0,1,1,63.929,840.071Zm-9.643-3.247A2.176,2.176,0,1,0,56.462,839,2.176,2.176,0,0,0,54.286,836.824Zm9.643-7.467H49.866a4.289,4.289,0,0,1-8.3,0H36.071a1.072,1.072,0,0,1,0-2.143h5.491a4.289,4.289,0,0,1,8.3,0H63.929A1.072,1.072,0,1,1,63.929,829.357Zm-18.214-3.248a2.177,2.177,0,1,0,2.176,2.177A2.177,2.177,0,0,0,45.714,826.109Zm-9.643,22.534h5.491a4.289,4.289,0,0,1,8.3,0H63.929a1.071,1.071,0,1,1,0,2.143H49.866a4.289,4.289,0,0,1-8.3,0H36.071A1.072,1.072,0,0,1,36.071,848.643Zm9.643,3.248a2.177,2.177,0,1,0-2.176-2.177A2.177,2.177,0,0,0,45.714,851.891Z" transform="translate(-20 -809)"/>
</svg>
