<svg xmlns="http://www.w3.org/2000/svg" width="26" height="29" viewBox="0 0 26 29">
  <metadata><?xpacket begin="﻿" id="W5M0MpCehiHzreSzNTczkc9d"?>
<x:xmpmeta xmlns:x="adobe:ns:meta/" x:xmptk="Adobe XMP Core 5.6-c138 79.159824, 2016/09/14-01:09:01        ">
   <rdf:RDF xmlns:rdf="http://www.w3.org/1999/02/22-rdf-syntax-ns#">
      <rdf:Description rdf:about=""/>
   </rdf:RDF>
</x:xmpmeta>
                                                                                                    
                                                                                                    
                                                                                                    
                                                                                                    
                                                                                                    
                                                                                                    
                                                                                                    
                                                                                                    
                                                                                                    
                                                                                                    
                                                                                                    
                                                                                                    
                                                                                                    
                                                                                                    
                                                                                                    
                                                                                                    
                                                                                                    
                                                                                                    
                                                                                                    
                                                                                                    
                           
<?xpacket end="w"?></metadata>
<defs>
    <style>
      .cls-1 {
        fill: #ff8250;
        fill-rule: evenodd;
      }
    </style>
  </defs>
  <path id="icon_c_hot" class="cls-1" d="M41.3,1013.57a1.076,1.076,0,0,0-1.208-.16,1.059,1.059,0,0,0-.6,1.05,18.078,18.078,0,0,1-.052,3.76c-2.757-4.45-8.768-8.8-9.065-9.02a1.083,1.083,0,0,0-1.713.99c0.01,0.08.781,7.37-.825,12.03a6.22,6.22,0,0,0-1.831-2.31,12.213,12.213,0,0,0-4.868-1.25,1.082,1.082,0,0,0-.838,1.83c0.019,0.01,1.857,1.99,1.857,7.29a1.066,1.066,0,0,0,.026.24,12.584,12.584,0,0,0,5.862,9.83,1.082,1.082,0,0,0,.549.15H28.62a1.077,1.077,0,0,0,1.083-1.07,1.094,1.094,0,0,0-.121-0.5,9.611,9.611,0,0,1-.218-2.04,0.944,0.944,0,0,0-.008-0.13,10.949,10.949,0,0,0-.374-2.57,25.453,25.453,0,0,1,2.168,1.72,1.1,1.1,0,0,0,1.564-.24c1.156-1.69.994-5.2,0.692-7.51,2.989,1.99,7.146,5.17,7.062,8.41,0,0.18-.011.36-0.026,0.55a1.079,1.079,0,0,0,.608,1.06,1.1,1.1,0,0,0,1.218-.19,10.959,10.959,0,0,0,3.722-8.21C46.227,1018.08,41.5,1013.75,41.3,1013.57Z" transform="translate(-20 -1009)"/>
</svg>
