<svg xmlns="http://www.w3.org/2000/svg" width="60" height="60" viewBox="0 0 60 60">
  <metadata><?xpacket begin="﻿" id="W5M0MpCehiHzreSzNTczkc9d"?>
<x:xmpmeta xmlns:x="adobe:ns:meta/" x:xmptk="Adobe XMP Core 5.6-c138 79.159824, 2016/09/14-01:09:01        ">
   <rdf:RDF xmlns:rdf="http://www.w3.org/1999/02/22-rdf-syntax-ns#">
      <rdf:Description rdf:about=""/>
   </rdf:RDF>
</x:xmpmeta>
                                                                                                    
                                                                                                    
                                                                                                    
                                                                                                    
                                                                                                    
                                                                                                    
                                                                                                    
                                                                                                    
                                                                                                    
                                                                                                    
                                                                                                    
                                                                                                    
                                                                                                    
                                                                                                    
                                                                                                    
                                                                                                    
                                                                                                    
                                                                                                    
                                                                                                    
                                                                                                    
                           
<?xpacket end="w"?></metadata>
<defs>
    <style>
      .cls-1 {
        fill: #fbc531;
        fill-rule: evenodd;
      }
    </style>
  </defs>
  <path id="icon_wy_08" class="cls-1" d="M243.012,947.636a13.545,13.545,0,0,1-3.67,3.959,23.717,23.717,0,0,0,.491-6.7c-0.744-7.654-7.855-12.391-12.416-13.9,3.118,9.045-4.062,15.563-6.342,17.406a62.992,62.992,0,0,0-6.558,6.262A13.977,13.977,0,0,0,211,964.234c0,7.825,7.141,14.226,16.248,15.7-2.173-2.645-4.162-5.063-5.252-9.481-1.689-7.389,5.813-13.751,9.022-15-1.282,2.917-.391,5.515,1.106,7.864a19.055,19.055,0,0,0,2.411,3.017c1.843,1.89,2.818,3.454,2.818,5.3A13.356,13.356,0,0,1,234.5,980c9.36-1.423,16.5-8.828,16.5-16.847-0.015-5.258-3.163-11.379-7.986-15.517h0Z" transform="translate(-201 -925.5)"/>
</svg>
