<svg xmlns="http://www.w3.org/2000/svg" width="50" height="50" viewBox="0 0 50 50">
  <metadata><?xpacket begin="﻿" id="W5M0MpCehiHzreSzNTczkc9d"?>
<x:xmpmeta xmlns:x="adobe:ns:meta/" x:xmptk="Adobe XMP Core 5.6-c138 79.159824, 2016/09/14-01:09:01        ">
   <rdf:RDF xmlns:rdf="http://www.w3.org/1999/02/22-rdf-syntax-ns#">
      <rdf:Description rdf:about=""/>
   </rdf:RDF>
</x:xmpmeta>
                                                                                                    
                                                                                                    
                                                                                                    
                                                                                                    
                                                                                                    
                                                                                                    
                                                                                                    
                                                                                                    
                                                                                                    
                                                                                                    
                                                                                                    
                                                                                                    
                                                                                                    
                                                                                                    
                                                                                                    
                                                                                                    
                                                                                                    
                                                                                                    
                                                                                                    
                                                                                                    
                           
<?xpacket end="w"?></metadata>
<defs>
    <style>
      .cls-1 {
        fill: #8a8a8a;
        fill-rule: evenodd;
      }
    </style>
  </defs>
  <path id="icon_home" class="cls-1" d="M79.659,1425.47a1.421,1.421,0,0,1-1.258-.64,1.589,1.589,0,0,1,.157-2.26l18.548-15.61a4.882,4.882,0,0,1,5.816,0l18.548,15.45a1.588,1.588,0,0,1,.157,2.26,1.509,1.509,0,0,1-2.2.16l-18.391-15.13a1.973,1.973,0,0,0-1.886,0L80.6,1425.15A1.142,1.142,0,0,1,79.659,1425.47ZM115.026,1448H104.809a1.5,1.5,0,0,1-1.572-1.61v-7.56c0-1.13-1.887-2.26-3.3-2.26s-3.144.97-3.144,2.26v7.56A1.5,1.5,0,0,1,95.22,1448h-9.9a3.973,3.973,0,0,1-4.087-4.02v-15.29a1.572,1.572,0,1,1,3.144,0v15.29a0.8,0.8,0,0,0,.943.8h8.488v-5.95c0-3.22,3.3-5.47,6.288-5.47s6.445,2.25,6.445,5.47v5.95h8.645c0.471,0,.786,0,0.786-0.96v-15.13a1.572,1.572,0,1,1,3.144,0v15.29A3.971,3.971,0,0,1,115.026,1448Z" transform="translate(-75.016 -1402.015)"/>
</svg>
