<svg xmlns="http://www.w3.org/2000/svg" width="220" height="220" viewBox="0 0 220 220">
  <metadata><?xpacket begin="﻿" id="W5M0MpCehiHzreSzNTczkc9d"?>
<x:xmpmeta xmlns:x="adobe:ns:meta/" x:xmptk="Adobe XMP Core 5.6-c138 79.159824, 2016/09/14-01:09:01        ">
   <rdf:RDF xmlns:rdf="http://www.w3.org/1999/02/22-rdf-syntax-ns#">
      <rdf:Description rdf:about=""/>
   </rdf:RDF>
</x:xmpmeta>
                                                                                                    
                                                                                                    
                                                                                                    
                                                                                                    
                                                                                                    
                                                                                                    
                                                                                                    
                                                                                                    
                                                                                                    
                                                                                                    
                                                                                                    
                                                                                                    
                                                                                                    
                                                                                                    
                                                                                                    
                                                                                                    
                                                                                                    
                                                                                                    
                                                                                                    
                                                                                                    
                           
<?xpacket end="w"?></metadata>
<defs>
    <style>
      .cls-1 {
        fill: #dfdfdf;
        fill-rule: evenodd;
      }
    </style>
  </defs>
  <path id="icon_null_team" class="cls-1" d="M280.859,1076.07a5.011,5.011,0,0,0-5.707-4.15q-4.565.285-.7-2.17a4.99,4.99,0,0,0,2.18-6.7q-1.68-4.26,1.846-1.35a4.984,4.984,0,0,0,7.054,0q3.526-2.91,1.846,1.35a4.99,4.99,0,0,0,2.18,6.7q3.859,2.46-.7,2.17a5.011,5.011,0,0,0-5.707,4.15Q282,1080.495,280.859,1076.07Zm174.4-47.08q3.273-5.52-1.5-9.73t1.46-2.85q6.233,1.365,8.8-4.51t3.148,0.49q0.579,6.36,6.939,6.94t0.485,3.14q-5.874,2.58-4.513,8.81t-2.848,1.46q-4.211-4.785-9.728-1.5T455.263,1028.99Zm-56.74,13.23a39.191,39.191,0,1,0-55.847,35.63,54.677,54.677,0,0,0-35.6,39.23,3.363,3.363,0,0,0,2.286,3.92h0.653a3.18,3.18,0,0,0,3.266-2.62c5.226-21.24,24.494-36.93,46.049-36.93A39.33,39.33,0,0,0,398.523,1042.22Zm-71.85,0a32.66,32.66,0,1,1,32.659,32.69A32.771,32.771,0,0,1,326.673,1042.22ZM408,1068.37a2.956,2.956,0,0,0-2.94,3.6,3.225,3.225,0,0,0,3.266,2.94h0.327c15.023-.98,25.8-13.4,25.8-29.42,0-15.69-10.777-28.11-25.8-29.42-1.96-.33-3.266,1.31-3.593,2.94a3.564,3.564,0,0,0,2.94,3.6c11.43,0.98,19.595,10.46,19.595,22.88C427.59,1058.24,419.1,1067.72,408,1068.37Zm35.924,32.04a42.132,42.132,0,0,0-14.7-22.56,3.268,3.268,0,1,0-3.919,5.23,35.253,35.253,0,0,1,12.41,18.96,3.189,3.189,0,0,0,3.266,2.62h0.653a3.961,3.961,0,0,0,2.286-4.25h0Zm-53.887-15.69-2.939-1.97a3.31,3.31,0,0,0-3.593,5.56l2.94,1.96c9.471,6.54,16,16.67,18.942,28.11a3.18,3.18,0,0,0,3.266,2.62H409.3a3.1,3.1,0,0,0,2.286-3.92c-3.266-13.41-10.777-24.85-21.555-32.36h0Z" transform="translate(-265.031 -952)"/>
</svg>
