<svg xmlns="http://www.w3.org/2000/svg" width="102" height="102" viewBox="0 0 102 102">
  <metadata><?xpacket begin="﻿" id="W5M0MpCehiHzreSzNTczkc9d"?>
<x:xmpmeta xmlns:x="adobe:ns:meta/" x:xmptk="Adobe XMP Core 5.6-c138 79.159824, 2016/09/14-01:09:01        ">
   <rdf:RDF xmlns:rdf="http://www.w3.org/1999/02/22-rdf-syntax-ns#">
      <rdf:Description rdf:about=""/>
   </rdf:RDF>
</x:xmpmeta>
                                                                                                    
                                                                                                    
                                                                                                    
                                                                                                    
                                                                                                    
                                                                                                    
                                                                                                    
                                                                                                    
                                                                                                    
                                                                                                    
                                                                                                    
                                                                                                    
                                                                                                    
                                                                                                    
                                                                                                    
                                                                                                    
                                                                                                    
                                                                                                    
                                                                                                    
                                                                                                    
                           
<?xpacket end="w"?></metadata>
<defs>
    <style>
      .cls-1 {
        fill: #09ba07;
        fill-rule: evenodd;
      }
    </style>
  </defs>
  <path id="icon_success" class="cls-1" d="M375,195a51,51,0,1,0,51,51A51,51,0,0,0,375,195Zm26.458,34.972L366.1,264.767a0.991,0.991,0,0,1-1.407-.02L348.554,248.04a0.618,0.618,0,0,1-.052-0.771l2.3-3.133a0.492,0.492,0,0,1,.7-0.1l13.093,10.035a1.314,1.314,0,0,0,1.571-.03l32.364-26.963a0.566,0.566,0,0,1,.744.029l2.19,2.162A0.5,0.5,0,0,1,401.458,229.972Z" transform="translate(-324 -195)"/>
</svg>
