<svg xmlns="http://www.w3.org/2000/svg" width="60" height="60" viewBox="0 0 60 60">
  <metadata><?xpacket begin="﻿" id="W5M0MpCehiHzreSzNTczkc9d"?>
<x:xmpmeta xmlns:x="adobe:ns:meta/" x:xmptk="Adobe XMP Core 5.6-c138 79.159824, 2016/09/14-01:09:01        ">
   <rdf:RDF xmlns:rdf="http://www.w3.org/1999/02/22-rdf-syntax-ns#">
      <rdf:Description rdf:about=""/>
   </rdf:RDF>
</x:xmpmeta>
                                                                                                    
                                                                                                    
                                                                                                    
                                                                                                    
                                                                                                    
                                                                                                    
                                                                                                    
                                                                                                    
                                                                                                    
                                                                                                    
                                                                                                    
                                                                                                    
                                                                                                    
                                                                                                    
                                                                                                    
                                                                                                    
                                                                                                    
                                                                                                    
                                                                                                    
                                                                                                    
                           
<?xpacket end="w"?></metadata>
<defs>
    <style>
      .cls-1 {
        fill: #00a8ff;
        fill-rule: evenodd;
      }
    </style>
  </defs>
  <path id="icon_tel" class="cls-1" d="M50,233a30,30,0,1,1-30,30A30,30,0,0,1,50,233Zm0,40.008a1.93,1.93,0,1,0,1.936,1.955c0-.008,0-0.017,0-0.025A1.938,1.938,0,0,0,50,273.008ZM59.578,245.5H40.421a2.92,2.92,0,0,0-2.922,2.913v29.173a2.92,2.92,0,0,0,2.922,2.914H59.578a2.921,2.921,0,0,0,2.923-2.914V248.413A2.921,2.921,0,0,0,59.578,245.5Zm0,33.061H40.421a0.975,0.975,0,0,1-.974-0.975l-0.025-5.6H60.578l-0.025,5.6a0.975,0.975,0,0,1-.975.975h0Z" transform="translate(-20 -233)"/>
</svg>
