<svg xmlns="http://www.w3.org/2000/svg" width="50" height="50" viewBox="0 0 50 50">
  <metadata><?xpacket begin="﻿" id="W5M0MpCehiHzreSzNTczkc9d"?>
<x:xmpmeta xmlns:x="adobe:ns:meta/" x:xmptk="Adobe XMP Core 5.6-c138 79.159824, 2016/09/14-01:09:01        ">
   <rdf:RDF xmlns:rdf="http://www.w3.org/1999/02/22-rdf-syntax-ns#">
      <rdf:Description rdf:about=""/>
   </rdf:RDF>
</x:xmpmeta>
                                                                                                    
                                                                                                    
                                                                                                    
                                                                                                    
                                                                                                    
                                                                                                    
                                                                                                    
                                                                                                    
                                                                                                    
                                                                                                    
                                                                                                    
                                                                                                    
                                                                                                    
                                                                                                    
                                                                                                    
                                                                                                    
                                                                                                    
                                                                                                    
                                                                                                    
                                                                                                    
                           
<?xpacket end="w"?></metadata>
<defs>
    <style>
      .cls-1 {
        fill: #8a8a8a;
        fill-rule: evenodd;
      }
    </style>
  </defs>
  <path id="icon_mem" class="cls-1" d="M727,1445.14a1.869,1.869,0,0,1-1.857,1.86c-1.549.04-1.909-1.88-1.909-1.88a14.856,14.856,0,0,0-14.265-13.05c-0.159.01-.316,0.02-0.477,0.02s-0.315-.02-0.474-0.02a14.864,14.864,0,0,0-14.262,13.05,2.04,2.04,0,0,1-1.9,1.88,1.856,1.856,0,0,1-1.856-1.86,4.473,4.473,0,0,1,.119-0.87,18.629,18.629,0,0,1,11.038-14.45,13.013,13.013,0,1,1,14.674,0,18.631,18.631,0,0,1,11.07,14.64,1.8,1.8,0,0,1,.08.51l0.019,0.17h0Zm-9.214-26.09a9.3,9.3,0,1,0-9.3,9.32,9.306,9.306,0,0,0,9.3-9.32h0Z" transform="translate(-683.5 -1401.5)"/>
</svg>
