<svg xmlns="http://www.w3.org/2000/svg" width="60" height="60" viewBox="0 0 60 60">
  <metadata><?xpacket begin="﻿" id="W5M0MpCehiHzreSzNTczkc9d"?>
<x:xmpmeta xmlns:x="adobe:ns:meta/" x:xmptk="Adobe XMP Core 5.6-c138 79.159824, 2016/09/14-01:09:01        ">
   <rdf:RDF xmlns:rdf="http://www.w3.org/1999/02/22-rdf-syntax-ns#">
      <rdf:Description rdf:about=""/>
   </rdf:RDF>
</x:xmpmeta>
                                                                                                    
                                                                                                    
                                                                                                    
                                                                                                    
                                                                                                    
                                                                                                    
                                                                                                    
                                                                                                    
                                                                                                    
                                                                                                    
                                                                                                    
                                                                                                    
                                                                                                    
                                                                                                    
                                                                                                    
                                                                                                    
                                                                                                    
                                                                                                    
                                                                                                    
                                                                                                    
                           
<?xpacket end="w"?></metadata>
<defs>
    <style>
      .cls-1 {
        fill: #9c88ff;
        fill-rule: evenodd;
      }
    </style>
  </defs>
  <path id="icon_menu_team" class="cls-1" d="M50,631a30,30,0,1,1-30,30A30,30,0,0,1,50,631Zm5.957,25.167a9.7,9.7,0,1,0-14.672,8.216,13.863,13.863,0,0,0-8.245,9.667,1.242,1.242,0,0,0,.849,1.45h0.242a1.18,1.18,0,0,0,1.213-.967,11.475,11.475,0,0,1,10.913-8.821h0.121a9.583,9.583,0,0,0,9.579-9.545h0Zm-16.976,0a7.276,7.276,0,1,1,7.276,7.25A7.284,7.284,0,0,1,38.981,656.167Zm19.4,6.041a1.092,1.092,0,0,0-1.091,1.329,1.194,1.194,0,0,0,1.213,1.088h0.121a7.632,7.632,0,0,0,.121-15.225,1.215,1.215,0,1,0-.242,2.417,5.353,5.353,0,0,1,4.85,5.195A5.2,5.2,0,0,1,58.382,662.208Zm8.609,8.1a8.061,8.061,0,0,0-3.032-4.471,1.225,1.225,0,1,0-1.334,2.054,5.4,5.4,0,0,1,1.94,2.9,1.179,1.179,0,0,0,1.213.967h0.243a1.169,1.169,0,0,0,.97-1.45h0Zm-12.853-4.471-0.728-.483a1.225,1.225,0,1,0-1.334,2.054l0.727,0.483a11.553,11.553,0,0,1,4.487,6.646,1.18,1.18,0,0,0,1.213.967h0.242a1.147,1.147,0,0,0,.849-1.45,14.429,14.429,0,0,0-5.457-8.217h0Z" transform="translate(-20 -631)"/>
</svg>
