<svg xmlns="http://www.w3.org/2000/svg" width="60" height="60" viewBox="0 0 60 60">
  <metadata><?xpacket begin="﻿" id="W5M0MpCehiHzreSzNTczkc9d"?>
<x:xmpmeta xmlns:x="adobe:ns:meta/" x:xmptk="Adobe XMP Core 5.6-c138 79.159824, 2016/09/14-01:09:01        ">
   <rdf:RDF xmlns:rdf="http://www.w3.org/1999/02/22-rdf-syntax-ns#">
      <rdf:Description rdf:about=""/>
   </rdf:RDF>
</x:xmpmeta>
                                                                                                    
                                                                                                    
                                                                                                    
                                                                                                    
                                                                                                    
                                                                                                    
                                                                                                    
                                                                                                    
                                                                                                    
                                                                                                    
                                                                                                    
                                                                                                    
                                                                                                    
                                                                                                    
                                                                                                    
                                                                                                    
                                                                                                    
                                                                                                    
                                                                                                    
                                                                                                    
                           
<?xpacket end="w"?></metadata>
<defs>
    <style>
      .cls-1 {
        fill: #0b8ffe;
        fill-rule: evenodd;
      }
    </style>
  </defs>
  <path id="icon_wy_10" class="cls-1" d="M225.837,1090.4a33.522,33.522,0,0,1,10.3,0c2.351,0.51,4.734.91,7.044,1.56a5.125,5.125,0,0,1,3.561,3.48c0.969,2.86,1.988,5.71,3.058,8.53a1.832,1.832,0,0,0,1.106,1.13c2.252-.26,3.312,1.02,4,2.91a3.368,3.368,0,0,1,0,1.55l-2.739.77a26.26,26.26,0,0,1,.345,3.02c0.038,4.61.066,9.23-.025,13.84a4.053,4.053,0,0,1-.806,2.32c-0.3.54-7.142,0.51-7.674,0.14-1.775-1.18-.683-3.16-1.252-4.76H219.529c-0.45,1.69-.717,4.54-1.26,4.76-1.182.46-7.518,0.48-7.873,0a4.647,4.647,0,0,1-.868-2.65c-0.133-1.94-.055-3.9-0.038-5.85,0.038-3.63.089-7.25,0.136-10.9l-2.561-.69a3.031,3.031,0,0,1,0-1.24c0.658-1.99,1.622-3.54,4.088-3.21a1.76,1.76,0,0,0,1.012-1.05,69.071,69.071,0,0,0,2.348-6.84c1.009-3.91,3.775-5.48,7.31-6.18,1.33-.26,2.678-0.43,4.016-0.64h0Zm-10.6,15.45a72.785,72.785,0,0,0,31.4,0c-0.882-2.77-1.767-5.23-2.432-7.75a4.018,4.018,0,0,0-3.988-3.33c-4.976-.23-9.956-0.41-14.936-0.45a20.236,20.236,0,0,0-4.913.78,2.721,2.721,0,0,0-1.761,1.25c-1.187,3.04-2.2,6.14-3.371,9.5h0Zm2.049,11.8c0.006-.06,0,0.05,0,0a10.911,10.911,0,0,0,2.565-.23,2.329,2.329,0,0,0,1.525-1.15,1.9,1.9,0,0,0-.9-1.53,53.791,53.791,0,0,0-6-2.44c-1.018-.35-2.153-0.28-2.481,1.2-0.478,2.17-.032,3.38,1.556,3.72,1.221,0.26,2.489.29,3.737,0.43h0Zm27.66-.01a34.155,34.155,0,0,0,3.779-.5c1.789-.42,1.411-1.96,1.369-3.27-0.036-1.11-.715-1.95-1.7-1.64a50.5,50.5,0,0,0-7.226,2.85c-1.065.53-.683,1.99,0.527,2.26a28.1,28.1,0,0,0,3.252.3h0Z" transform="translate(-201 -1080.03)"/>
</svg>
