<svg xmlns="http://www.w3.org/2000/svg" width="60" height="60" viewBox="0 0 60 60">
  <metadata><?xpacket begin="﻿" id="W5M0MpCehiHzreSzNTczkc9d"?>
<x:xmpmeta xmlns:x="adobe:ns:meta/" x:xmptk="Adobe XMP Core 5.6-c138 79.159824, 2016/09/14-01:09:01        ">
   <rdf:RDF xmlns:rdf="http://www.w3.org/1999/02/22-rdf-syntax-ns#">
      <rdf:Description rdf:about=""/>
   </rdf:RDF>
</x:xmpmeta>
                                                                                                    
                                                                                                    
                                                                                                    
                                                                                                    
                                                                                                    
                                                                                                    
                                                                                                    
                                                                                                    
                                                                                                    
                                                                                                    
                                                                                                    
                                                                                                    
                                                                                                    
                                                                                                    
                                                                                                    
                                                                                                    
                                                                                                    
                                                                                                    
                                                                                                    
                                                                                                    
                           
<?xpacket end="w"?></metadata>
<defs>
    <style>
      .cls-1 {
        fill: #f8a33f;
        fill-rule: evenodd;
      }
    </style>
  </defs>
  <path id="icon_wy_02" class="cls-1" d="M238.4,547.482h-6.491V544.87H238.4a1.425,1.425,0,0,0,0-2.849h-6.491v-0.39l6.491-5.92a1.431,1.431,0,0,0,.1-2.013,1.409,1.409,0,0,0-2-.1l-6.012,5.484-6.012-5.484a1.408,1.408,0,0,0-2,.1,1.43,1.43,0,0,0,.1,2.013l6.491,5.92v0.39h-6.477a1.425,1.425,0,0,0,0,2.849h6.477v2.612h-6.477a1.425,1.425,0,0,0,0,2.849h6.477v5.994a1.42,1.42,0,0,0,1.416,1.424H230.5a1.42,1.42,0,0,0,1.416-1.424v-5.994H238.4A1.425,1.425,0,0,0,238.4,547.482ZM256,527.074l-25.082-8.012a1.412,1.412,0,0,0-.858,0l-25.08,8.012a1.425,1.425,0,0,0,.429,2.782,1.389,1.389,0,0,0,.428-0.067l3.349-1.07v35.856A1.42,1.42,0,0,0,210.606,566h39.776a1.42,1.42,0,0,0,1.416-1.424V528.72l3.349,1.069a1.41,1.41,0,0,0,1.778-.926A1.425,1.425,0,0,0,256,527.074Zm-7.039.824V563.15H212.023V527.9c0-.028-0.014-0.051-0.016-0.079l18.486-5.9,18.488,5.906C248.979,527.847,248.965,527.87,248.965,527.9Z" transform="translate(-200.5 -512.5)"/>
</svg>
