<svg xmlns="http://www.w3.org/2000/svg" width="86" height="86" viewBox="0 0 86 86">
  <metadata><?xpacket begin="﻿" id="W5M0MpCehiHzreSzNTczkc9d"?>
<x:xmpmeta xmlns:x="adobe:ns:meta/" x:xmptk="Adobe XMP Core 5.6-c138 79.159824, 2016/09/14-01:09:01        ">
   <rdf:RDF xmlns:rdf="http://www.w3.org/1999/02/22-rdf-syntax-ns#">
      <rdf:Description rdf:about=""/>
   </rdf:RDF>
</x:xmpmeta>
                                                                                                    
                                                                                                    
                                                                                                    
                                                                                                    
                                                                                                    
                                                                                                    
                                                                                                    
                                                                                                    
                                                                                                    
                                                                                                    
                                                                                                    
                                                                                                    
                                                                                                    
                                                                                                    
                                                                                                    
                                                                                                    
                                                                                                    
                                                                                                    
                                                                                                    
                                                                                                    
                           
<?xpacket end="w"?></metadata>
<defs>
    <style>
      .cls-1 {
        fill: #fff;
        fill-rule: evenodd;
      }
    </style>
  </defs>
  <path id="icon_menu_fwzl" class="cls-1" d="M465.911,392.978h5.549v2.71h-5.549v-2.71Zm0,5.426h5.549v3.612h-5.549V398.4Zm0,6.328h5.549v3.623h-5.549v-3.623ZM488.6,389.605l-20.239-16.458a5.557,5.557,0,0,0-6.736,0l-20.238,16.458a3.4,3.4,0,0,0,0,5.492h4.856v20.326A5.6,5.6,0,0,0,451.873,421h26.251a5.6,5.6,0,0,0,5.627-5.575V395.1H488.6A3.4,3.4,0,0,0,488.6,389.605Zm-12.677,21.46H460.814v-2.71h2.042V403.15c-0.072-.072-0.132-0.143-0.2-0.215l-1.741,2.03c-0.608-.878-1.2-1.7-1.759-2.46v9.468h-2.922v-9.581a35.441,35.441,0,0,1-2.218,5.056,31.591,31.591,0,0,0-1.108-3.612,26.783,26.783,0,0,0,2.747-5.426h-2.609v-2.716h3.194v-2.925c-0.91.09-1.85,0.149-2.784,0.209a18.378,18.378,0,0,0-.41-2.71,75,75,0,0,0,8.327-.908l0.711,2.717c-0.976.226-1.952,0.423-2.934,0.591v3.026h3.012v2.71h-3.006v2.358l0.8-.776c0.693,0.716,1.615,1.713,2.7,2.943l0.2-.233V390.268h11.653v18.087h1.416v2.71h0Z" transform="translate(-422 -353.515)"/>
</svg>
