<svg xmlns="http://www.w3.org/2000/svg" width="60" height="60" viewBox="0 0 60 60">
  <metadata><?xpacket begin="﻿" id="W5M0MpCehiHzreSzNTczkc9d"?>
<x:xmpmeta xmlns:x="adobe:ns:meta/" x:xmptk="Adobe XMP Core 5.6-c138 79.159824, 2016/09/14-01:09:01        ">
   <rdf:RDF xmlns:rdf="http://www.w3.org/1999/02/22-rdf-syntax-ns#">
      <rdf:Description rdf:about=""/>
   </rdf:RDF>
</x:xmpmeta>
                                                                                                    
                                                                                                    
                                                                                                    
                                                                                                    
                                                                                                    
                                                                                                    
                                                                                                    
                                                                                                    
                                                                                                    
                                                                                                    
                                                                                                    
                                                                                                    
                                                                                                    
                                                                                                    
                                                                                                    
                                                                                                    
                                                                                                    
                                                                                                    
                                                                                                    
                                                                                                    
                           
<?xpacket end="w"?></metadata>
<defs>
    <style>
      .cls-1 {
        fill: #9c88ff;
        fill-rule: evenodd;
      }
    </style>
  </defs>
  <path id="icon_wy_21" class="cls-1" d="M249.852,1695.72l-16.594-13.78a4.51,4.51,0,0,0-5.525,0l-16.589,13.78a2.881,2.881,0,0,0,0,4.6h3.977v17.01a4.641,4.641,0,0,0,4.612,4.67h21.525a4.642,4.642,0,0,0,4.615-4.67v-17.01h3.979A2.884,2.884,0,0,0,249.852,1695.72Zm-13.327,3.77a8.5,8.5,0,1,0,2.49,6.01A8.423,8.423,0,0,0,236.525,1699.49Zm-1.759,6.62h-3.643v3.66a0.607,0.607,0,1,1-1.214,0v-3.66h-3.643a0.61,0.61,0,0,1,0-1.22h3.643v-3.66a0.607,0.607,0,1,1,1.214,0v3.66h3.643A0.61,0.61,0,0,1,234.766,1706.11Z" transform="translate(-200.516 -1671.5)"/>
</svg>
