<svg xmlns="http://www.w3.org/2000/svg" width="60" height="60" viewBox="0 0 60 60">
  <metadata><?xpacket begin="﻿" id="W5M0MpCehiHzreSzNTczkc9d"?>
<x:xmpmeta xmlns:x="adobe:ns:meta/" x:xmptk="Adobe XMP Core 5.6-c138 79.159824, 2016/09/14-01:09:01        ">
   <rdf:RDF xmlns:rdf="http://www.w3.org/1999/02/22-rdf-syntax-ns#">
      <rdf:Description rdf:about=""/>
   </rdf:RDF>
</x:xmpmeta>
                                                                                                    
                                                                                                    
                                                                                                    
                                                                                                    
                                                                                                    
                                                                                                    
                                                                                                    
                                                                                                    
                                                                                                    
                                                                                                    
                                                                                                    
                                                                                                    
                                                                                                    
                                                                                                    
                                                                                                    
                                                                                                    
                                                                                                    
                                                                                                    
                                                                                                    
                                                                                                    
                           
<?xpacket end="w"?></metadata>
<defs>
    <style>
      .cls-1 {
        fill: #fbc531;
        fill-rule: evenodd;
      }
    </style>
  </defs>
  <path id="icon_wy_19" class="cls-1" d="M506.94,1570.87a2.2,2.2,0,0,1,.124-0.99,5.82,5.82,0,0,1,.831-1.39,17.8,17.8,0,0,1,3.674-2.67,19.723,19.723,0,0,0,3.695-1.66,1.8,1.8,0,0,0,.134-2.67,22.291,22.291,0,0,1-2.416-4.22s-1.666-6.22,1.879-8.75a6.489,6.489,0,0,1,3.76-1.4,8.615,8.615,0,0,1,3.436.67,6.057,6.057,0,0,1,2.874,3.14,9.08,9.08,0,0,1,.273,5.56,13.473,13.473,0,0,1-2.685,5.11,1.694,1.694,0,0,0,.418,2.81,23,23,0,0,1,6.057,3.03,6.7,6.7,0,0,1,1.974,2.36,3.349,3.349,0,0,1,.109,1.01l-24.137.06m26.682,7.13h-8.774a1.46,1.46,0,1,1,0-2.92h8.77a1.458,1.458,0,0,0,1.46-1.46v-7.31a1.46,1.46,0,0,1,2.92,0v7.3a4.381,4.381,0,0,1-4.376,4.39m-21.928,0h-7.309a4.389,4.389,0,0,1-4.385-4.38v-7.31a1.46,1.46,0,0,1,2.92,0v7.3a1.461,1.461,0,0,0,1.461,1.46h7.309a1.465,1.465,0,0,1,0,2.93m-10.234-24.85a1.458,1.458,0,0,1-1.46-1.46v-7.31a4.386,4.386,0,0,1,4.385-4.38h7.309a1.46,1.46,0,0,1,0,2.92h-7.309a1.464,1.464,0,0,0-1.46,1.46v7.31a1.465,1.465,0,0,1-1.465,1.46m35.082,0a1.458,1.458,0,0,1-1.46-1.46v-7.31a1.464,1.464,0,0,0-1.46-1.46h-8.774a1.46,1.46,0,1,1,0-2.92h8.77a4.391,4.391,0,0,1,4.384,4.39v7.31a1.449,1.449,0,0,1-1.46,1.45" transform="translate(-489 -1529)"/>
</svg>
