<svg xmlns="http://www.w3.org/2000/svg" width="100" height="100" viewBox="0 0 100 100">
  <metadata><?xpacket begin="﻿" id="W5M0MpCehiHzreSzNTczkc9d"?>
<x:xmpmeta xmlns:x="adobe:ns:meta/" x:xmptk="Adobe XMP Core 5.6-c138 79.159824, 2016/09/14-01:09:01        ">
   <rdf:RDF xmlns:rdf="http://www.w3.org/1999/02/22-rdf-syntax-ns#">
      <rdf:Description rdf:about=""/>
   </rdf:RDF>
</x:xmpmeta>
                                                                                                    
                                                                                                    
                                                                                                    
                                                                                                    
                                                                                                    
                                                                                                    
                                                                                                    
                                                                                                    
                                                                                                    
                                                                                                    
                                                                                                    
                                                                                                    
                                                                                                    
                                                                                                    
                                                                                                    
                                                                                                    
                                                                                                    
                                                                                                    
                                                                                                    
                                                                                                    
                           
<?xpacket end="w"?></metadata>
<defs>
    <style>
      .cls-1 {
        fill: #fff;
        fill-rule: evenodd;
      }
    </style>
  </defs>
  <path id="icon_menu_tgmf" class="cls-1" d="M642.187,638.791a1.625,1.625,0,0,1-2.267.316h-2.428v3.01a14.823,14.823,0,0,0-15.541,1.394v-0.128a5.061,5.061,0,0,0-5.181-5.068h-2.59a5.059,5.059,0,0,0-5.18,5.068v2.534a5.059,5.059,0,0,0,5.18,5.068h2.587a14.008,14.008,0,0,0-.56,3.881,14.2,14.2,0,0,0,6.132,11.639H603.5a10.465,10.465,0,0,1-10.524-10.136V639.107h-2.427a1.741,1.741,0,0,1-2.267-.316,1.652,1.652,0,0,1,.324-2.218l26.063-21.221a1.1,1.1,0,0,1,1.62,0l26.064,21.38C643.157,637.048,643.319,638.156,642.187,638.791Zm-23.964,16.115A12.365,12.365,0,1,1,630.585,667a12.229,12.229,0,0,1-12.362-12.094h0Zm7.836-4.033,2.21,2.161H627.3a0.948,0.948,0,0,0-.958.938h0a0.947,0.947,0,0,0,.958.937h2.324v1.2H627.3a0.948,0.948,0,0,0-.958.938h0a0.947,0.947,0,0,0,.958.937h2.324v2.6a0.959,0.959,0,0,0,1.917,0h0v-2.6h2.323a0.947,0.947,0,0,0,.958-0.937h0a0.949,0.949,0,0,0-.958-0.938h-2.323v-1.2h2.323a0.948,0.948,0,0,0,.958-0.937h0a0.949,0.949,0,0,0-.958-0.938H632.9l2.211-2.161a0.923,0.923,0,0,0,.016-1.31l-0.016-.016a0.976,0.976,0,0,0-1.357,0l-3.169,3.1-3.168-3.1a0.979,0.979,0,0,0-1.358,0,0.927,0.927,0,0,0-.013,1.316Z" transform="translate(-565.5 -591)"/>
</svg>
