<svg xmlns="http://www.w3.org/2000/svg" width="60" height="60" viewBox="0 0 60 60">
  <metadata><?xpacket begin="﻿" id="W5M0MpCehiHzreSzNTczkc9d"?>
<x:xmpmeta xmlns:x="adobe:ns:meta/" x:xmptk="Adobe XMP Core 5.6-c138 79.159824, 2016/09/14-01:09:01        ">
   <rdf:RDF xmlns:rdf="http://www.w3.org/1999/02/22-rdf-syntax-ns#">
      <rdf:Description rdf:about=""/>
   </rdf:RDF>
</x:xmpmeta>
                                                                                                    
                                                                                                    
                                                                                                    
                                                                                                    
                                                                                                    
                                                                                                    
                                                                                                    
                                                                                                    
                                                                                                    
                                                                                                    
                                                                                                    
                                                                                                    
                                                                                                    
                                                                                                    
                                                                                                    
                                                                                                    
                                                                                                    
                                                                                                    
                                                                                                    
                                                                                                    
                           
<?xpacket end="w"?></metadata>
<defs>
    <style>
      .cls-1 {
        fill: #f87171;
        fill-rule: evenodd;
      }
    </style>
  </defs>
  <path id="icon_wy_09" class="cls-1" d="M395.418,951.253h0l-14.133-2.885V934.712a0.708,0.708,0,0,0-.251-0.54,0.739,0.739,0,0,0-.582-0.169l-24.827,3.509a0.721,0.721,0,0,0-.625.71v37.061h0a0.722,0.722,0,0,0,.73.715h39.541a0.722,0.722,0,0,0,.728-0.716V951.955A0.718,0.718,0,0,0,395.418,951.253Zm-22.285,8.43a1.225,1.225,0,1,1,0,2.45h-3.785v3.643a1.248,1.248,0,0,1-2.5,0v-3.643h-3.695a1.225,1.225,0,1,1,0-2.45h3.695v-2.45h-3.695a1.226,1.226,0,1,1,0-2.451h3.695v-0.757l-4.613-4.542a1.209,1.209,0,0,1,.023-1.732,1.263,1.263,0,0,1,1.764,0l4.195,4.111,3.961-4.089a1.258,1.258,0,0,1,1.759-.042,1.209,1.209,0,0,1,.031,1.732l-4.624,4.743v0.579h3.785a1.226,1.226,0,1,1,0,2.451h-3.785v2.45h3.785Zm14.043-2.637h0a0.721,0.721,0,0,1,.73-0.715h0a0.723,0.723,0,0,1,.729.716v1.948a0.73,0.73,0,0,1-1.46,0v-1.948Zm0,5.412v0a0.723,0.723,0,0,1,.73-0.715h0a0.723,0.723,0,0,1,.729.717v1.947a0.73,0.73,0,0,1-1.46,0v-1.947Zm2.181,12.074h-2.9V967.4h2.9v7.137Z" transform="translate(-345.5 -925)"/>
</svg>
