<svg xmlns="http://www.w3.org/2000/svg" width="60" height="60" viewBox="0 0 60 60">
  <metadata><?xpacket begin="﻿" id="W5M0MpCehiHzreSzNTczkc9d"?>
<x:xmpmeta xmlns:x="adobe:ns:meta/" x:xmptk="Adobe XMP Core 5.6-c138 79.159824, 2016/09/14-01:09:01        ">
   <rdf:RDF xmlns:rdf="http://www.w3.org/1999/02/22-rdf-syntax-ns#">
      <rdf:Description rdf:about=""/>
   </rdf:RDF>
</x:xmpmeta>
                                                                                                    
                                                                                                    
                                                                                                    
                                                                                                    
                                                                                                    
                                                                                                    
                                                                                                    
                                                                                                    
                                                                                                    
                                                                                                    
                                                                                                    
                                                                                                    
                                                                                                    
                                                                                                    
                                                                                                    
                                                                                                    
                                                                                                    
                                                                                                    
                                                                                                    
                                                                                                    
                           
<?xpacket end="w"?></metadata>
<defs>
    <style>
      .cls-1 {
        fill: #69e156;
        fill-rule: evenodd;
      }
    </style>
  </defs>
  <path id="icon_wy_20" class="cls-1" d="M683.215,1548.39v-4.43a4.056,4.056,0,0,0-3.277-3.95l-0.063-.01H647.114l-0.063.01a4.056,4.056,0,0,0-3.272,3.95v4.43a4.292,4.292,0,0,0-2.779,4v21.31a4.338,4.338,0,0,0,4.362,4.3h36.276a4.338,4.338,0,0,0,4.362-4.3v-21.31A4.322,4.322,0,0,0,683.215,1548.39Zm-35.132-4.38a0.158,0.158,0,0,1,.159-0.14h31.252a0.157,0.157,0,0,1,.158.14v4.15H648.083v-4.15Zm34.254,29.56a0.417,0.417,0,0,1-.429.41H645.632a0.417,0.417,0,0,1-.429-0.41v-21.31a0.417,0.417,0,0,1,.429-0.41h36.276a0.417,0.417,0,0,1,.429.41v21.31h0ZM654.283,1563a3.936,3.936,0,1,0-4.008-3.94A3.971,3.971,0,0,0,654.283,1563Zm8.8-1.81h12.494a1.94,1.94,0,1,0,0-3.88H663.087A1.94,1.94,0,1,0,663.087,1561.19Zm12.679,4.67H651.577a1.94,1.94,0,1,0,0,3.88h24.189A1.94,1.94,0,1,0,675.766,1565.86Z" transform="translate(-633.5 -1529)"/>
</svg>
