<svg xmlns="http://www.w3.org/2000/svg" width="30" height="30" viewBox="0 0 30 30">
  <metadata><?xpacket begin="﻿" id="W5M0MpCehiHzreSzNTczkc9d"?>
<x:xmpmeta xmlns:x="adobe:ns:meta/" x:xmptk="Adobe XMP Core 5.6-c138 79.159824, 2016/09/14-01:09:01        ">
   <rdf:RDF xmlns:rdf="http://www.w3.org/1999/02/22-rdf-syntax-ns#">
      <rdf:Description rdf:about=""/>
   </rdf:RDF>
</x:xmpmeta>
                                                                                                    
                                                                                                    
                                                                                                    
                                                                                                    
                                                                                                    
                                                                                                    
                                                                                                    
                                                                                                    
                                                                                                    
                                                                                                    
                                                                                                    
                                                                                                    
                                                                                                    
                                                                                                    
                                                                                                    
                                                                                                    
                                                                                                    
                                                                                                    
                                                                                                    
                                                                                                    
                           
<?xpacket end="w"?></metadata>
<defs>
    <style>
      .cls-1 {
        fill: #fff;
        fill-rule: evenodd;
      }
    </style>
  </defs>
  <path id="icon_sex_man_w" class="cls-1" d="M454.366,514.684a10.112,10.112,0,0,1,6,1.98l3.153-3.241h-2.58a1.689,1.689,0,0,1-1.665-1.711v0A1.689,1.689,0,0,1,460.937,510h7.02a1.049,1.049,0,0,1,1.034,1.063v7.177a1.688,1.688,0,0,1-1.665,1.711h0a1.688,1.688,0,0,1-1.665-1.711v-2.174l-2.925,3.008a10.778,10.778,0,0,1,1.986,6.853A10.381,10.381,0,1,1,454.366,514.684Zm0,17.894a7.234,7.234,0,1,0-7.036-7.233A7.146,7.146,0,0,0,454.369,532.578Z" transform="translate(-441.5 -508)"/>
</svg>
