<svg xmlns="http://www.w3.org/2000/svg" width="60" height="60" viewBox="0 0 60 60">
  <metadata><?xpacket begin="﻿" id="W5M0MpCehiHzreSzNTczkc9d"?>
<x:xmpmeta xmlns:x="adobe:ns:meta/" x:xmptk="Adobe XMP Core 5.6-c138 79.159824, 2016/09/14-01:09:01        ">
   <rdf:RDF xmlns:rdf="http://www.w3.org/1999/02/22-rdf-syntax-ns#">
      <rdf:Description rdf:about=""/>
   </rdf:RDF>
</x:xmpmeta>
                                                                                                    
                                                                                                    
                                                                                                    
                                                                                                    
                                                                                                    
                                                                                                    
                                                                                                    
                                                                                                    
                                                                                                    
                                                                                                    
                                                                                                    
                                                                                                    
                                                                                                    
                                                                                                    
                                                                                                    
                                                                                                    
                                                                                                    
                                                                                                    
                                                                                                    
                                                                                                    
                           
<?xpacket end="w"?></metadata>
<defs>
    <style>
      .cls-1 {
        fill: #0b8ffe;
        fill-rule: evenodd;
      }
    </style>
  </defs>
  <path id="icon_wy_01" class="cls-1" d="M62.642,536.268a1.64,1.64,0,0,0,1.638-1.644V522.3H76.568a1.644,1.644,0,0,0,0-3.288H62.642A1.641,1.641,0,0,0,61,520.653v13.971A1.64,1.64,0,0,0,62.642,536.268ZM76.568,567.7H64.28V555.375a1.638,1.638,0,1,0-3.277,0v13.971a1.64,1.64,0,0,0,1.639,1.644H76.568A1.644,1.644,0,0,0,76.568,567.7Zm33.792-48.693H96.434a1.644,1.644,0,0,0,0,3.288h12.288v12.327a1.639,1.639,0,1,0,3.277,0V520.653A1.641,1.641,0,0,0,110.36,519.009Zm0,34.722a1.64,1.64,0,0,0-1.638,1.644V567.7H96.434a1.644,1.644,0,0,0,0,3.288H110.36A1.64,1.64,0,0,0,112,569.346V555.375A1.64,1.64,0,0,0,110.36,553.731Zm-10.292.7v-0.883c0-4.064-6.4-6.675-8.854-7.522a2.043,2.043,0,0,1,.053-0.364,13.236,13.236,0,0,0,3.3-8.528c0-4.989-3.315-8.472-8.062-8.472s-8.043,3.483-8.043,8.472a13.247,13.247,0,0,0,3.331,8.589c0.038,0.163.014,0.223,0.078,0.215-2.688.976-8.936,3.669-8.936,7.61v0.883c0,5.589,10.238,5.589,13.6,5.589C89.884,560.024,100.068,560.024,100.068,554.435Zm-3.277,0c0,0.8-2.142,2.3-10.255,2.3-8.168,0-10.326-1.5-10.326-2.3v-0.883c0-.864,2.353-2.914,6.771-4.517a3.313,3.313,0,0,0,1.8-1.7,3.851,3.851,0,0,0-.01-3.049,1.644,1.644,0,0,0-.358-0.563,9.934,9.934,0,0,1-2.675-6.587c0-3.822,2.462-5.185,4.766-5.185s4.785,1.363,4.785,5.185A9.926,9.926,0,0,1,88.61,543.7a1.629,1.629,0,0,0-.427.814,4.135,4.135,0,0,0,.11,3.122,2.793,2.793,0,0,0,1.579,1.4c4.513,1.5,6.918,3.582,6.918,4.508v0.883Z" transform="translate(-56.5 -515)"/>
</svg>
