<svg xmlns="http://www.w3.org/2000/svg" width="80" height="80" viewBox="0 0 80 80">
  <metadata><?xpacket begin="﻿" id="W5M0MpCehiHzreSzNTczkc9d"?>
<x:xmpmeta xmlns:x="adobe:ns:meta/" x:xmptk="Adobe XMP Core 5.6-c138 79.159824, 2016/09/14-01:09:01        ">
   <rdf:RDF xmlns:rdf="http://www.w3.org/1999/02/22-rdf-syntax-ns#">
      <rdf:Description rdf:about=""/>
   </rdf:RDF>
</x:xmpmeta>
                                                                                                    
                                                                                                    
                                                                                                    
                                                                                                    
                                                                                                    
                                                                                                    
                                                                                                    
                                                                                                    
                                                                                                    
                                                                                                    
                                                                                                    
                                                                                                    
                                                                                                    
                                                                                                    
                                                                                                    
                                                                                                    
                                                                                                    
                                                                                                    
                                                                                                    
                                                                                                    
                           
<?xpacket end="w"?></metadata>
<defs>
    <style>
      .cls-1 {
        fill: #f3f3f3;
        fill-rule: evenodd;
      }
    </style>
  </defs>
  <path id="icon_wxlogin" class="cls-1" d="M379.921,1181.47a1.613,1.613,0,0,0-1.528,1.59,1.58,1.58,0,0,0,1.528,1.41A1.556,1.556,0,1,0,379.921,1181.47Zm-5.021-7.37a1.817,1.817,0,0,0,1.964-1.91,1.792,1.792,0,0,0-1.964-1.91,2.051,2.051,0,0,0-2.238,1.91A2.084,2.084,0,0,0,374.9,1174.1Zm0.6-26.1a33.5,33.5,0,1,0,33.5,33.5A33.5,33.5,0,0,0,375.5,1148Zm-6.331,41.99a17.932,17.932,0,0,1-5.4-.88l-5.512,2.79,1.582-4.7c-3.875-2.73-6.167-6.16-6.167-10.37,0-7.42,6.986-13.1,15.5-13.1,7.532,0,14.245,4.48,15.555,10.81a7.5,7.5,0,0,0-1.473-.16c-7.423,0-13.154,5.56-13.154,12.28a13.138,13.138,0,0,0,.436,3.27A10.377,10.377,0,0,1,369.169,1189.99Zm22.76,5.35,1.091,3.93-4.148-2.35a23.33,23.33,0,0,1-4.694.82c-7.313,0-13.1-5.02-13.1-11.25s5.786-11.24,13.1-11.24c6.932,0,13.154,5.02,13.154,11.24C397.332,1189.99,394.985,1193.1,391.929,1195.34Zm-27.836-25.06a2.154,2.154,0,0,0-2.347,1.91,2.19,2.19,0,0,0,2.347,1.91,1.876,1.876,0,0,0,1.965-1.91A1.848,1.848,0,0,0,364.093,1170.28Zm24.4,11.19a1.576,1.576,0,0,0-1.528,1.59,1.539,1.539,0,0,0,1.528,1.41A1.545,1.545,0,1,0,388.49,1181.47Z" transform="translate(-335.5 -1141.5)"/>
</svg>
