<svg xmlns="http://www.w3.org/2000/svg" width="60" height="60" viewBox="0 0 60 60">
  <metadata><?xpacket begin="﻿" id="W5M0MpCehiHzreSzNTczkc9d"?>
<x:xmpmeta xmlns:x="adobe:ns:meta/" x:xmptk="Adobe XMP Core 5.6-c138 79.159824, 2016/09/14-01:09:01        ">
   <rdf:RDF xmlns:rdf="http://www.w3.org/1999/02/22-rdf-syntax-ns#">
      <rdf:Description rdf:about=""/>
   </rdf:RDF>
</x:xmpmeta>
                                                                                                    
                                                                                                    
                                                                                                    
                                                                                                    
                                                                                                    
                                                                                                    
                                                                                                    
                                                                                                    
                                                                                                    
                                                                                                    
                                                                                                    
                                                                                                    
                                                                                                    
                                                                                                    
                                                                                                    
                                                                                                    
                                                                                                    
                                                                                                    
                                                                                                    
                                                                                                    
                           
<?xpacket end="w"?></metadata>
<defs>
    <style>
      .cls-1 {
        fill: #c874e4;
        fill-rule: evenodd;
      }
    </style>
  </defs>
  <path id="icon_wy_29" class="cls-1" d="M394.876,2004.04l-18.429-15.79a2.128,2.128,0,0,0-1.775-.1,1.862,1.862,0,0,0-.439.17l-18.1,15.61a2.09,2.09,0,0,0-.873,2.85,2.158,2.158,0,0,0,2.895.86l0.65-.35v20.93a2.033,2.033,0,0,0,2.21,1.78h9.054v-7.78a0.811,0.811,0,0,1,.726-0.88h10.4a0.812,0.812,0,0,1,.727.88V2030h9.07a2.03,2.03,0,0,0,2.207-1.78v-20.35a2.239,2.239,0,0,0,.673.12,2.137,2.137,0,0,0,1.885-1.11A2.078,2.078,0,0,0,394.876,2004.04Zm-19.115,14.84a8.226,8.226,0,1,1,8.362-8.22A8.291,8.291,0,0,1,375.761,2018.88Zm2.85-7.85a6.677,6.677,0,0,0-2.271-1.42,4.507,4.507,0,0,1-1.718-.9,1.172,1.172,0,0,1-.289-0.8,1.154,1.154,0,0,1,.364-0.91,1.455,1.455,0,0,1,1.033-.34,1.282,1.282,0,0,1,1.071.46,1.463,1.463,0,0,1,.327,1.08l-0.025.29h2.032v-0.27a3.674,3.674,0,0,0-.789-2.26,2.693,2.693,0,0,0-1.733-1.01v-1.46H374.8v1.5a3.384,3.384,0,0,0-1.455.77,2.973,2.973,0,0,0-1.017,2.34,2.523,2.523,0,0,0,.747,1.81,6.158,6.158,0,0,0,2.3,1.33,5.3,5.3,0,0,1,1.583.92,1.324,1.324,0,0,1,.493.97,1.589,1.589,0,0,1-.414,1.12,1.669,1.669,0,0,1-1.3.45,1.726,1.726,0,0,1-1.167-.44,1.557,1.557,0,0,1-.486-1.25v-0.64H372.07v0.7a3.238,3.238,0,0,0,.974,2.39,3.392,3.392,0,0,0,2.111.93v1.43h1.815v-1.54a3.4,3.4,0,0,0,1.47-.78,3.239,3.239,0,0,0,1.013-2.49A2.781,2.781,0,0,0,378.611,2011.03Z" transform="translate(-345.5 -1979)"/>
</svg>
