<svg xmlns="http://www.w3.org/2000/svg" width="86" height="86" viewBox="0 0 86 86">
  <metadata><?xpacket begin="﻿" id="W5M0MpCehiHzreSzNTczkc9d"?>
<x:xmpmeta xmlns:x="adobe:ns:meta/" x:xmptk="Adobe XMP Core 5.6-c138 79.159824, 2016/09/14-01:09:01        ">
   <rdf:RDF xmlns:rdf="http://www.w3.org/1999/02/22-rdf-syntax-ns#">
      <rdf:Description rdf:about=""/>
   </rdf:RDF>
</x:xmpmeta>
                                                                                                    
                                                                                                    
                                                                                                    
                                                                                                    
                                                                                                    
                                                                                                    
                                                                                                    
                                                                                                    
                                                                                                    
                                                                                                    
                                                                                                    
                                                                                                    
                                                                                                    
                                                                                                    
                                                                                                    
                                                                                                    
                                                                                                    
                                                                                                    
                                                                                                    
                                                                                                    
                           
<?xpacket end="w"?></metadata>
<defs>
    <style>
      .cls-1 {
        fill: #fff;
        fill-rule: evenodd;
      }
    </style>
  </defs>
  <path id="icon_menu_fk" class="cls-1" d="M307.745,245h-26.4a1.277,1.277,0,0,1-1.259-1.3V240.69A14.8,14.8,0,0,1,289.2,226.9l0.332-.137-0.284-.23a8.887,8.887,0,0,1-3.3-6.941,8.594,8.594,0,1,1,17.181,0,8.879,8.879,0,0,1-3.3,6.941l-0.284.23,0.333,0.137A14.8,14.8,0,0,1,309,240.69V243.7a1.265,1.265,0,0,1-1.253,1.3h0Zm-24.906-27.913a11.264,11.264,0,0,0,1.939,8.79l0.322,0.263-0.381.153c-4.72,1.947-7.055,6.257-7.939,11.235-0.857.033-1.356,0.027-1.356,0.027a18.062,18.062,0,0,1-14.063-14.238,18.848,18.848,0,0,1,2.465-13.877,17.724,17.724,0,0,1,11.218-8.025,17.519,17.519,0,0,1,3.761-.415,17.761,17.761,0,0,1,13.607,6.553s0.172,0.3.455,0.831C287.462,208.412,283.423,213.274,282.839,217.087Zm-3.965-7.385h-2.459v9.578l-5.625,5.788,1.822,1.378L278.874,220V209.7Z" transform="translate(-241.984 -180)"/>
</svg>
