<svg xmlns="http://www.w3.org/2000/svg" width="50" height="50" viewBox="0 0 50 50">
  <metadata><?xpacket begin="﻿" id="W5M0MpCehiHzreSzNTczkc9d"?>
<x:xmpmeta xmlns:x="adobe:ns:meta/" x:xmptk="Adobe XMP Core 5.6-c138 79.159824, 2016/09/14-01:09:01        ">
   <rdf:RDF xmlns:rdf="http://www.w3.org/1999/02/22-rdf-syntax-ns#">
      <rdf:Description rdf:about=""/>
   </rdf:RDF>
</x:xmpmeta>
                                                                                                    
                                                                                                    
                                                                                                    
                                                                                                    
                                                                                                    
                                                                                                    
                                                                                                    
                                                                                                    
                                                                                                    
                                                                                                    
                                                                                                    
                                                                                                    
                                                                                                    
                                                                                                    
                                                                                                    
                                                                                                    
                                                                                                    
                                                                                                    
                                                                                                    
                                                                                                    
                           
<?xpacket end="w"?></metadata>
<defs>
    <style>
      .cls-1 {
        fill: #0b8ffe;
        fill-rule: evenodd;
      }
    </style>
  </defs>
  <path id="icon_bus_h" class="cls-1" d="M395,2278.62a4.625,4.625,0,0,0-4.624-4.62H359.624a4.625,4.625,0,0,0-4.624,4.62v30.76a4.625,4.625,0,0,0,4.624,4.62h30.752a4.625,4.625,0,0,0,4.624-4.62v-30.76Zm-35.376-1.54h30.752a1.549,1.549,0,0,1,1.541,1.54v7.71H358.083v-7.7A1.551,1.551,0,0,1,359.624,2277.08Zm27.691,3.09h0a1.542,1.542,0,0,0-1.542,1.54h0a1.542,1.542,0,0,0,1.542,1.54h0a1.541,1.541,0,0,0,1.541-1.54h0A1.541,1.541,0,0,0,387.315,2280.17Zm-24.606,3.08h18.467a1.541,1.541,0,0,0,0-3.08H362.709A1.54,1.54,0,1,0,362.709,2283.25Z" transform="translate(-350 -2269)"/>
</svg>
