<svg xmlns="http://www.w3.org/2000/svg" width="48" height="48" viewBox="0 0 48 48">
  <metadata><?xpacket begin="﻿" id="W5M0MpCehiHzreSzNTczkc9d"?>
<x:xmpmeta xmlns:x="adobe:ns:meta/" x:xmptk="Adobe XMP Core 5.6-c138 79.159824, 2016/09/14-01:09:01        ">
   <rdf:RDF xmlns:rdf="http://www.w3.org/1999/02/22-rdf-syntax-ns#">
      <rdf:Description rdf:about=""/>
   </rdf:RDF>
</x:xmpmeta>
                                                                                                    
                                                                                                    
                                                                                                    
                                                                                                    
                                                                                                    
                                                                                                    
                                                                                                    
                                                                                                    
                                                                                                    
                                                                                                    
                                                                                                    
                                                                                                    
                                                                                                    
                                                                                                    
                                                                                                    
                                                                                                    
                                                                                                    
                                                                                                    
                                                                                                    
                                                                                                    
                           
<?xpacket end="w"?></metadata>
<defs>
    <style>
      .cls-1 {
        fill: #fff;
        fill-rule: evenodd;
      }
    </style>
  </defs>
  <path id="icon_notice_02" class="cls-1" d="M51.279,656.321l3.806-2.536a0.6,0.6,0,0,1,.809.136,0.535,0.535,0,0,1-.143.769l-3.806,2.536a0.6,0.6,0,0,1-.809-0.135A0.536,0.536,0,0,1,51.279,656.321ZM37.143,669.706H34.861A2.714,2.714,0,0,1,32,667.053v-7.075a2.714,2.714,0,0,1,2.863-2.653h2.282v12.381Zm11.451,2.742c0,1.415-1.145,2.034-2.481,1.238l-7.062-3.98V657.325l7.062-3.98c1.336-.708,2.481-0.177,2.481,1.326v17.777Zm7.131,1.036a0.628,0.628,0,0,1-.85.143l-4-2.679a0.568,0.568,0,0,1-.15-0.813,0.628,0.628,0,0,1,.85-0.144l4,2.68a0.568,0.568,0,0,1,.15.813h0ZM57,663.806a0.547,0.547,0,0,1-.556.538H51.74a0.547,0.547,0,0,1-.556-0.538v-0.017a0.548,0.548,0,0,1,.556-0.539h4.705a0.548,0.548,0,0,1,.556.539v0.017Z" transform="translate(-20.5 -639.531)"/>
</svg>
