<svg xmlns="http://www.w3.org/2000/svg" width="60" height="60" viewBox="0 0 60 60">
  <metadata><?xpacket begin="﻿" id="W5M0MpCehiHzreSzNTczkc9d"?>
<x:xmpmeta xmlns:x="adobe:ns:meta/" x:xmptk="Adobe XMP Core 5.6-c138 79.159824, 2016/09/14-01:09:01        ">
   <rdf:RDF xmlns:rdf="http://www.w3.org/1999/02/22-rdf-syntax-ns#">
      <rdf:Description rdf:about=""/>
   </rdf:RDF>
</x:xmpmeta>
                                                                                                    
                                                                                                    
                                                                                                    
                                                                                                    
                                                                                                    
                                                                                                    
                                                                                                    
                                                                                                    
                                                                                                    
                                                                                                    
                                                                                                    
                                                                                                    
                                                                                                    
                                                                                                    
                                                                                                    
                                                                                                    
                                                                                                    
                                                                                                    
                                                                                                    
                                                                                                    
                           
<?xpacket end="w"?></metadata>
<defs>
    <style>
      .cls-1 {
        fill: #9c88ff;
        fill-rule: evenodd;
      }
    </style>
  </defs>
  <path id="icon_wy_07" class="cls-1" d="M680.175,792H645.819A3.86,3.86,0,0,0,642,795.9v22.369a3.864,3.864,0,0,0,3.822,3.9h16.224v2.919h-7.169a1.46,1.46,0,0,0,0,2.919h17.2a1.46,1.46,0,0,0,0-2.919h-7.166v-2.919h15.271a3.861,3.861,0,0,0,3.82-3.9V795.9A3.866,3.866,0,0,0,680.175,792Zm-4.248,23.822a1.443,1.443,0,0,1-1.432,1.453h-2.864a1.441,1.441,0,0,1-1.432-1.459v-0.007a1.443,1.443,0,0,1,1.432-1.453h2.87a1.444,1.444,0,0,1,1.426,1.46v0.006Z" transform="translate(-633 -780)"/>
</svg>
