<svg xmlns="http://www.w3.org/2000/svg" width="30" height="30" viewBox="0 0 30 30">
  <metadata><?xpacket begin="﻿" id="W5M0MpCehiHzreSzNTczkc9d"?>
<x:xmpmeta xmlns:x="adobe:ns:meta/" x:xmptk="Adobe XMP Core 5.6-c138 79.159824, 2016/09/14-01:09:01        ">
   <rdf:RDF xmlns:rdf="http://www.w3.org/1999/02/22-rdf-syntax-ns#">
      <rdf:Description rdf:about=""/>
   </rdf:RDF>
</x:xmpmeta>
                                                                                                    
                                                                                                    
                                                                                                    
                                                                                                    
                                                                                                    
                                                                                                    
                                                                                                    
                                                                                                    
                                                                                                    
                                                                                                    
                                                                                                    
                                                                                                    
                                                                                                    
                                                                                                    
                                                                                                    
                                                                                                    
                                                                                                    
                                                                                                    
                                                                                                    
                                                                                                    
                           
<?xpacket end="w"?></metadata>
<defs>
    <style>
      .cls-1 {
        fill: #8a8a8a;
        fill-rule: evenodd;
      }
    </style>
  </defs>
  <path id="icon_login_mem" class="cls-1" d="M129.41,661.375a12.588,12.588,0,0,0-8.7-6.04,7.469,7.469,0,1,0-4.451,0,12.592,12.592,0,0,0-8.7,6.04,4.3,4.3,0,0,0,.028,4.4,4.521,4.521,0,0,0,3.93,2.223h13.927a4.521,4.521,0,0,0,3.93-2.223A4.3,4.3,0,0,0,129.41,661.375Zm-14.716-12.183a0.553,0.553,0,0,1,.119-0.044c0.013,0,.026,0,0.039-0.008a0.6,0.6,0,0,1,.085-0.01h0.04a0.551,0.551,0,0,1,.108.015c0.008,0,.017,0,0.026,0a0.614,0.614,0,0,1,.122.05l0.026,0.017a0.573,0.573,0,0,1,.083.064l0.028,0.027a0.541,0.541,0,0,1,.082.111,3.364,3.364,0,0,0,.447.642,3.483,3.483,0,0,0,5.054.129,3.525,3.525,0,0,0,.314-0.366,3.352,3.352,0,0,0,.259-0.4,0.541,0.541,0,0,1,.082-0.111l0.027-.027a0.633,0.633,0,0,1,.083-0.064l0.027-.017a0.59,0.59,0,0,1,.122-0.05,0.227,0.227,0,0,1,.025-0.006A0.638,0.638,0,0,1,122,649.13h0.04a0.63,0.63,0,0,1,.086.01l0.038,0.007a0.557,0.557,0,0,1,.351.273,0.542,0.542,0,0,1,0,.517,4.471,4.471,0,0,1-.758,1.02,4.548,4.548,0,0,1-1.918,1.158,4.646,4.646,0,0,1-4.439-.985,4.418,4.418,0,0,1-.936-1.194A0.545,0.545,0,0,1,114.694,649.192Z" transform="translate(-103.5 -639.5)"/>
</svg>
