<svg xmlns="http://www.w3.org/2000/svg" width="86" height="86" viewBox="0 0 86 86">
  <metadata><?xpacket begin="﻿" id="W5M0MpCehiHzreSzNTczkc9d"?>
<x:xmpmeta xmlns:x="adobe:ns:meta/" x:xmptk="Adobe XMP Core 5.6-c138 79.159824, 2016/09/14-01:09:01        ">
   <rdf:RDF xmlns:rdf="http://www.w3.org/1999/02/22-rdf-syntax-ns#">
      <rdf:Description rdf:about=""/>
   </rdf:RDF>
</x:xmpmeta>
                                                                                                    
                                                                                                    
                                                                                                    
                                                                                                    
                                                                                                    
                                                                                                    
                                                                                                    
                                                                                                    
                                                                                                    
                                                                                                    
                                                                                                    
                                                                                                    
                                                                                                    
                                                                                                    
                                                                                                    
                                                                                                    
                                                                                                    
                                                                                                    
                                                                                                    
                                                                                                    
                           
<?xpacket end="w"?></metadata>
<defs>
    <style>
      .cls-1 {
        fill: #fff;
        fill-rule: evenodd;
      }
    </style>
  </defs>
  <path id="icon_menu_key" class="cls-1" d="M471.73,201a14.147,14.147,0,0,0-14.27,14.026,13.764,13.764,0,0,0,1.521,6.3L444,237.664v4.948L446.3,245l3.567-.451-0.02-3.6,4.735,0.157a1.636,1.636,0,0,0,1.737-1.682l-0.1-4.173,4.236-.084a1.633,1.633,0,0,0,1.627-1.775l-0.35-4.277,3.817-.088,0.877-.978a14.444,14.444,0,0,0,5.3,1A14.028,14.028,0,1,0,471.73,201Zm0,21.1a7.073,7.073,0,1,1,7.195-7.071A7.134,7.134,0,0,1,471.73,222.1Z" transform="translate(-422 -180)"/>
</svg>
