<svg xmlns="http://www.w3.org/2000/svg" width="60" height="60" viewBox="0 0 60 60">
  <metadata><?xpacket begin="﻿" id="W5M0MpCehiHzreSzNTczkc9d"?>
<x:xmpmeta xmlns:x="adobe:ns:meta/" x:xmptk="Adobe XMP Core 5.6-c138 79.159824, 2016/09/14-01:09:01        ">
   <rdf:RDF xmlns:rdf="http://www.w3.org/1999/02/22-rdf-syntax-ns#">
      <rdf:Description rdf:about=""/>
   </rdf:RDF>
</x:xmpmeta>
                                                                                                    
                                                                                                    
                                                                                                    
                                                                                                    
                                                                                                    
                                                                                                    
                                                                                                    
                                                                                                    
                                                                                                    
                                                                                                    
                                                                                                    
                                                                                                    
                                                                                                    
                                                                                                    
                                                                                                    
                                                                                                    
                                                                                                    
                                                                                                    
                                                                                                    
                                                                                                    
                           
<?xpacket end="w"?></metadata>
<defs>
    <style>
      .cls-1 {
        fill: #09ba07;
        fill-rule: evenodd;
      }
    </style>
  </defs>
  <path id="icon_pay_wx" class="cls-1" d="M53.959,503.975a1.444,1.444,0,0,0-1.369,1.418,1.423,1.423,0,0,0,1.369,1.271A1.394,1.394,0,1,0,53.959,503.975Zm-4.5-6.6a1.63,1.63,0,0,0,1.76-1.711,1.606,1.606,0,0,0-1.76-1.711,1.837,1.837,0,0,0-2,1.711A1.869,1.869,0,0,0,49.462,497.377ZM50,474a30,30,0,1,0,30,30A30,30,0,0,0,50,474Zm-5.67,37.6a16.166,16.166,0,0,1-4.839-.783l-4.937,2.493,1.417-4.2c-3.47-2.444-5.523-5.523-5.523-9.287,0-6.648,6.256-11.731,13.881-11.731,6.745,0,12.757,4.008,13.93,9.678a6.779,6.779,0,0,0-1.32-.147c-6.647,0-11.78,4.986-11.78,11a11.786,11.786,0,0,0,.391,2.933A10.192,10.192,0,0,1,44.33,511.6Zm20.382,4.79,0.978,3.519-3.715-2.1a21.077,21.077,0,0,1-4.2.733c-6.55,0-11.731-4.5-11.731-10.069S51.222,498.4,57.772,498.4c6.207,0,11.78,4.5,11.78,10.069C69.551,511.6,67.45,514.387,64.712,516.391ZM39.784,493.955a1.929,1.929,0,0,0-2.1,1.711,1.964,1.964,0,0,0,2.1,1.711,1.682,1.682,0,0,0,1.76-1.711A1.655,1.655,0,0,0,39.784,493.955Zm21.849,10.02a1.41,1.41,0,0,0-1.369,1.418,1.385,1.385,0,0,0,1.369,1.271A1.384,1.384,0,1,0,61.633,503.975Z" transform="translate(-20 -474)"/>
</svg>
