<svg xmlns="http://www.w3.org/2000/svg" width="100" height="100" viewBox="0 0 100 100">
  <metadata><?xpacket begin="﻿" id="W5M0MpCehiHzreSzNTczkc9d"?>
<x:xmpmeta xmlns:x="adobe:ns:meta/" x:xmptk="Adobe XMP Core 5.6-c138 79.159824, 2016/09/14-01:09:01        ">
   <rdf:RDF xmlns:rdf="http://www.w3.org/1999/02/22-rdf-syntax-ns#">
      <rdf:Description rdf:about=""/>
   </rdf:RDF>
</x:xmpmeta>
                                                                                                    
                                                                                                    
                                                                                                    
                                                                                                    
                                                                                                    
                                                                                                    
                                                                                                    
                                                                                                    
                                                                                                    
                                                                                                    
                                                                                                    
                                                                                                    
                                                                                                    
                                                                                                    
                                                                                                    
                                                                                                    
                                                                                                    
                                                                                                    
                                                                                                    
                                                                                                    
                           
<?xpacket end="w"?></metadata>
<defs>
    <style>
      .cls-1 {
        fill: #fff;
        fill-rule: evenodd;
      }
    </style>
  </defs>
  <path id="icon_wy_top_03" class="cls-1" d="M624.14,240.268H613.359v-4.335H624.14a2.364,2.364,0,0,0,0-4.727H613.359v-0.649l10.781-9.824a2.373,2.373,0,0,0,.161-3.341,2.343,2.343,0,0,0-3.321-.164l-9.986,9.1-9.986-9.1a2.339,2.339,0,0,0-3.321.164,2.373,2.373,0,0,0,.161,3.341l10.781,9.824v0.649H597.871a2.364,2.364,0,0,0,0,4.727h10.758v4.335H597.871a2.364,2.364,0,0,0,0,4.728h10.758v9.947a2.357,2.357,0,0,0,2.353,2.364l0.012,0,0.012,0a2.357,2.357,0,0,0,2.353-2.364V245H624.14A2.364,2.364,0,0,0,624.14,240.268ZM653.377,206.4l-41.661-13.3a2.339,2.339,0,0,0-1.424,0l-41.658,13.3a2.365,2.365,0,0,0,.713,4.617,2.32,2.32,0,0,0,.711-0.11l5.562-1.776v59.5A2.357,2.357,0,0,0,577.973,271h66.065a2.357,2.357,0,0,0,2.353-2.364v-59.5l5.562,1.776A2.363,2.363,0,0,0,653.377,206.4Zm-11.691,1.367v58.5H580.325v-58.5c0-.046-0.023-0.084-0.025-0.13l30.705-9.8,30.706,9.8C641.709,207.682,641.686,207.72,641.686,207.766Z" transform="translate(-561.015 -182)"/>
</svg>
