<svg xmlns="http://www.w3.org/2000/svg" width="60" height="60" viewBox="0 0 60 60">
  <metadata><?xpacket begin="﻿" id="W5M0MpCehiHzreSzNTczkc9d"?>
<x:xmpmeta xmlns:x="adobe:ns:meta/" x:xmptk="Adobe XMP Core 5.6-c138 79.159824, 2016/09/14-01:09:01        ">
   <rdf:RDF xmlns:rdf="http://www.w3.org/1999/02/22-rdf-syntax-ns#">
      <rdf:Description rdf:about=""/>
   </rdf:RDF>
</x:xmpmeta>
                                                                                                    
                                                                                                    
                                                                                                    
                                                                                                    
                                                                                                    
                                                                                                    
                                                                                                    
                                                                                                    
                                                                                                    
                                                                                                    
                                                                                                    
                                                                                                    
                                                                                                    
                                                                                                    
                                                                                                    
                                                                                                    
                                                                                                    
                                                                                                    
                                                                                                    
                                                                                                    
                           
<?xpacket end="w"?></metadata>
<defs>
    <style>
      .cls-1 {
        fill: #0b8ffe;
        fill-rule: evenodd;
      }
    </style>
  </defs>
  <path id="icon_pay_zfb" class="cls-1" d="M31.144,603.733a6.422,6.422,0,0,1,5.228-6.6c6.6-1.1,15.547,4.4,15.547,4.4-4.127,5.23-9.769,7.844-14.171,7.844-3.99-.275-6.6-2.477-6.6-5.642h0Zm46.228,2.2c-0.825-.275-19.4-6.055-18.849-6.606,2.752-3.3,4.678-10.871,4.678-10.871v-1.651H52.332v-4.129H65.678V580.2H52.332v-6.055h-5.5v5.78H34.859V582.4h11.97v4.129H37.335v1.651H57.01a31.71,31.71,0,0,1-2.752,8.669c-0.275-.55-8.943-3.578-13.9-3.853-5.228.275-9.218,1.927-11.144,5.78-2.752,7.018,1.651,14.174,11.42,14.174,1.651,0,9.493-.826,15.547-8.945,1.651,0.826,10.869,5.5,16.648,8.395A29.377,29.377,0,0,1,49.993,623a29.172,29.172,0,1,1,27.379-17.064h0Z" transform="translate(-20 -563)"/>
</svg>
