<svg xmlns="http://www.w3.org/2000/svg" width="30" height="30" viewBox="0 0 30 30">
  <metadata><?xpacket begin="﻿" id="W5M0MpCehiHzreSzNTczkc9d"?>
<x:xmpmeta xmlns:x="adobe:ns:meta/" x:xmptk="Adobe XMP Core 5.6-c138 79.159824, 2016/09/14-01:09:01        ">
   <rdf:RDF xmlns:rdf="http://www.w3.org/1999/02/22-rdf-syntax-ns#">
      <rdf:Description rdf:about=""/>
   </rdf:RDF>
</x:xmpmeta>
                                                                                                    
                                                                                                    
                                                                                                    
                                                                                                    
                                                                                                    
                                                                                                    
                                                                                                    
                                                                                                    
                                                                                                    
                                                                                                    
                                                                                                    
                                                                                                    
                                                                                                    
                                                                                                    
                                                                                                    
                                                                                                    
                                                                                                    
                                                                                                    
                                                                                                    
                                                                                                    
                           
<?xpacket end="w"?></metadata>
<defs>
    <style>
      .cls-1 {
        fill: #8a8a8a;
        fill-rule: evenodd;
      }
    </style>
  </defs>
  <path id="icon_jf_small" class="cls-1" d="M51,340.058v9.695H50.991c-0.05.626-.454,1.653-2.347,2.428a13.01,13.01,0,0,1-4.775.818h0a13.011,13.011,0,0,1-4.775-.818c-1.894-.775-2.3-1.8-2.347-2.428H36.738v-9.79h0c0-.6.306-1.735,2.353-2.573a13.005,13.005,0,0,1,4.778-.818,13.005,13.005,0,0,1,4.778.818c2.048,0.838,2.353,1.972,2.353,2.573C51,339.993,51,340.025,51,340.058Zm-12.634,9.55h0a1.9,1.9,0,0,0,1.348,1.083,12.757,12.757,0,0,0,8.312,0,1.9,1.9,0,0,0,1.348-1.083h0v-2.271a6.508,6.508,0,0,1-.727.348,12.989,12.989,0,0,1-4.775.818h0a12.99,12.99,0,0,1-4.775-.818,6.506,6.506,0,0,1-.727-0.348v2.271Zm0-4.5h0a1.9,1.9,0,0,0,1.348,1.083,12.739,12.739,0,0,0,8.312,0,1.9,1.9,0,0,0,1.348-1.083h0v-2.923a6.68,6.68,0,0,1-.725.347,13.026,13.026,0,0,1-4.778.818,13.026,13.026,0,0,1-4.778-.818,6.682,6.682,0,0,1-.727-0.349v2.925Zm9.663-6.232a12.765,12.765,0,0,0-8.315,0,1.109,1.109,0,1,0,0,2.166,12.765,12.765,0,0,0,8.315,0,2.006,2.006,0,0,0,1.345-1.054v-0.029h0A1.9,1.9,0,0,0,48.026,338.88Zm-3.279-3.335a0.81,0.81,0,0,1-.813-0.806v-2.2a8.627,8.627,0,0,1-1.8.971,20.043,20.043,0,0,1-7.358,1.256,20.044,20.044,0,0,1-7.358-1.256,8.624,8.624,0,0,1-1.8-.971v5.466h0c0,0.72.9,1.519,2.416,2.138a18.4,18.4,0,0,0,6.738,1.134,0.806,0.806,0,1,1,0,1.611,20.044,20.044,0,0,1-7.358-1.255,8.624,8.624,0,0,1-1.8-.971V345.1a0,0,0,0,0,0,0c0,0.72.9,1.52,2.416,2.139a18.4,18.4,0,0,0,6.738,1.133,0.806,0.806,0,1,1,0,1.612,20.065,20.065,0,0,1-7.358-1.255c-2.089-.855-3.288-2.056-3.41-3.4H24V329.884h0c0-1.437,1.215-2.726,3.422-3.629A20.065,20.065,0,0,1,34.78,325a20.065,20.065,0,0,1,7.358,1.255c2.207,0.9,3.422,2.192,3.422,3.629,0,0.021,0,.042,0,0.063s0,0.022,0,.034v4.758A0.81,0.81,0,0,1,44.747,335.545Zm-3.23-7.8a18.4,18.4,0,0,0-6.738-1.133,18.4,18.4,0,0,0-6.738,1.133c-1.513.619-2.416,1.419-2.416,2.139s0.9,1.519,2.416,2.138a18.4,18.4,0,0,0,6.738,1.134,18.4,18.4,0,0,0,6.738-1.134c1.513-.619,2.416-1.418,2.416-2.138S43.031,328.364,41.518,327.745Z" transform="translate(-22.5 -324)"/>
</svg>
