<svg xmlns="http://www.w3.org/2000/svg" width="42" height="42" viewBox="0 0 42 42">
  <metadata><?xpacket begin="﻿" id="W5M0MpCehiHzreSzNTczkc9d"?>
<x:xmpmeta xmlns:x="adobe:ns:meta/" x:xmptk="Adobe XMP Core 5.6-c138 79.159824, 2016/09/14-01:09:01        ">
   <rdf:RDF xmlns:rdf="http://www.w3.org/1999/02/22-rdf-syntax-ns#">
      <rdf:Description rdf:about=""/>
   </rdf:RDF>
</x:xmpmeta>
                                                                                                    
                                                                                                    
                                                                                                    
                                                                                                    
                                                                                                    
                                                                                                    
                                                                                                    
                                                                                                    
                                                                                                    
                                                                                                    
                                                                                                    
                                                                                                    
                                                                                                    
                                                                                                    
                                                                                                    
                                                                                                    
                                                                                                    
                                                                                                    
                                                                                                    
                                                                                                    
                           
<?xpacket end="w"?></metadata>
<defs>
    <style>
      .cls-1 {
        fill: #fff;
        fill-rule: evenodd;
      }
    </style>
  </defs>
  <path id="icon_msg" class="cls-1" d="M714.9,79.5h-12a1.5,1.5,0,1,1,0-3h12A1.5,1.5,0,1,1,714.9,79.5Zm-2.847,6H702.9a1.5,1.5,0,1,1,0-3h9.153A1.5,1.5,0,1,1,712.048,85.5ZM730,81c0-9.925-9.42-18-21-18s-21,8.074-21,18c0,5.461,2.955,10.6,8.106,14.093a1.5,1.5,0,0,0,1.684-2.482C693.475,89.68,691,85.449,691,81c0-8.27,8.075-15,18-15s18,6.729,18,15-8.075,15-18,15a1.38,1.38,0,0,0-.261.052,1.481,1.481,0,0,0-1.677.946c-0.288.815-2.174,2.187-4.413,3.459,0.817-2.728.426-3.313,0.163-3.7a1.689,1.689,0,0,0-1.4-.747,1.5,1.5,0,0,0-1.3,2.248,30.968,30.968,0,0,1-1.549,4.68,1.5,1.5,0,0,0,2,1.936c1.711-.762,6.922-3.24,8.8-5.889C720.77,98.817,730,90.821,730,81Z" transform="translate(-688 -63)"/>
</svg>
