<svg xmlns="http://www.w3.org/2000/svg" width="60" height="60" viewBox="0 0 60 60">
  <metadata><?xpacket begin="﻿" id="W5M0MpCehiHzreSzNTczkc9d"?>
<x:xmpmeta xmlns:x="adobe:ns:meta/" x:xmptk="Adobe XMP Core 5.6-c138 79.159824, 2016/09/14-01:09:01        ">
   <rdf:RDF xmlns:rdf="http://www.w3.org/1999/02/22-rdf-syntax-ns#">
      <rdf:Description rdf:about=""/>
   </rdf:RDF>
</x:xmpmeta>
                                                                                                    
                                                                                                    
                                                                                                    
                                                                                                    
                                                                                                    
                                                                                                    
                                                                                                    
                                                                                                    
                                                                                                    
                                                                                                    
                                                                                                    
                                                                                                    
                                                                                                    
                                                                                                    
                                                                                                    
                                                                                                    
                                                                                                    
                                                                                                    
                                                                                                    
                                                                                                    
                           
<?xpacket end="w"?></metadata>
<defs>
    <style>
      .cls-1 {
        fill: #fff;
        fill-rule: evenodd;
      }
    </style>
  </defs>
  <path id="icon_close" class="cls-1" d="M375,1133a27,27,0,1,1,27-27A27.028,27.028,0,0,1,375,1133Zm0-50.13A23.13,23.13,0,1,0,398.125,1106,23.157,23.157,0,0,0,375,1082.87Zm2.715,23.21,8.34-8.25a1.928,1.928,0,0,0-2.712-2.74l-8.351,8.26-8.223-8.25a1.927,1.927,0,0,0-2.731,2.72l8.212,8.24-8.28,8.19a1.928,1.928,0,1,0,2.712,2.74l8.291-8.2,8.358,8.39a1.927,1.927,0,0,0,2.731-2.72Z" transform="translate(-345 -1076)"/>
</svg>
