<svg xmlns="http://www.w3.org/2000/svg" width="220" height="220" viewBox="0 0 220 220">
  <metadata><?xpacket begin="﻿" id="W5M0MpCehiHzreSzNTczkc9d"?>
<x:xmpmeta xmlns:x="adobe:ns:meta/" x:xmptk="Adobe XMP Core 5.6-c138 79.159824, 2016/09/14-01:09:01        ">
   <rdf:RDF xmlns:rdf="http://www.w3.org/1999/02/22-rdf-syntax-ns#">
      <rdf:Description rdf:about=""/>
   </rdf:RDF>
</x:xmpmeta>
                                                                                                    
                                                                                                    
                                                                                                    
                                                                                                    
                                                                                                    
                                                                                                    
                                                                                                    
                                                                                                    
                                                                                                    
                                                                                                    
                                                                                                    
                                                                                                    
                                                                                                    
                                                                                                    
                                                                                                    
                                                                                                    
                                                                                                    
                                                                                                    
                                                                                                    
                                                                                                    
                           
<?xpacket end="w"?></metadata>
<defs>
    <style>
      .cls-1 {
        fill: #dfdfdf;
        fill-rule: evenodd;
      }
    </style>
  </defs>
  <path id="icon_null_article" class="cls-1" d="M280.859,1597.07a5.011,5.011,0,0,0-5.707-4.15q-4.565.285-.7-2.17a4.99,4.99,0,0,0,2.18-6.7q-1.68-4.26,1.846-1.35a4.984,4.984,0,0,0,7.054,0q3.526-2.91,1.846,1.35a4.99,4.99,0,0,0,2.18,6.7q3.859,2.46-.7,2.17a5.011,5.011,0,0,0-5.707,4.15Q282,1601.5,280.859,1597.07Zm174.4-47.08q3.273-5.52-1.5-9.73t1.46-2.85q6.233,1.365,8.8-4.51t3.148,0.49q0.579,6.36,6.939,6.94t0.485,3.14q-5.874,2.58-4.513,8.81t-2.848,1.46q-4.211-4.785-9.728-1.5T455.263,1549.99ZM417.972,1496H333.028A15.721,15.721,0,0,0,317,1511.98v106.03A15.723,15.723,0,0,0,333.028,1634a23.307,23.307,0,0,0,2.671-.53l39.534-24.51,40.068,24.51a4.848,4.848,0,0,0,2.671.53A15.723,15.723,0,0,0,434,1618.01V1511.98A15.721,15.721,0,0,0,417.972,1496Zm5.342,122.01a5.187,5.187,0,0,1-4.273,5.33L377.9,1598.3a4.848,4.848,0,0,0-2.671-.53c-1.069,0-2.137,0-2.671.53l-40.6,25.04a5.734,5.734,0,0,1-4.273-5.33V1511.98a5.038,5.038,0,0,1,5.342-5.32h84.944a5.038,5.038,0,0,1,5.342,5.32v106.03Zm-21.369-90.57H348.521a5.325,5.325,0,1,0,0,10.65h53.424A5.325,5.325,0,1,0,401.945,1527.44Zm0,21.31H348.521a5.33,5.33,0,1,0,0,10.66h53.424A5.33,5.33,0,1,0,401.945,1548.75Zm0,21.31H348.521a5.33,5.33,0,1,0,0,10.66h53.424A5.33,5.33,0,1,0,401.945,1570.06Z" transform="translate(-265.031 -1455)"/>
</svg>
