<svg xmlns="http://www.w3.org/2000/svg" width="60" height="60" viewBox="0 0 60 60">
  <metadata><?xpacket begin="﻿" id="W5M0MpCehiHzreSzNTczkc9d"?>
<x:xmpmeta xmlns:x="adobe:ns:meta/" x:xmptk="Adobe XMP Core 5.6-c138 79.159824, 2016/09/14-01:09:01        ">
   <rdf:RDF xmlns:rdf="http://www.w3.org/1999/02/22-rdf-syntax-ns#">
      <rdf:Description rdf:about=""/>
   </rdf:RDF>
</x:xmpmeta>
                                                                                                    
                                                                                                    
                                                                                                    
                                                                                                    
                                                                                                    
                                                                                                    
                                                                                                    
                                                                                                    
                                                                                                    
                                                                                                    
                                                                                                    
                                                                                                    
                                                                                                    
                                                                                                    
                                                                                                    
                                                                                                    
                                                                                                    
                                                                                                    
                                                                                                    
                                                                                                    
                           
<?xpacket end="w"?></metadata>
<defs>
    <style>
      .cls-1 {
        fill: #f87171;
        fill-rule: evenodd;
      }
    </style>
  </defs>
  <path id="icon_wy_30" class="cls-1" d="M217.166,2153.78h4.42q3.451-.06,3.453,3.2a5.248,5.248,0,0,1-.3,1.94,2.249,2.249,0,0,1-1.457,1.26v0.04c1.438,0.31,2.134,1.36,2.1,3.13a4.769,4.769,0,0,1-.763,2.86,3.425,3.425,0,0,1-2.936,1.17h-4.521v-13.6h0Zm3.187,5.38h0.621a1,1,0,0,0,1-.47,2.573,2.573,0,0,0,.181-1.12,2.517,2.517,0,0,0-.2-1.11,0.906,0.906,0,0,0-.849-0.37h-0.759v3.07h0Zm0,5.91h0.664a1.025,1.025,0,0,0,1.006-.44,3.61,3.61,0,0,0,.18-1.42,3.363,3.363,0,0,0-.181-1.27,0.908,0.908,0,0,0-.939-0.57h-0.735v3.7h0Zm6.465-11.28h4.421c2.3-.05,3.453,1.02,3.453,3.19a5.247,5.247,0,0,1-.3,1.94,2.245,2.245,0,0,1-1.456,1.26v0.04c1.437,0.31,2.135,1.36,2.1,3.13a4.776,4.776,0,0,1-.763,2.86,3.425,3.425,0,0,1-2.936,1.17h-4.522v-13.59Zm3.188,5.37h0.621a1,1,0,0,0,1-.47,2.573,2.573,0,0,0,.18-1.12,2.517,2.517,0,0,0-.2-1.11,0.9,0.9,0,0,0-.849-0.37H230v3.07h0Zm0,5.91h0.664a1.023,1.023,0,0,0,1.005-.44,3.568,3.568,0,0,0,.181-1.42,3.4,3.4,0,0,0-.181-1.27,0.908,0.908,0,0,0-.939-0.57H230v3.7h0Zm9.382-2.29v1a1.882,1.882,0,0,0,.214.97,0.864,0.864,0,0,0,.868.44,1.013,1.013,0,0,0,.834-0.32,1.028,1.028,0,0,0,.28-0.73,2.087,2.087,0,0,0-.779-1.57,14.137,14.137,0,0,0-1.749-1.33c-0.3-.26-0.593-0.51-0.882-0.76a5.564,5.564,0,0,1-.811-0.79,3.246,3.246,0,0,1-.551-1,3.436,3.436,0,0,1-.237-1.32q0.05-3.87,4.028-3.82c2.651,0.05,3.964,1.18,3.941,3.42v1.22h-2.879v-0.73a2.667,2.667,0,0,0-.161-1.01,0.9,0.9,0,0,0-.9-0.48,0.989,0.989,0,0,0-.9,1.63,7.823,7.823,0,0,0,.613.68,22.806,22.806,0,0,0,1.807,1.41c0.3,0.25.607,0.49,0.929,0.72a5.672,5.672,0,0,1,.854.84,3.684,3.684,0,0,1,.636,1.16,5.522,5.522,0,0,1,.228,1.72,3.342,3.342,0,0,1-.195,1.07,3.482,3.482,0,0,1-.7,1.14,3.27,3.27,0,0,1-1.314.89,5.488,5.488,0,0,1-2.077.37,5.2,5.2,0,0,1-1.935-.34,3.438,3.438,0,0,1-1.272-.83,3.4,3.4,0,0,1-.873-2.19v-1.46h2.984Zm11.648-15.83a0.961,0.961,0,0,1,.96.94v25.43a0.963,0.963,0,0,1-.96.94H235.661l-0.878.86L231,2178.83l-3.776-3.71-0.878-.86H210.966a0.961,0.961,0,0,1-.959-0.94v-25.43a0.964,0.964,0,0,1,.959-0.94h40.07Zm0-2.95h-40.07a3.941,3.941,0,0,0-3.966,3.89v25.43a3.947,3.947,0,0,0,3.966,3.89H225.1L231,2183l5.9-5.79h14.13a3.941,3.941,0,0,0,3.967-3.89v-25.43A3.935,3.935,0,0,0,251.036,2144Z" transform="translate(-201 -2133.5)"/>
</svg>
