<svg xmlns="http://www.w3.org/2000/svg" width="60" height="60" viewBox="0 0 60 60">
  <metadata><?xpacket begin="﻿" id="W5M0MpCehiHzreSzNTczkc9d"?>
<x:xmpmeta xmlns:x="adobe:ns:meta/" x:xmptk="Adobe XMP Core 5.6-c138 79.159824, 2016/09/14-01:09:01        ">
   <rdf:RDF xmlns:rdf="http://www.w3.org/1999/02/22-rdf-syntax-ns#">
      <rdf:Description rdf:about=""/>
   </rdf:RDF>
</x:xmpmeta>
                                                                                                    
                                                                                                    
                                                                                                    
                                                                                                    
                                                                                                    
                                                                                                    
                                                                                                    
                                                                                                    
                                                                                                    
                                                                                                    
                                                                                                    
                                                                                                    
                                                                                                    
                                                                                                    
                                                                                                    
                                                                                                    
                                                                                                    
                                                                                                    
                                                                                                    
                                                                                                    
                           
<?xpacket end="w"?></metadata>
<defs>
    <style>
      .cls-1 {
        fill: #f8a33f;
        fill-rule: evenodd;
      }
    </style>
  </defs>
  <path id="icon_wy_14" class="cls-1" d="M526.577,1241l3.019,3.02s-0.266,3.97,3.465,3.46c0,0,7.227,4.73,7.829,10.31a17.018,17.018,0,0,1-1.515,9.39l-2.117-2.12s0.152-8.77-4.284-8.44l-12.728,12.73-0.336,2.21-11.794,12.21s-5.929.52-5.549-5.54l12.054-12.06,2.357-.21,11.1-11.01s2.65-5-4.208-5.82l-2.753-2.67Zm-11.364,15.39,3.475,3.47-4.822,4.82-3.366-3.37s-5.381,2.02-8.742-1a11.257,11.257,0,0,1-3.758-7.8c0.044-.72.315-1.44,1.6,0.34,2.042,2.8,4.784,4.54,8.1,1.18,3.79-3.83,1.705-6.08-1.395-8.84-1.32-1.17-.142-1.64,1.335-1.33,0.592,0.12,6.033,2.09,7.564,5.99A8.939,8.939,0,0,1,515.213,1256.39Zm22,21.82-10.843-10.34-4.931,4.93,10.339,10.84a1.181,1.181,0,0,0,1.683,0l3.757-3.75a1.187,1.187,0,0,0-.005-1.68h0Zm-6.033,2.51-0.814-2.62,2.248-1.59,2.2,1.64-0.885,2.61Z" transform="translate(-489.5 -1232.515)"/>
</svg>
