<svg xmlns="http://www.w3.org/2000/svg" width="60" height="60" viewBox="0 0 60 60">
  <metadata><?xpacket begin="﻿" id="W5M0MpCehiHzreSzNTczkc9d"?>
<x:xmpmeta xmlns:x="adobe:ns:meta/" x:xmptk="Adobe XMP Core 5.6-c138 79.159824, 2016/09/14-01:09:01        ">
   <rdf:RDF xmlns:rdf="http://www.w3.org/1999/02/22-rdf-syntax-ns#">
      <rdf:Description rdf:about=""/>
   </rdf:RDF>
</x:xmpmeta>
                                                                                                    
                                                                                                    
                                                                                                    
                                                                                                    
                                                                                                    
                                                                                                    
                                                                                                    
                                                                                                    
                                                                                                    
                                                                                                    
                                                                                                    
                                                                                                    
                                                                                                    
                                                                                                    
                                                                                                    
                                                                                                    
                                                                                                    
                                                                                                    
                                                                                                    
                                                                                                    
                           
<?xpacket end="w"?></metadata>
<defs>
    <style>
      .cls-1 {
        fill: #f87171;
        fill-rule: evenodd;
      }
    </style>
  </defs>
  <path id="icon_wy_24" class="cls-1" d="M216.008,1864.82a8.766,8.766,0,0,0-2.226,1.2,3.616,3.616,0,0,0-1.341,1.9,9.185,9.185,0,0,0-.363,1.72c-0.205,1.56.073,6.98,0.022,6.68a3.951,3.951,0,0,0,.478,1.45,2.7,2.7,0,0,0,1.272.65c0.7,0.23,4.018.31,5.064,0.53a1.848,1.848,0,0,0,.281.05l1.429-8.22a2.541,2.541,0,0,1,.3-1.17l0.771-7.22a20.279,20.279,0,0,1-2.23.73C218.57,1863.37,216.841,1864.5,216.008,1864.82Zm25.327-9.13a15.315,15.315,0,0,0,2.981-9.16c0-8.02-5.961-14.53-13.316-14.53s-13.316,6.51-13.316,14.53a14.57,14.57,0,0,0,8.155,13.37,15.416,15.416,0,0,0-1.827,1.15,1.241,1.241,0,0,1,.328.97l-0.949,6.55h15.218l-0.95-6.55a1.245,1.245,0,0,1,.329-0.97,15.885,15.885,0,0,0-1.814-1.14,13.059,13.059,0,0,0,3.291-2.16A3.279,3.279,0,0,0,241.335,1855.69Zm-3.436-5.81c-0.016.34-.021,0.69-0.02,1.02a4.675,4.675,0,0,1,.038.59c0,0.11-.012.22-0.02,0.33,0.01,0.3.02,0.48,0.02,0.48-0.036.1-.092,0.19-0.133,0.29a5.756,5.756,0,0,1-2.979,3.61v2.99a2.834,2.834,0,0,1-2.854,2.81h-1.9a2.833,2.833,0,0,1-2.854-2.81v-3a5.459,5.459,0,0,1-3.112-4.7,4.651,4.651,0,0,1,.04-0.6l0.067-1.01a5.557,5.557,0,0,1,1.441-3.36,9.012,9.012,0,0,0,2.213-4.72c0.279,1.34.917,2.96,2.37,3.33a17.336,17.336,0,0,0,4.684.68,2.626,2.626,0,0,1,3.026,2.39s-0.028.71-.064,1.68H237.9Zm12.023,19.76a9.176,9.176,0,0,0-.364-1.72,3.609,3.609,0,0,0-1.34-1.9,8.773,8.773,0,0,0-2.227-1.2c-0.832-.32-2.561-1.45-3.455-1.7a20.279,20.279,0,0,1-2.23-.73l0.771,7.22a2.541,2.541,0,0,1,.3,1.17l1.429,8.22a1.848,1.848,0,0,0,.281-0.05c1.046-.22,4.367-0.3,5.064-0.53a2.708,2.708,0,0,0,1.272-.65,3.971,3.971,0,0,0,.477-1.45C249.849,1876.62,250.127,1871.2,249.922,1869.64Z" transform="translate(-201 -1825.5)"/>
</svg>
