<svg xmlns="http://www.w3.org/2000/svg" width="50" height="50" viewBox="0 0 50 50">
  <metadata><?xpacket begin="﻿" id="W5M0MpCehiHzreSzNTczkc9d"?>
<x:xmpmeta xmlns:x="adobe:ns:meta/" x:xmptk="Adobe XMP Core 5.6-c138 79.159824, 2016/09/14-01:09:01        ">
   <rdf:RDF xmlns:rdf="http://www.w3.org/1999/02/22-rdf-syntax-ns#">
      <rdf:Description rdf:about=""/>
   </rdf:RDF>
</x:xmpmeta>
                                                                                                    
                                                                                                    
                                                                                                    
                                                                                                    
                                                                                                    
                                                                                                    
                                                                                                    
                                                                                                    
                                                                                                    
                                                                                                    
                                                                                                    
                                                                                                    
                                                                                                    
                                                                                                    
                                                                                                    
                                                                                                    
                                                                                                    
                                                                                                    
                                                                                                    
                                                                                                    
                           
<?xpacket end="w"?></metadata>
<defs>
    <style>
      .cls-1 {
        fill: #0b8ffe;
        fill-rule: evenodd;
      }
    </style>
  </defs>
  <path id="icon_mem_h" class="cls-1" d="M665.077,1438.2a19.735,19.735,0,0,0-13.607-9.84,11.689,11.689,0,1,0-6.964,0,19.737,19.737,0,0,0-13.608,9.84,7.263,7.263,0,0,0,.044,7.17,7.025,7.025,0,0,0,6.15,3.63h21.791a7.024,7.024,0,0,0,6.15-3.63A7.263,7.263,0,0,0,665.077,1438.2Zm-23.027-19.85a0.664,0.664,0,0,1,.187-0.07,0.127,0.127,0,0,1,.06-0.01,0.6,0.6,0,0,1,.133-0.02h0.063a0.94,0.94,0,0,1,.168.02,0.064,0.064,0,0,0,.041.01,1.283,1.283,0,0,1,.191.08l0.041,0.03a0.842,0.842,0,0,1,.13.11,0.144,0.144,0,0,1,.043.04,0.739,0.739,0,0,1,.129.18,5.544,5.544,0,0,0,.7,1.05,5.317,5.317,0,0,0,7.908.21,5.852,5.852,0,0,0,.492-0.6,5.554,5.554,0,0,0,.4-0.66,0.767,0.767,0,0,1,.129-0.18,0.144,0.144,0,0,1,.043-0.04,0.835,0.835,0,0,1,.129-0.11l0.042-.03a1.229,1.229,0,0,1,.19-0.08,0.06,0.06,0,0,0,.04-0.01,0.952,0.952,0,0,1,.169-0.02h0.063a0.62,0.62,0,0,1,.134.02,0.127,0.127,0,0,1,.06.01,0.687,0.687,0,0,1,.187.07,0.9,0.9,0,0,1,.361,1.21,7.493,7.493,0,0,1-1.187,1.67,7.014,7.014,0,0,1-3,1.88,6.809,6.809,0,0,1-2.115.33,7.067,7.067,0,0,1-4.831-1.93,7.676,7.676,0,0,1-.536-0.56,7.256,7.256,0,0,1-.928-1.39A0.9,0.9,0,0,1,642.05,1418.35Z" transform="translate(-623 -1402)"/>
</svg>
