<svg xmlns="http://www.w3.org/2000/svg" width="86" height="86" viewBox="0 0 86 86">
  <metadata><?xpacket begin="﻿" id="W5M0MpCehiHzreSzNTczkc9d"?>
<x:xmpmeta xmlns:x="adobe:ns:meta/" x:xmptk="Adobe XMP Core 5.6-c138 79.159824, 2016/09/14-01:09:01        ">
   <rdf:RDF xmlns:rdf="http://www.w3.org/1999/02/22-rdf-syntax-ns#">
      <rdf:Description rdf:about=""/>
   </rdf:RDF>
</x:xmpmeta>
                                                                                                    
                                                                                                    
                                                                                                    
                                                                                                    
                                                                                                    
                                                                                                    
                                                                                                    
                                                                                                    
                                                                                                    
                                                                                                    
                                                                                                    
                                                                                                    
                                                                                                    
                                                                                                    
                                                                                                    
                                                                                                    
                                                                                                    
                                                                                                    
                                                                                                    
                                                                                                    
                           
<?xpacket end="w"?></metadata>
<defs>
    <style>
      .cls-1 {
        fill: #fff;
        fill-rule: evenodd;
      }
    </style>
  </defs>
  <path id="icon_menu_p" class="cls-1" d="M652.348,214.6A10.784,10.784,0,0,0,641.285,204H626v39h5.622V225.2h9.843A10.752,10.752,0,0,0,652.348,214.6Zm-11.863,5.01h-9.063v-10.2h9.042a5.376,5.376,0,0,1,5.022,4.99C645.706,216.993,643.085,219.608,640.485,219.608ZM665.812,233.4a3.713,3.713,0,0,0-.6-0.8l-2.02-5.209a2.806,2.806,0,0,0-2.221-1.6H650.508a2.861,2.861,0,0,0-2.221,1.6l-2.021,5.209a3.713,3.713,0,0,0-.6.8c-0.2.4-.4,0.6-0.4,2.994,0,2.195.4,2.994,1,3.393l0.4,0.2v2.2a0.662,0.662,0,0,0,.8.8h1.4c0.6,0,1,0,1-.6v-2h11.064v2c0,0.6.4,0.6,1,.6h1.4a0.661,0.661,0,0,0,.8-0.8v-2.2l0.4-.2c0.6-.2,1-1,1-3.393C666.213,234,666.012,233.6,665.812,233.4ZM649.127,232c0-.2.6-2.595,0.8-3.394,0.2-.2.8-1.2,1.6-1h8.643a2.47,2.47,0,0,1,1.6,1c0.2,0.8.8,3.194,0.8,3.394,0,0.4-.2.4-0.2,0.4H649.307c0.02-.2-0.38,0-0.18-0.4h0Zm0.2,5.588a1.6,1.6,0,1,1,1.6-1.6A1.576,1.576,0,0,1,649.327,237.591Zm13.064,0a1.6,1.6,0,1,1,1.6-1.6A1.576,1.576,0,0,1,662.391,237.591Z" transform="translate(-603 -180.5)"/>
</svg>
