<svg xmlns="http://www.w3.org/2000/svg" width="60" height="60" viewBox="0 0 60 60">
  <metadata><?xpacket begin="﻿" id="W5M0MpCehiHzreSzNTczkc9d"?>
<x:xmpmeta xmlns:x="adobe:ns:meta/" x:xmptk="Adobe XMP Core 5.6-c138 79.159824, 2016/09/14-01:09:01        ">
   <rdf:RDF xmlns:rdf="http://www.w3.org/1999/02/22-rdf-syntax-ns#">
      <rdf:Description rdf:about=""/>
   </rdf:RDF>
</x:xmpmeta>
                                                                                                    
                                                                                                    
                                                                                                    
                                                                                                    
                                                                                                    
                                                                                                    
                                                                                                    
                                                                                                    
                                                                                                    
                                                                                                    
                                                                                                    
                                                                                                    
                                                                                                    
                                                                                                    
                                                                                                    
                                                                                                    
                                                                                                    
                                                                                                    
                                                                                                    
                                                                                                    
                           
<?xpacket end="w"?></metadata>
<defs>
    <style>
      .cls-1 {
        fill: #c874e4;
        fill-rule: evenodd;
      }
    </style>
  </defs>
  <path id="icon_wy_22" class="cls-1" d="M364.276,1689.79h1.067v-7.73l-11.326,7.76h9.971A1.364,1.364,0,0,0,364.276,1689.79ZM396,1709.44a9.24,9.24,0,1,0-15.635,6.65l-2.8,4.84,3.713-.27L382.9,1724l3.112-5.38c0.248,0.02.5,0.03,0.749,0.03s0.5-.01.75-0.03l3.111,5.38,1.623-3.34,3.713,0.27-2.8-4.84A9.194,9.194,0,0,0,396,1709.44Zm-4.462,4.76A6.759,6.759,0,0,1,380,1709.44a6.66,6.66,0,0,1,1.981-4.76,6.759,6.759,0,0,1,11.536,4.76A6.664,6.664,0,0,1,391.537,1714.2Zm-14.957-.34a11.168,11.168,0,0,1,14.435-14.77v-15.48c0-.01,0-0.02,0-0.03V1682H367.525v8.32a1.623,1.623,0,0,1-1.616,1.61H354.018v25.68H354v2.49h1.554c0.027,0,.054.01,0.081,0.01h20.242l2.185-3.78A11.246,11.246,0,0,1,376.58,1713.86Zm-14.344-19.95h20.552a1.615,1.615,0,0,1,0,3.23H362.236A1.615,1.615,0,1,1,362.236,1693.91Zm9.575,14.78h-9.647a1.611,1.611,0,0,1,0-3.22h9.647A1.611,1.611,0,0,1,371.811,1708.69Z" transform="translate(-345 -1673)"/>
</svg>
