<svg xmlns="http://www.w3.org/2000/svg" width="60" height="60" viewBox="0 0 60 60">
  <metadata><?xpacket begin="﻿" id="W5M0MpCehiHzreSzNTczkc9d"?>
<x:xmpmeta xmlns:x="adobe:ns:meta/" x:xmptk="Adobe XMP Core 5.6-c138 79.159824, 2016/09/14-01:09:01        ">
   <rdf:RDF xmlns:rdf="http://www.w3.org/1999/02/22-rdf-syntax-ns#">
      <rdf:Description rdf:about=""/>
   </rdf:RDF>
</x:xmpmeta>
                                                                                                    
                                                                                                    
                                                                                                    
                                                                                                    
                                                                                                    
                                                                                                    
                                                                                                    
                                                                                                    
                                                                                                    
                                                                                                    
                                                                                                    
                                                                                                    
                                                                                                    
                                                                                                    
                                                                                                    
                                                                                                    
                                                                                                    
                                                                                                    
                                                                                                    
                                                                                                    
                           
<?xpacket end="w"?></metadata>
<defs>
    <style>
      .cls-1 {
        fill: #fbc531;
        fill-rule: evenodd;
      }
    </style>
  </defs>
  <path id="icon_menu_mony" class="cls-1" d="M50,718a30,30,0,1,1-30,30A30,30,0,0,1,50,718Zm16,31.747v11.426H65.99c-0.057.738-.521,1.949-2.7,2.862a14.6,14.6,0,0,1-5.482.964h0a14.6,14.6,0,0,1-5.482-.964c-2.174-.913-2.638-2.124-2.695-2.862H49.625V749.635h0c0-.709.351-2.045,2.7-3.033a16.09,16.09,0,0,1,10.971,0c2.351,0.988,2.7,2.324,2.7,3.033C66,749.67,66,749.708,66,749.747ZM51.492,761h0c0,0.312.478,0.827,1.547,1.276a14.278,14.278,0,0,0,9.544,0c1.069-.449,1.547-0.964,1.547-1.276h0v-2.676a7.5,7.5,0,0,1-.835.41,14.577,14.577,0,0,1-5.482.964h0a14.576,14.576,0,0,1-5.482-.964,7.487,7.487,0,0,1-.835-0.41V761Zm0-5.3h0c0,0.312.478,0.827,1.547,1.276a14.278,14.278,0,0,0,9.544,0c1.069-.449,1.547-0.964,1.547-1.276h0v-3.446a7.479,7.479,0,0,1-.832.409,16.09,16.09,0,0,1-10.971,0,7.314,7.314,0,0,1-.835-0.411V755.7Zm11.094-7.345a14.3,14.3,0,0,0-9.547,0c-1.069.449-1.547,0.965-1.547,1.277s0.478,0.827,1.547,1.276a14.287,14.287,0,0,0,9.547,0,2.321,2.321,0,0,0,1.544-1.242v-0.034h0C64.133,749.323,63.655,748.807,62.586,748.358Zm-3.765-3.93a0.942,0.942,0,0,1-.934-0.95v-2.59a9.856,9.856,0,0,1-2.062,1.144,22.476,22.476,0,0,1-8.448,1.48,22.475,22.475,0,0,1-8.448-1.48,9.854,9.854,0,0,1-2.062-1.144v6.442h0c0,0.849,1.037,1.791,2.774,2.521a20.648,20.648,0,0,0,7.736,1.336,0.95,0.95,0,0,1,0,1.9,22.5,22.5,0,0,1-8.448-1.479,9.855,9.855,0,0,1-2.062-1.145v5.227h0c0,0.849,1.037,1.791,2.774,2.521a20.647,20.647,0,0,0,7.736,1.336,0.95,0.95,0,0,1,0,1.9,22.5,22.5,0,0,1-8.448-1.479c-2.4-1.008-3.775-2.423-3.915-4.008H35v-18.2h0c0-1.694,1.4-3.212,3.929-4.277A22.5,22.5,0,0,1,47.377,732a22.5,22.5,0,0,1,8.448,1.479c2.534,1.065,3.929,2.583,3.929,4.277,0,0.025,0,.05,0,0.075s0,0.026,0,.039v5.608A0.942,0.942,0,0,1,58.821,744.428Zm-3.708-9.193a20.649,20.649,0,0,0-7.736-1.335,20.648,20.648,0,0,0-7.736,1.335c-1.737.73-2.774,1.672-2.774,2.521s1.037,1.791,2.774,2.52a20.628,20.628,0,0,0,7.736,1.336,20.628,20.628,0,0,0,7.736-1.336c1.737-.729,2.774-1.671,2.774-2.52S56.85,735.965,55.113,735.235Z" transform="translate(-20 -718)"/>
</svg>
