<?xml version="1.0" encoding="utf-8"?>
<!-- Generator: Adobe Illustrator 21.0.0, SVG Export Plug-In . SVG Version: 6.00 Build 0)  -->
<svg version="1.1" id="图层_1" xmlns="http://www.w3.org/2000/svg" xmlns:xlink="http://www.w3.org/1999/xlink" x="0px" y="0px"
	 viewBox="0 0 200 200" style="enable-background:new 0 0 200 200;" xml:space="preserve">
<style type="text/css">
	.st0{fill:#2F2F33;}
	.st1{fill:#FFFFFF;}
	.st2{fill:#0B8FFE;}
</style>
<path class="st0" d="M38.4,60.9h128.9v25.2l3.1,14.9l-3.1,12.4v36H38.4V60.9z"/>
<path class="st0" d="M168.1,86.8h-10v25.1h10V153c0,3-2.4,5.4-5.3,5.4H38.4c-2.9,0-5.3-2.4-5.3-5.4V60c0-3,2.4-5.4,5.3-5.4h124.4
	c2.9,0,5.3,2.4,5.3,5.4V86.8z M43.7,65.3v82.3h114.4V65.3H43.7z"/>
<path class="st0" d="M155.1,59.4l-9.6,2.6l-6-22.7L55.4,65l-3.3-9.6l89.3-26.8c2.8-0.8,5.7,0.8,6.6,3.6v0.1L155.1,59.4L155.1,59.4z
	 M173.4,76.1c2.9,0,5.3,2.4,5.3,5.4v35.8c0,3-2.4,5.4-5.3,5.4h-35.3c-12.7,0-22.9-10.4-22.9-23.3s10.3-23.3,22.9-23.3
	C138.1,76.1,173.4,76.1,173.4,76.1z M165.4,86.8h-27.3c-6.8,0-12.3,5.6-12.3,12.5s5.5,12.5,12.3,12.5h27.3c1.5,0,2.7-1.2,2.7-2.7
	V89.5C168.1,88,166.9,86.8,165.4,86.8z"/>
<path class="st0" d="M168.1,86.8h-10v25.1h10V153c0,3-2.4,5.4-5.3,5.4H38.4c-2.9,0-5.3-2.4-5.3-5.4V60c0-3,2.4-5.4,5.3-5.4h124.4
	c2.9,0,5.3,2.4,5.3,5.4V86.8z M43.7,65.3v82.3h114.4V65.3H43.7z"/>
<path class="st0" d="M155.1,59.4l-9.6,2.6l-6-22.7L55.4,65l-3.3-9.6l89.3-26.8c2.8-0.8,5.7,0.8,6.6,3.6v0.1L155.1,59.4L155.1,59.4z
	 M173.4,76.1c2.9,0,5.3,2.4,5.3,5.4v35.8c0,3-2.4,5.4-5.3,5.4h-35.3c-12.7,0-22.9-10.4-22.9-23.3s10.3-23.3,22.9-23.3
	C138.1,76.1,173.4,76.1,173.4,76.1z M165.4,86.8h-27.3c-6.8,0-12.3,5.6-12.3,12.5s5.5,12.5,12.3,12.5h27.3c1.5,0,2.7-1.2,2.7-2.7
	V89.5C168.1,88,166.9,86.8,165.4,86.8z"/>
<path class="st0" d="M168.1,86.8h-10v25.1h10V153c0,3-2.4,5.4-5.3,5.4H38.4c-2.9,0-5.3-2.4-5.3-5.4V60c0-3,2.4-5.4,5.3-5.4h124.4
	c2.9,0,5.3,2.4,5.3,5.4V86.8z M43.7,65.3v82.3h114.4V65.3H43.7z"/>
<path class="st0" d="M155.1,59.4l-9.6,2.6l-6-22.7L55.4,65l-3.3-9.6l89.3-26.8c2.8-0.8,5.7,0.8,6.6,3.6v0.1L155.1,59.4L155.1,59.4z
	 M173.4,76.1c2.9,0,5.3,2.4,5.3,5.4v35.8c0,3-2.4,5.4-5.3,5.4h-35.3c-12.7,0-22.9-10.4-22.9-23.3s10.3-23.3,22.9-23.3
	C138.1,76.1,173.4,76.1,173.4,76.1z M165.4,86.8h-27.3c-6.8,0-12.3,5.6-12.3,12.5s5.5,12.5,12.3,12.5h27.3c1.5,0,2.7-1.2,2.7-2.7
	V89.5C168.1,88,166.9,86.8,165.4,86.8z"/>
<path class="st0" d="M89.4,54.7l49.8-15.5l4.7,17L89.4,54.7z"/>
<path class="st1" d="M38.4,60.9h128.9v25.2l3.1,14.9l-3.1,12.4v36H38.4V60.9z"/>
<path class="st0" d="M168.1,86.8h-10v25.1h10V153c0,3-2.4,5.4-5.3,5.4H38.4c-2.9,0-5.3-2.4-5.3-5.4V60c0-3,2.4-5.4,5.3-5.4h124.4
	c2.9,0,5.3,2.4,5.3,5.4V86.8z M43.7,65.3v82.3h114.4V65.3H43.7z"/>
<path class="st0" d="M155.1,59.4l-9.6,2.6l-6-22.7L55.4,65l-3.3-9.6l89.3-26.8c2.8-0.8,5.7,0.8,6.6,3.6v0.1L155.1,59.4L155.1,59.4z
	 M173.4,76.1c2.9,0,5.3,2.4,5.3,5.4v35.8c0,3-2.4,5.4-5.3,5.4h-35.3c-12.7,0-22.9-10.4-22.9-23.3s10.3-23.3,22.9-23.3
	C138.1,76.1,173.4,76.1,173.4,76.1z M165.4,86.8h-27.3c-6.8,0-12.3,5.6-12.3,12.5s5.5,12.5,12.3,12.5h27.3c1.5,0,2.7-1.2,2.7-2.7
	V89.5C168.1,88,166.9,86.8,165.4,86.8z"/>
<path class="st0" d="M168.1,86.8h-10v25.1h10V153c0,3-2.4,5.4-5.3,5.4H38.4c-2.9,0-5.3-2.4-5.3-5.4V60c0-3,2.4-5.4,5.3-5.4h124.4
	c2.9,0,5.3,2.4,5.3,5.4V86.8z M43.7,65.3v82.3h114.4V65.3H43.7z"/>
<path class="st0" d="M155.1,59.4l-9.6,2.6l-6-22.7L55.4,65l-3.3-9.6l89.3-26.8c2.8-0.8,5.7,0.8,6.6,3.6v0.1L155.1,59.4L155.1,59.4z
	 M173.4,76.1c2.9,0,5.3,2.4,5.3,5.4v35.8c0,3-2.4,5.4-5.3,5.4h-35.3c-12.7,0-22.9-10.4-22.9-23.3s10.3-23.3,22.9-23.3
	C138.1,76.1,173.4,76.1,173.4,76.1z M165.4,86.8h-27.3c-6.8,0-12.3,5.6-12.3,12.5s5.5,12.5,12.3,12.5h27.3c1.5,0,2.7-1.2,2.7-2.7
	V89.5C168.1,88,166.9,86.8,165.4,86.8z"/>
<path class="st2" d="M89.4,54.6l50.1-15.3l4,15.3L89.4,54.6z"/>
<path class="st1" d="M165.5,86.9h-27.3c-6.8,0-12.3,5.6-12.3,12.5s5.5,12.5,12.3,12.5h27.3c1.5,0,2.7-1.2,2.7-2.7V89.6
	C168.1,88.1,167,86.9,165.5,86.9z"/>
<path class="st0" d="M134.1,98.9c0,3,2.4,5.4,5.3,5.4s5.3-2.4,5.3-5.4s-2.4-5.4-5.3-5.4S134.1,96,134.1,98.9z"/>
</svg>
