<svg xmlns="http://www.w3.org/2000/svg" width="60" height="60" viewBox="0 0 60 60">
  <metadata><?xpacket begin="﻿" id="W5M0MpCehiHzreSzNTczkc9d"?>
<x:xmpmeta xmlns:x="adobe:ns:meta/" x:xmptk="Adobe XMP Core 5.6-c138 79.159824, 2016/09/14-01:09:01        ">
   <rdf:RDF xmlns:rdf="http://www.w3.org/1999/02/22-rdf-syntax-ns#">
      <rdf:Description rdf:about=""/>
   </rdf:RDF>
</x:xmpmeta>
                                                                                                    
                                                                                                    
                                                                                                    
                                                                                                    
                                                                                                    
                                                                                                    
                                                                                                    
                                                                                                    
                                                                                                    
                                                                                                    
                                                                                                    
                                                                                                    
                                                                                                    
                                                                                                    
                                                                                                    
                                                                                                    
                                                                                                    
                                                                                                    
                                                                                                    
                                                                                                    
                           
<?xpacket end="w"?></metadata>
<defs>
    <style>
      .cls-1 {
        fill: #f8a33f;
        fill-rule: evenodd;
      }
    </style>
  </defs>
  <path id="icon_wy_18" class="cls-1" d="M357,1558.41h17.412V1541H357v17.41h0Zm19.588,0H394V1541H376.588v17.41Zm13.059-4.35h-8.706v-8.71h8.706v8.71h0ZM357,1578h17.412v-17.41H357V1578h0Zm4.353-13.06h8.706v8.71h-8.706v-8.71h0Zm26.118-17.41h-4.353v4.35h4.353v-4.35h0ZM376.588,1578h4.353v-4.35h-4.353V1578h0Zm4.353-13.06v8.71h4.353v-8.71h-4.353Zm8.706,8.71h-4.353V1578H394v-8.71h-4.353v4.36h0Zm0-8.71H394v-4.35h-4.353v4.35h0Zm-13.059-4.35v4.35h4.353v-4.35h-4.353Zm-13.059,10.88h4.353v-4.35h-4.353v4.35h0Zm6.53-17.41h-8.706v-8.71h8.706v8.71Z" transform="translate(-345.5 -1529.5)"/>
</svg>
