<svg xmlns="http://www.w3.org/2000/svg" width="100" height="100" viewBox="0 0 100 100">
  <metadata><?xpacket begin="﻿" id="W5M0MpCehiHzreSzNTczkc9d"?>
<x:xmpmeta xmlns:x="adobe:ns:meta/" x:xmptk="Adobe XMP Core 5.6-c138 79.159824, 2016/09/14-01:09:01        ">
   <rdf:RDF xmlns:rdf="http://www.w3.org/1999/02/22-rdf-syntax-ns#">
      <rdf:Description rdf:about=""/>
   </rdf:RDF>
</x:xmpmeta>
                                                                                                    
                                                                                                    
                                                                                                    
                                                                                                    
                                                                                                    
                                                                                                    
                                                                                                    
                                                                                                    
                                                                                                    
                                                                                                    
                                                                                                    
                                                                                                    
                                                                                                    
                                                                                                    
                                                                                                    
                                                                                                    
                                                                                                    
                                                                                                    
                                                                                                    
                                                                                                    
                           
<?xpacket end="w"?></metadata>
<defs>
    <style>
      .cls-1 {
        fill: #fff;
        fill-rule: evenodd;
      }
    </style>
  </defs>
  <path id="icon_menu_axdk" class="cls-1" d="M636.968,842.376c-2.233-.925-13.474-5.55-15.6-5.875a3.316,3.316,0,0,0-3.283,1.515,3.213,3.213,0,0,0-.422,2.951,18.164,18.164,0,0,0,2.07,3,28.12,28.12,0,0,1-10.033-1.861c-1.627-.635-3.613-2.762-5.366-4.64-2.5-2.672-4.855-5.2-7.419-5.2a3.892,3.892,0,0,0-2.617,1.037c-0.981.877-1.91,2.629-.778,5.991,1.86,5.523,9.211,14.2,16.055,14.691,0,0,26.672.007,26.757,0A1.715,1.715,0,0,0,638,852.32v-8.393A1.678,1.678,0,0,0,636.968,842.376ZM615.344,807a19.263,19.263,0,0,0-18.652,23.6c0.02,0,.038,0,0.06,0,3.283,0,5.877,2.778,8.627,5.721,1.472,1.574,3.48,3.73,4.759,4.228a25.871,25.871,0,0,0,6.045,1.528,4.552,4.552,0,0,1-.228-0.481,4.884,4.884,0,0,1,.588-4.515,5.043,5.043,0,0,1,4.157-2.294,4.885,4.885,0,0,1,.767.062,72.717,72.717,0,0,1,9.058,3.181A19.3,19.3,0,0,0,615.344,807Zm5.83,13.511a1.679,1.679,0,0,1,0,3.357h-3.333v1.678h3.333a1.679,1.679,0,0,1,0,3.357h-3.333v3.368a1.665,1.665,0,1,1-3.33,0V828.9h-3.329a1.679,1.679,0,0,1,0-3.357h3.329v-1.678h-3.329a1.679,1.679,0,0,1,0-3.357h2.66l-3.851-3.876a1.688,1.688,0,0,1,0-2.375,1.654,1.654,0,0,1,2.356,0l3.816,3.84,3.968-3.86a1.656,1.656,0,0,1,2.354.042,1.688,1.688,0,0,1-.042,2.373l-3.962,3.856h2.695v0Z" transform="translate(-565.5 -780.5)"/>
</svg>
