<svg xmlns="http://www.w3.org/2000/svg" width="100" height="100" viewBox="0 0 100 100">
  <metadata><?xpacket begin="﻿" id="W5M0MpCehiHzreSzNTczkc9d"?>
<x:xmpmeta xmlns:x="adobe:ns:meta/" x:xmptk="Adobe XMP Core 5.6-c138 79.159824, 2016/09/14-01:09:01        ">
   <rdf:RDF xmlns:rdf="http://www.w3.org/1999/02/22-rdf-syntax-ns#">
      <rdf:Description rdf:about=""/>
   </rdf:RDF>
</x:xmpmeta>
                                                                                                    
                                                                                                    
                                                                                                    
                                                                                                    
                                                                                                    
                                                                                                    
                                                                                                    
                                                                                                    
                                                                                                    
                                                                                                    
                                                                                                    
                                                                                                    
                                                                                                    
                                                                                                    
                                                                                                    
                                                                                                    
                                                                                                    
                                                                                                    
                                                                                                    
                                                                                                    
                           
<?xpacket end="w"?></metadata>
<defs>
    <style>
      .cls-1 {
        fill: #fff;
        fill-rule: evenodd;
      }
    </style>
  </defs>
  <path id="icon_wy_top_01" class="cls-1" d="M106.478,219.891a2.468,2.468,0,0,0,2.474-2.467V198.918h18.553a2.468,2.468,0,1,0,0-4.935H106.478a2.468,2.468,0,0,0-2.473,2.467v20.974A2.468,2.468,0,0,0,106.478,219.891Zm21.027,47.19H108.952V248.575a2.474,2.474,0,0,0-4.947,0v20.973a2.469,2.469,0,0,0,2.473,2.468h21.027A2.468,2.468,0,1,0,127.505,267.081Zm51.019-73.1H157.5a2.468,2.468,0,1,0,0,4.935h18.553v18.506a2.474,2.474,0,0,0,4.947,0V196.45A2.468,2.468,0,0,0,178.524,193.983Zm0,52.125a2.468,2.468,0,0,0-2.473,2.467v18.506H157.5a2.468,2.468,0,1,0,0,4.935h21.026A2.469,2.469,0,0,0,181,269.548V248.575A2.468,2.468,0,0,0,178.524,246.108Zm-15.539,1.055v-1.325c0-6.1-9.67-10.02-13.368-11.292A3.03,3.03,0,0,1,149.7,234a19.809,19.809,0,0,0,4.981-12.8c0-7.489-5.006-12.718-12.173-12.718-7.15,0-12.144,5.229-12.144,12.718a19.824,19.824,0,0,0,5.03,12.894c0.058,0.245.021,0.335,0.118,0.323-4.058,1.465-13.492,5.508-13.492,11.424v1.325c0,8.39,15.459,8.39,20.539,8.39C147.609,255.553,162.985,255.553,162.985,247.163Zm-4.947,0c0,1.195-3.235,3.456-15.482,3.456-12.332,0-15.591-2.261-15.591-3.456v-1.325c0-1.3,3.553-4.373,10.223-6.781a4.987,4.987,0,0,0,2.715-2.549,5.748,5.748,0,0,0-.014-4.576,2.459,2.459,0,0,0-.541-0.846,14.863,14.863,0,0,1-4.039-9.889c0-5.737,3.718-7.783,7.2-7.783s7.225,2.046,7.225,7.783a14.859,14.859,0,0,1-4.044,9.858,2.435,2.435,0,0,0-.644,1.222,6.175,6.175,0,0,0,.166,4.686,4.215,4.215,0,0,0,2.384,2.108c6.815,2.251,10.446,5.377,10.446,6.767v1.325Z" transform="translate(-92.5 -183)"/>
</svg>
