<svg xmlns="http://www.w3.org/2000/svg" width="36" height="36" viewBox="0 0 36 36">
  <metadata><?xpacket begin="﻿" id="W5M0MpCehiHzreSzNTczkc9d"?>
<x:xmpmeta xmlns:x="adobe:ns:meta/" x:xmptk="Adobe XMP Core 5.6-c138 79.159824, 2016/09/14-01:09:01        ">
   <rdf:RDF xmlns:rdf="http://www.w3.org/1999/02/22-rdf-syntax-ns#">
      <rdf:Description rdf:about=""/>
   </rdf:RDF>
</x:xmpmeta>
                                                                                                    
                                                                                                    
                                                                                                    
                                                                                                    
                                                                                                    
                                                                                                    
                                                                                                    
                                                                                                    
                                                                                                    
                                                                                                    
                                                                                                    
                                                                                                    
                                                                                                    
                                                                                                    
                                                                                                    
                                                                                                    
                                                                                                    
                                                                                                    
                                                                                                    
                                                                                                    
                           
<?xpacket end="w"?></metadata>
<defs>
    <style>
      .cls-1 {
        fill: #fff;
        fill-rule: evenodd;
      }
    </style>
  </defs>
  <path id="icon_radio_w_h" class="cls-1" d="M205,832a18,18,0,1,0,18,18A18,18,0,0,0,205,832Zm9.338,12.343L201.86,856.624a0.35,0.35,0,0,1-.5-0.007l-5.7-5.9a0.218,0.218,0,0,1-.018-0.272l0.812-1.106a0.174,0.174,0,0,1,.246-0.036l4.621,3.541a0.464,0.464,0,0,0,.555-0.01l11.422-9.516a0.2,0.2,0,0,1,.263.01l0.773,0.763A0.175,0.175,0,0,1,214.338,844.343Z" transform="translate(-187 -832)"/>
</svg>
