<svg xmlns="http://www.w3.org/2000/svg" width="34" height="34" viewBox="0 0 34 34">
  <metadata><?xpacket begin="﻿" id="W5M0MpCehiHzreSzNTczkc9d"?>
<x:xmpmeta xmlns:x="adobe:ns:meta/" x:xmptk="Adobe XMP Core 5.6-c138 79.159824, 2016/09/14-01:09:01        ">
   <rdf:RDF xmlns:rdf="http://www.w3.org/1999/02/22-rdf-syntax-ns#">
      <rdf:Description rdf:about=""/>
   </rdf:RDF>
</x:xmpmeta>
                                                                                                    
                                                                                                    
                                                                                                    
                                                                                                    
                                                                                                    
                                                                                                    
                                                                                                    
                                                                                                    
                                                                                                    
                                                                                                    
                                                                                                    
                                                                                                    
                                                                                                    
                                                                                                    
                                                                                                    
                                                                                                    
                                                                                                    
                                                                                                    
                                                                                                    
                                                                                                    
                           
<?xpacket end="w"?></metadata>
<defs>
    <style>
      .cls-1 {
        fill: #4cd137;
        fill-rule: evenodd;
      }
    </style>
  </defs>
  <path id="icon_c_notice" class="cls-1" d="M55,596a17,17,0,1,1,17-17A17.019,17.019,0,0,1,55,596Zm0-31.572A14.572,14.572,0,1,0,69.571,579,14.588,14.588,0,0,0,55,564.428Zm2.391,24.265a1.215,1.215,0,0,1-.845-2.087,10.525,10.525,0,0,0,0-15.254,1.214,1.214,0,0,1,1.689-1.745,12.953,12.953,0,0,1,0,18.746A1.216,1.216,0,0,1,57.391,588.693Zm-3.6-2.455a1.214,1.214,0,0,1-.88-2.05,7.657,7.657,0,0,0-.044-10.462,1.214,1.214,0,1,1,1.745-1.689,10.086,10.086,0,0,1,.058,13.823A1.209,1.209,0,0,1,53.792,586.238Zm-3.617-3.119a1.214,1.214,0,0,1-.758-2.163,1.888,1.888,0,0,0,.758-1.48,1.913,1.913,0,0,0-.755-1.48,1.214,1.214,0,0,1,1.515-1.9,4.25,4.25,0,0,1,0,6.754A1.211,1.211,0,0,1,50.174,583.119Z" transform="translate(-38 -562)"/>
</svg>
