<svg xmlns="http://www.w3.org/2000/svg" width="50" height="50" viewBox="0 0 50 50">
  <metadata><?xpacket begin="﻿" id="W5M0MpCehiHzreSzNTczkc9d"?>
<x:xmpmeta xmlns:x="adobe:ns:meta/" x:xmptk="Adobe XMP Core 5.6-c138 79.159824, 2016/09/14-01:09:01        ">
   <rdf:RDF xmlns:rdf="http://www.w3.org/1999/02/22-rdf-syntax-ns#">
      <rdf:Description rdf:about=""/>
   </rdf:RDF>
</x:xmpmeta>
                                                                                                    
                                                                                                    
                                                                                                    
                                                                                                    
                                                                                                    
                                                                                                    
                                                                                                    
                                                                                                    
                                                                                                    
                                                                                                    
                                                                                                    
                                                                                                    
                                                                                                    
                                                                                                    
                                                                                                    
                                                                                                    
                                                                                                    
                                                                                                    
                                                                                                    
                                                                                                    
                           
<?xpacket end="w"?></metadata>
<defs>
    <style>
      .cls-1 {
        fill: #8a8a8a;
        fill-rule: evenodd;
      }
    </style>
  </defs>
  <path id="icon_wy" class="cls-1" d="M486.08,1437.6c-0.947-.39-3.719-1.54-6.565-2.66a17.429,17.429,0,0,0,4.522-11.67,17.058,17.058,0,1,0-34.114,0,17.536,17.536,0,0,0,.143,2.25,1.484,1.484,0,1,0,2.942-.39,14.533,14.533,0,0,1-.118-1.86,14.091,14.091,0,1,1,23.725,10.39,1.453,1.453,0,0,1-.084.12,35.976,35.976,0,0,0-4.345-1.44,2.96,2.96,0,0,0-2.925,1.36,2.882,2.882,0,0,0-.375,2.64,16.465,16.465,0,0,0,1.843,2.69,24.858,24.858,0,0,1-8.937-1.67c-1.449-.56-3.218-2.47-4.78-4.15-2.223-2.39-4.323-4.65-6.607-4.65a3.448,3.448,0,0,0-2.332.93c-0.846.76-1.629,2.27-.557,5.13,1.976,5.26,9.665,13.38,15.838,13.38h22.16a1.49,1.49,0,0,0,1.483-1.5v-7.51A1.494,1.494,0,0,0,486.08,1437.6Zm-2.046,7.4H463.4l-0.047,1.5V1445c-4.523,0-11.451-7.14-13.066-11.45-0.468-1.25-.311-1.75-0.247-1.81a0.5,0.5,0,0,1,.363-0.17c1,0,2.994,2.14,4.448,3.7,1.864,2.01,3.793,4.08,5.87,4.9a27.964,27.964,0,0,0,10.044,1.86,20.668,20.668,0,0,0,3.183-.21,1.49,1.49,0,0,0,1.143-.96,1.524,1.524,0,0,0-.256-1.49c-1.252-1.5-2.716-3.37-3.119-4a0.081,0.081,0,0,0,.016-0.06c1.059,0.17,7.528,2.72,12.3,4.69v5h0Zm-9.282-25.14-6.678-5.55a1.787,1.787,0,0,0-2.111,0l-6.735,5.61a0.475,0.475,0,0,0-.171.64,0.5,0.5,0,0,0,.513.35h0.571v6.59a1.451,1.451,0,0,0,1.484,1.5h3.653a0.542,0.542,0,0,0,.57-0.58v-2.66a1.156,1.156,0,0,1,1.142-.81,1.232,1.232,0,0,1,1.2.81v2.66a0.543,0.543,0,0,0,.571.58h3.71a1.374,1.374,0,0,0,1.427-1.5v-6.59h0.57a0.556,0.556,0,0,0,.514-0.41A0.592,0.592,0,0,0,474.752,1419.86Z" transform="translate(-442 -1402)"/>
</svg>
