<svg xmlns="http://www.w3.org/2000/svg" width="86" height="86" viewBox="0 0 86 86">
  <metadata><?xpacket begin="﻿" id="W5M0MpCehiHzreSzNTczkc9d"?>
<x:xmpmeta xmlns:x="adobe:ns:meta/" x:xmptk="Adobe XMP Core 5.6-c138 79.159824, 2016/09/14-01:09:01        ">
   <rdf:RDF xmlns:rdf="http://www.w3.org/1999/02/22-rdf-syntax-ns#">
      <rdf:Description rdf:about=""/>
   </rdf:RDF>
</x:xmpmeta>
                                                                                                    
                                                                                                    
                                                                                                    
                                                                                                    
                                                                                                    
                                                                                                    
                                                                                                    
                                                                                                    
                                                                                                    
                                                                                                    
                                                                                                    
                                                                                                    
                                                                                                    
                                                                                                    
                                                                                                    
                                                                                                    
                                                                                                    
                                                                                                    
                                                                                                    
                                                                                                    
                           
<?xpacket end="w"?></metadata>
<defs>
    <style>
      .cls-1 {
        fill: #fff;
        fill-rule: evenodd;
      }
    </style>
  </defs>
  <path id="icon_menu_zxsq" class="cls-1" d="M301.908,380.091h-0.953v-2.524A2.57,2.57,0,0,0,298.389,375H272.636a2.57,2.57,0,0,0-2.566,2.567v2.523h-0.029A4.048,4.048,0,0,0,266,384.135v5.148a4.047,4.047,0,0,0,4.041,4.044h12.5l0.023,0a1.864,1.864,0,0,1,1.861,1.863v5.99H283.1a1.09,1.09,0,0,0-1.09,1.09v15.637A1.09,1.09,0,0,0,283.1,419h4.869a1.09,1.09,0,0,0,1.09-1.091V402.272a1.09,1.09,0,0,0-1.09-1.09H286.6v-5.99a4.046,4.046,0,0,0-3.994-4.042c-0.016,0-.031,0-0.047,0h-12.52a1.864,1.864,0,0,1-1.861-1.862v-5.148a1.864,1.864,0,0,1,1.861-1.863h0.029V384.8a2.57,2.57,0,0,0,2.566,2.568H298.39a2.57,2.57,0,0,0,2.565-2.568v-2.524h0.954A1.091,1.091,0,0,0,301.908,380.091Z" transform="translate(-241.5 -354)"/>
</svg>
