<svg xmlns="http://www.w3.org/2000/svg" width="48" height="48" viewBox="0 0 48 48">
  <metadata><?xpacket begin="﻿" id="W5M0MpCehiHzreSzNTczkc9d"?>
<x:xmpmeta xmlns:x="adobe:ns:meta/" x:xmptk="Adobe XMP Core 5.6-c138 79.159824, 2016/09/14-01:09:01        ">
   <rdf:RDF xmlns:rdf="http://www.w3.org/1999/02/22-rdf-syntax-ns#">
      <rdf:Description rdf:about=""/>
   </rdf:RDF>
</x:xmpmeta>
                                                                                                    
                                                                                                    
                                                                                                    
                                                                                                    
                                                                                                    
                                                                                                    
                                                                                                    
                                                                                                    
                                                                                                    
                                                                                                    
                                                                                                    
                                                                                                    
                                                                                                    
                                                                                                    
                                                                                                    
                                                                                                    
                                                                                                    
                                                                                                    
                                                                                                    
                                                                                                    
                           
<?xpacket end="w"?></metadata>
<defs>
    <style>
      .cls-1 {
        fill: #fff;
        fill-rule: evenodd;
      }
    </style>
  </defs>
  <path id="icon_notice_01" class="cls-1" d="M56,258.45a2.235,2.235,0,0,0-2.2-2.194h-2.2l-6.085-5.906A1.815,1.815,0,0,0,44,249a1.8,1.8,0,0,0-1.521,1.35l-6.254,5.906H34.2A2.235,2.235,0,0,0,32,258.45v15.356A2.094,2.094,0,0,0,34.028,276H53.8a2.094,2.094,0,0,0,2.028-2.194V258.45H56Zm-2.2,15.863H34.2a0.448,0.448,0,0,1-.507-0.507V258.45a0.448,0.448,0,0,1,.507-0.507H53.8a0.448,0.448,0,0,1,.507.507v15.356a0.447,0.447,0,0,1-.507.506h0Zm-8.789-12.657a0.448,0.448,0,0,0-.507-0.506H37.239a0.539,0.539,0,0,0-.507.506v0.506a0.448,0.448,0,0,0,.507.507h7.268a0.448,0.448,0,0,0,.507-0.507v-0.506h0Zm6.254,4.556a0.448,0.448,0,0,0-.507-0.506H37.239c-0.338-.169-0.507.169-0.507,0.506v0.507a0.448,0.448,0,0,0,.507.506H50.761a0.448,0.448,0,0,0,.507-0.506v-0.507Zm0,3.713a0.447,0.447,0,0,0-.507-0.506H37.239a0.447,0.447,0,0,0-.507.506v0.506a0.448,0.448,0,0,0,.507.507H50.761a0.448,0.448,0,0,0,.507-0.507v-0.506Zm-8.282-17.888a2.4,2.4,0,0,0,1.014.338,2.4,2.4,0,0,0,1.014-.338l4.394,4.219H38.591Z" transform="translate(-20 -238.5)"/>
</svg>
