<svg xmlns="http://www.w3.org/2000/svg" width="220" height="220" viewBox="0 0 220 220">
  <metadata><?xpacket begin="﻿" id="W5M0MpCehiHzreSzNTczkc9d"?>
<x:xmpmeta xmlns:x="adobe:ns:meta/" x:xmptk="Adobe XMP Core 5.6-c138 79.159824, 2016/09/14-01:09:01        ">
   <rdf:RDF xmlns:rdf="http://www.w3.org/1999/02/22-rdf-syntax-ns#">
      <rdf:Description rdf:about=""/>
   </rdf:RDF>
</x:xmpmeta>
                                                                                                    
                                                                                                    
                                                                                                    
                                                                                                    
                                                                                                    
                                                                                                    
                                                                                                    
                                                                                                    
                                                                                                    
                                                                                                    
                                                                                                    
                                                                                                    
                                                                                                    
                                                                                                    
                                                                                                    
                                                                                                    
                                                                                                    
                                                                                                    
                                                                                                    
                                                                                                    
                           
<?xpacket end="w"?></metadata>
<defs>
    <style>
      .cls-1 {
        fill: #dfdfdf;
        fill-rule: evenodd;
      }
    </style>
  </defs>
  <path id="icon_null_tickt" class="cls-1" d="M280.859,1105.07a5.011,5.011,0,0,0-5.707-4.15q-4.565.285-.7-2.17a4.99,4.99,0,0,0,2.18-6.7q-1.68-4.26,1.846-1.35a4.984,4.984,0,0,0,7.054,0q3.526-2.91,1.846,1.35a4.99,4.99,0,0,0,2.18,6.7q3.859,2.46-.7,2.17a5.011,5.011,0,0,0-5.707,4.15Q282,1109.495,280.859,1105.07Zm174.4-47.08q3.273-5.52-1.5-9.73t1.46-2.85q6.233,1.365,8.8-4.51t3.148,0.49q0.579,6.36,6.939,6.94t0.485,3.14q-5.874,2.58-4.513,8.81t-2.848,1.46q-4.211-4.785-9.728-1.5T455.263,1057.99Zm-18.14,8.03h-4.871v-14.86a4.913,4.913,0,0,0-4.872-4.96h-8.241l-5.4-20.53c-0.018-.03-0.018-0.09-0.036-0.12a4.859,4.859,0,0,0-6.058-3.35l-79.85,24H312.871a4.912,4.912,0,0,0-4.871,4.96v85.88a4.91,4.91,0,0,0,4.871,4.95H427.38a4.911,4.911,0,0,0,4.872-4.95v-28.09h4.871a4.912,4.912,0,0,0,4.872-4.96v-33.01A4.912,4.912,0,0,0,437.123,1066.02Zm-31.135-33.88,3.7,14.06H359.937Zm17.06,99.94h-105.3v-75.97H423.048v9.91H404.64a21.468,21.468,0,0,0,0,42.93h18.408v23.13Zm9.2-35.51a2.468,2.468,0,0,1-2.445,2.47H404.64a11.557,11.557,0,0,1,0-23.11h18.408v0.01h6.818a2.447,2.447,0,0,1,2.386,2.46v18.17Zm-26.461-14.41a4.956,4.956,0,1,0,4.871,4.95A4.914,4.914,0,0,0,405.791,1082.16Z" transform="translate(-265.031 -972)"/>
</svg>
