<svg xmlns="http://www.w3.org/2000/svg" width="100" height="100" viewBox="0 0 100 100">
  <metadata><?xpacket begin="﻿" id="W5M0MpCehiHzreSzNTczkc9d"?>
<x:xmpmeta xmlns:x="adobe:ns:meta/" x:xmptk="Adobe XMP Core 5.6-c138 79.159824, 2016/09/14-01:09:01        ">
   <rdf:RDF xmlns:rdf="http://www.w3.org/1999/02/22-rdf-syntax-ns#">
      <rdf:Description rdf:about=""/>
   </rdf:RDF>
</x:xmpmeta>
                                                                                                    
                                                                                                    
                                                                                                    
                                                                                                    
                                                                                                    
                                                                                                    
                                                                                                    
                                                                                                    
                                                                                                    
                                                                                                    
                                                                                                    
                                                                                                    
                                                                                                    
                                                                                                    
                                                                                                    
                                                                                                    
                                                                                                    
                                                                                                    
                                                                                                    
                                                                                                    
                           
<?xpacket end="w"?></metadata>
<defs>
    <style>
      .cls-1 {
        fill: #fff;
        fill-rule: evenodd;
      }
    </style>
  </defs>
  <path id="icon_wy_top_02" class="cls-1" d="M414.565,273H341.414A2.427,2.427,0,0,1,339,270.562V197.437A2.427,2.427,0,0,1,341.414,195h73.151a2.426,2.426,0,0,1,2.418,2.437v73.125A2.426,2.426,0,0,1,414.565,273Zm-70.733-4.875h68.315v-68.25H343.832v68.25Zm36.575-32.761v-7.1h3.377a2.437,2.437,0,0,0,0-4.874h-3.377v-1.633h3.377a2.438,2.438,0,0,0,0-4.875h-3.377v-3.906a2.418,2.418,0,1,0-4.836,0v22.387A11.029,11.029,0,1,0,380.407,235.364Zm-2.418,17.07a6.242,6.242,0,1,1,6.192-6.242A6.224,6.224,0,0,1,377.989,252.434Z" transform="translate(-327.985 -184)"/>
</svg>
