<svg xmlns="http://www.w3.org/2000/svg" width="60" height="60" viewBox="0 0 60 60">
  <metadata><?xpacket begin="﻿" id="W5M0MpCehiHzreSzNTczkc9d"?>
<x:xmpmeta xmlns:x="adobe:ns:meta/" x:xmptk="Adobe XMP Core 5.6-c138 79.159824, 2016/09/14-01:09:01        ">
   <rdf:RDF xmlns:rdf="http://www.w3.org/1999/02/22-rdf-syntax-ns#">
      <rdf:Description rdf:about=""/>
   </rdf:RDF>
</x:xmpmeta>
                                                                                                    
                                                                                                    
                                                                                                    
                                                                                                    
                                                                                                    
                                                                                                    
                                                                                                    
                                                                                                    
                                                                                                    
                                                                                                    
                                                                                                    
                                                                                                    
                                                                                                    
                                                                                                    
                                                                                                    
                                                                                                    
                                                                                                    
                                                                                                    
                                                                                                    
                                                                                                    
                           
<?xpacket end="w"?></metadata>
<defs>
    <style>
      .cls-1 {
        fill: #0b8ffe;
        fill-rule: evenodd;
      }
    </style>
  </defs>
  <path id="icon_wy_12" class="cls-1" d="M237.348,1254.6a10.784,10.784,0,0,0-11.063-10.6H211v39h5.622v-17.8h9.843A10.753,10.753,0,0,0,237.348,1254.6Zm-11.863,5.01h-9.063v-10.2h9.042a5.371,5.371,0,0,1,5.022,4.99C230.706,1256.99,228.085,1259.61,225.485,1259.61Zm25.327,13.79a3.732,3.732,0,0,0-.6-0.8l-2.02-5.21a2.792,2.792,0,0,0-2.221-1.59H235.508a2.846,2.846,0,0,0-2.221,1.59l-2.021,5.21a3.732,3.732,0,0,0-.6.8c-0.2.4-.4,0.6-0.4,2.99,0,2.2.4,3,1,3.4l0.4,0.2v2.19a0.663,0.663,0,0,0,.8.8h1.4c0.6,0,1,0,1-.6v-1.99h11.064v1.99c0,0.6.4,0.6,1,.6h1.4a0.662,0.662,0,0,0,.8-0.8v-2.19l0.4-.2c0.6-.2,1-1,1-3.4C251.213,1274,251.012,1273.6,250.812,1273.4Zm-16.685-1.4c0-.2.6-2.59,0.8-3.39,0.2-.2.8-1.2,1.6-1h8.643a2.467,2.467,0,0,1,1.6,1c0.2,0.8.8,3.19,0.8,3.39,0,0.4-.2.4-0.2,0.4H234.307c0.02-.2-0.38,0-0.18-0.4h0Zm0.2,5.59a1.6,1.6,0,1,1,1.6-1.6A1.578,1.578,0,0,1,234.327,1277.59Zm13.064,0a1.6,1.6,0,1,1,1.6-1.6A1.578,1.578,0,0,1,247.391,1277.59Z" transform="translate(-201 -1233.5)"/>
</svg>
