<svg xmlns="http://www.w3.org/2000/svg" width="60" height="60" viewBox="0 0 60 60">
  <metadata><?xpacket begin="﻿" id="W5M0MpCehiHzreSzNTczkc9d"?>
<x:xmpmeta xmlns:x="adobe:ns:meta/" x:xmptk="Adobe XMP Core 5.6-c138 79.159824, 2016/09/14-01:09:01        ">
   <rdf:RDF xmlns:rdf="http://www.w3.org/1999/02/22-rdf-syntax-ns#">
      <rdf:Description rdf:about=""/>
   </rdf:RDF>
</x:xmpmeta>
                                                                                                    
                                                                                                    
                                                                                                    
                                                                                                    
                                                                                                    
                                                                                                    
                                                                                                    
                                                                                                    
                                                                                                    
                                                                                                    
                                                                                                    
                                                                                                    
                                                                                                    
                                                                                                    
                                                                                                    
                                                                                                    
                                                                                                    
                                                                                                    
                                                                                                    
                                                                                                    
                           
<?xpacket end="w"?></metadata>
<defs>
    <style>
      .cls-1 {
        fill: #9c88ff;
        fill-rule: evenodd;
      }
    </style>
  </defs>
  <path id="icon_wy_25" class="cls-1" d="M368.617,1834h12.715v10.79H368.617V1834Zm12.766,12.73H368.617l-12.715,9.81h38.2ZM351,1858.49v4.9h48v-4.9H351Zm19.558,2.91h-1.941v-1.94h1.941v1.94Zm3.932,0h-1.941v-1.94h1.941v1.94Zm3.932,0h-1.941v-1.94h1.941v1.94Zm3.88,0h-1.94v-1.94h1.94v1.94Zm-18.587,6.9c-0.664-1.02.97-2.96,0.97-2.96s-2.911.92-2.962,2.96c-0.255,1.48,1.89,4.7,1.941,5.88,0.051,0.82.255,3.12-.971,3.93,1.175-.4,2.605-0.86,2.962-3.93C365.757,1872.34,364.634,1870.4,363.715,1868.3Zm10.928,0.15c-0.971-1.43,1.379-4.09,1.379-4.09s-4.035,1.28-4.085,4.09c-0.307,2.05,2.655,6.5,2.706,8.13,0.1,1.13.357,4.3-1.379,5.42,1.634-.61,3.626-1.23,4.085-5.42,0.1-2.55-1.48-5.26-2.706-8.13h0Zm10.264,0.05c-0.817-1.12,1.123-3.16,1.123-3.16s-3.37,1.02-3.421,3.16c-0.255,1.59,2.2,5.07,2.3,6.34,0.1,0.87.307,3.38-1.123,4.25,1.378-.46,3.012-0.92,3.421-4.25,0.05-1.99-1.277-4.09-2.3-6.34h0Z" transform="translate(-345 -1828)"/>
</svg>
