<?xml version="1.0" standalone="no"?><!DOCTYPE svg PUBLIC "-//W3C//DTD SVG 1.1//EN" "http://www.w3.org/Graphics/SVG/1.1/DTD/svg11.dtd"><svg t="1539073600879" class="icon" style="" viewBox="0 0 1024 1024" version="1.1" xmlns="http://www.w3.org/2000/svg" p-id="2845" xmlns:xlink="http://www.w3.org/1999/xlink" width="200" height="200"><defs><style type="text/css"></style></defs><path d="M511.989767 955.655426c-245.358127 0-444.976514-199.618387-444.976514-444.986747 0-245.358127 199.618387-444.976514 444.976514-444.976514 245.379617 0 444.998003 199.618387 444.998003 444.976514C956.986747 756.037039 757.369384 955.655426 511.989767 955.655426zM511.989767 97.993848c-227.54646 0-412.67483 185.128371-412.67483 412.67483 0 227.556693 185.128371 412.685064 412.67483 412.685064 227.566926 0 412.695297-185.128371 412.695297-412.685064C924.685064 283.122219 739.556693 97.993848 511.989767 97.993848z" p-id="2846"></path><path d="M347.680561 502.979556m-24.784476 0a24.22 24.22 0 1 0 49.568952 0 24.22 24.22 0 1 0-49.568952 0Z" p-id="2847"></path><path d="M347.680561 543.91692c-22.586414 0-40.945551-18.359137-40.945551-40.935318s18.359137-40.935318 40.945551-40.935318 40.945551 18.359137 40.945551 40.935318S370.266975 543.91692 347.680561 543.91692zM347.680561 494.347968c-4.773723 0-8.643867 3.869121-8.643867 8.632611s3.869121 8.632611 8.643867 8.632611c4.773723 0 8.643867-3.869121 8.643867-8.632611S352.454284 494.347968 347.680561 494.347968z" p-id="2848"></path><path d="M701.092659 393.193127 322.885851 393.193127c-8.91709 0-16.150842-7.234775-16.150842-16.150842 0-8.91709 7.234775-16.150842 16.150842-16.150842l378.205784 0c8.91709 0 16.150842 7.234775 16.150842 16.150842C717.243501 385.959376 710.008726 393.193127 701.092659 393.193127z" p-id="2849"></path><path d="M701.092659 519.132444 479.834416 519.132444c-8.91709 0-16.150842-7.234775-16.150842-16.150842 0-8.91709 7.234775-16.150842 16.150842-16.150842l221.258243 0c8.91709 0 16.150842 7.234775 16.150842 16.150842C717.243501 511.897669 710.008726 519.132444 701.092659 519.132444z" p-id="2850"></path><path d="M701.092659 660.455123 322.885851 660.455123c-8.91709 0-16.150842-7.234775-16.150842-16.150842 0-8.91709 7.234775-16.150842 16.150842-16.150842l378.205784 0c8.91709 0 16.150842 7.234775 16.150842 16.150842C717.243501 653.220349 710.008726 660.455123 701.092659 660.455123z" p-id="2851"></path></svg>