<svg xmlns="http://www.w3.org/2000/svg" width="22.031" height="23" viewBox="0 0 22.031 23">
  <metadata><?xpacket begin="﻿" id="W5M0MpCehiHzreSzNTczkc9d"?>
<x:xmpmeta xmlns:x="adobe:ns:meta/" x:xmptk="Adobe XMP Core 5.6-c138 79.159824, 2016/09/14-01:09:01        ">
   <rdf:RDF xmlns:rdf="http://www.w3.org/1999/02/22-rdf-syntax-ns#">
      <rdf:Description rdf:about=""/>
   </rdf:RDF>
</x:xmpmeta>
                                                                                                    
                                                                                                    
                                                                                                    
                                                                                                    
                                                                                                    
                                                                                                    
                                                                                                    
                                                                                                    
                                                                                                    
                                                                                                    
                                                                                                    
                                                                                                    
                                                                                                    
                                                                                                    
                                                                                                    
                                                                                                    
                                                                                                    
                                                                                                    
                                                                                                    
                                                                                                    
                           
<?xpacket end="w"?></metadata>
<defs>
    <style>
      .cls-1 {
        fill: #fff;
        fill-rule: evenodd;
      }
    </style>
  </defs>
  <path id="icon_c_jy" class="cls-1" d="M714.746,725.676l-6.527-6.434a0.9,0.9,0,0,0-.6-0.242,0.84,0.84,0,0,0-.6.256l-12.142,12.507a0.855,0.855,0,0,0-.227.437l-1.638,8.792a0.85,0.85,0,0,0,.831,1.008,0.833,0.833,0,0,0,.185-0.021l7.733-1.733a0.843,0.843,0,0,0,.425-0.24l12.575-13.131A0.856,0.856,0,0,0,714.746,725.676Zm-12.958,12.987a0.846,0.846,0,0,1-1.2.037l-4.815-4.557a0.853,0.853,0,0,1-.036-1.2,0.843,0.843,0,0,1,1.2-.037l4.815,4.557A0.855,0.855,0,0,1,701.788,738.663Z" transform="translate(-693 -719)"/>
</svg>
