<svg xmlns="http://www.w3.org/2000/svg" width="60" height="60" viewBox="0 0 60 60">
  <metadata><?xpacket begin="﻿" id="W5M0MpCehiHzreSzNTczkc9d"?>
<x:xmpmeta xmlns:x="adobe:ns:meta/" x:xmptk="Adobe XMP Core 5.6-c138 79.159824, 2016/09/14-01:09:01        ">
   <rdf:RDF xmlns:rdf="http://www.w3.org/1999/02/22-rdf-syntax-ns#">
      <rdf:Description rdf:about=""/>
   </rdf:RDF>
</x:xmpmeta>
                                                                                                    
                                                                                                    
                                                                                                    
                                                                                                    
                                                                                                    
                                                                                                    
                                                                                                    
                                                                                                    
                                                                                                    
                                                                                                    
                                                                                                    
                                                                                                    
                                                                                                    
                                                                                                    
                                                                                                    
                                                                                                    
                                                                                                    
                                                                                                    
                                                                                                    
                                                                                                    
                           
<?xpacket end="w"?></metadata>
<defs>
    <style>
      .cls-1 {
        fill: #69e156;
        fill-rule: evenodd;
      }
    </style>
  </defs>
  <path id="icon_wy_31" class="cls-1" d="M394.115,2174.41c-0.345.56-.392,3.88-0.064,7.04l0.265,2.55-2.1-1.4c-2.39-1.6-5.457-3.32-6.3-3.38a22.892,22.892,0,0,1-9.955.73,1.205,1.205,0,0,1-1.007-1.37,1.286,1.286,0,0,1,.222-0.53c10.062-1.76,17.67-9.46,17.67-18.67a16.792,16.792,0,0,0-2.108-8.07,1.137,1.137,0,0,1,.212-0.49,1.168,1.168,0,0,1,1.663-.22A16.132,16.132,0,0,1,399,2163.16,15.8,15.8,0,0,1,394.115,2174.41Zm-23.456,1.67a22.825,22.825,0,0,1-6.612-1c-0.843.05-3.911,1.77-6.305,3.36l-2.1,1.4,0.271-2.55c0.339-3.17.3-6.48-.09-7.1a15.683,15.683,0,0,1-4.822-11.2c0.021-9.4,8.88-17.02,19.742-16.99s19.683,7.69,19.662,17.08S381.531,2176.1,370.659,2176.08Zm-9.4-19.66a2.321,2.321,0,1,0,2.268,2.31A2.289,2.289,0,0,0,361.254,2156.42Zm9.5,0.02a2.321,2.321,0,1,0,2.268,2.31A2.292,2.292,0,0,0,370.754,2156.44Zm9.018,0.02a2.321,2.321,0,1,0,2.268,2.31A2.3,2.3,0,0,0,379.772,2156.46Z" transform="translate(-345 -2133)"/>
</svg>
