<svg xmlns="http://www.w3.org/2000/svg" width="60" height="60" viewBox="0 0 60 60">
  <metadata><?xpacket begin="﻿" id="W5M0MpCehiHzreSzNTczkc9d"?>
<x:xmpmeta xmlns:x="adobe:ns:meta/" x:xmptk="Adobe XMP Core 5.6-c138 79.159824, 2016/09/14-01:09:01        ">
   <rdf:RDF xmlns:rdf="http://www.w3.org/1999/02/22-rdf-syntax-ns#">
      <rdf:Description rdf:about=""/>
   </rdf:RDF>
</x:xmpmeta>
                                                                                                    
                                                                                                    
                                                                                                    
                                                                                                    
                                                                                                    
                                                                                                    
                                                                                                    
                                                                                                    
                                                                                                    
                                                                                                    
                                                                                                    
                                                                                                    
                                                                                                    
                                                                                                    
                                                                                                    
                                                                                                    
                                                                                                    
                                                                                                    
                                                                                                    
                                                                                                    
                           
<?xpacket end="w"?></metadata>
<defs>
    <style>
      .cls-1 {
        fill: #69e156;
        fill-rule: evenodd;
      }
    </style>
  </defs>
  <path id="icon_wy_23" class="cls-1" d="M524.682,1722h0a8.394,8.394,0,0,0,4.2-1.07,9.792,9.792,0,0,0,3.255-3.28c0.118-.21.13-0.23,0.248-0.45,1.33-2.42-.164-6.26-3.8-9.12a10.307,10.307,0,0,0-6.016-2.45,3.75,3.75,0,0,0-3.146,1.41,1.159,1.159,0,0,1-.579.22,0.432,0.432,0,0,1-.349-0.2l-0.034-.03a36.313,36.313,0,0,1-4.86-8.45,1.076,1.076,0,0,1,.032-0.74,0.335,0.335,0,0,1,.148-0.08,3.479,3.479,0,0,0,2.612-1.3c1.342-1.55,1.912-4.29,1.525-7.32-0.592-4.64-3.146-8.14-5.939-8.14H511.9c-0.133.01-.263,0.02-0.39,0.04a8.5,8.5,0,0,0-4.663,1.06c-6.345,3.61-6.478,14.97-.3,25.86,4.765,8.4,12.054,14.04,18.137,14.04h0Zm2.3-21.13a1.562,1.562,0,0,1-1.211-.48l-3.392-3.75a1.687,1.687,0,0,1-.243-1.69,1.472,1.472,0,0,1,1.454-.84h10.783a1.57,1.57,0,1,1,0,3.14h-7.391l1.091,1.33a1.529,1.529,0,0,1-.121,2.17c-0.243,0-.606.12-0.97,0.12h0Zm7.512-9.18H523.715a1.57,1.57,0,1,1,0-3.14h7.391l-1.091-1.2a1.545,1.545,0,0,1,2.3-2.06l3.392,3.75a1.707,1.707,0,0,1,.121,1.69,1.415,1.415,0,0,1-1.332.96h0Z" transform="translate(-489 -1671.5)"/>
</svg>
