<svg xmlns="http://www.w3.org/2000/svg" width="60" height="60" viewBox="0 0 60 60">
  <metadata><?xpacket begin="﻿" id="W5M0MpCehiHzreSzNTczkc9d"?>
<x:xmpmeta xmlns:x="adobe:ns:meta/" x:xmptk="Adobe XMP Core 5.6-c138 79.159824, 2016/09/14-01:09:01        ">
   <rdf:RDF xmlns:rdf="http://www.w3.org/1999/02/22-rdf-syntax-ns#">
      <rdf:Description rdf:about=""/>
   </rdf:RDF>
</x:xmpmeta>
                                                                                                    
                                                                                                    
                                                                                                    
                                                                                                    
                                                                                                    
                                                                                                    
                                                                                                    
                                                                                                    
                                                                                                    
                                                                                                    
                                                                                                    
                                                                                                    
                                                                                                    
                                                                                                    
                                                                                                    
                                                                                                    
                                                                                                    
                                                                                                    
                                                                                                    
                                                                                                    
                           
<?xpacket end="w"?></metadata>
<defs>
    <style>
      .cls-1 {
        fill: #0b8ffe;
        fill-rule: evenodd;
      }
    </style>
  </defs>
  <path id="icon_wy_17" class="cls-1" d="M249.6,1573.26a3.334,3.334,0,0,1-3.338,3.33H217.748a3.336,3.336,0,0,1-3.34-3.33v-13.69H211v13.69a6.756,6.756,0,0,0,6.748,6.74h28.509a6.755,6.755,0,0,0,6.743-6.74v-13.69H249.6v13.69ZM246.257,1538H217.748a6.758,6.758,0,0,0-6.748,6.75v13.68h3.405v-13.68a3.355,3.355,0,0,1,3.34-3.35h28.51a3.351,3.351,0,0,1,3.337,3.35v13.68H253v-13.68A6.757,6.757,0,0,0,246.257,1538Zm-18.409,14.68v-3.21a2.905,2.905,0,0,1,2.934-2.87h3.259a2.9,2.9,0,0,1,2.934,2.87v3.21h3.853v-3.21a6.706,6.706,0,0,0-6.787-6.63h-3.259a6.7,6.7,0,0,0-6.776,6.63v3.21h3.842Zm-7.527,2v10.53a10.171,10.171,0,0,0,10.287,10.04h3.164a10.158,10.158,0,0,0,10.282-10.04v-10.53H220.321Zm13.373,9.36v4.61a1.026,1.026,0,0,1-2.05,0v-4.61a2.686,2.686,0,1,1,2.05,0h0Z" transform="translate(-202 -1529)"/>
</svg>
