<svg xmlns="http://www.w3.org/2000/svg" width="36" height="36" viewBox="0 0 36 36">
  <defs>
    <style>
      .cls-1 {
        fill: #0b8ffe;
        fill-rule: evenodd;
      }
    </style>
  </defs>
  <path id="icon_wy_house" class="cls-1" d="M58,174a18,18,0,1,1-18,18A18,18,0,0,1,58,174Zm9.912,15.04-8.506-7.056a2.3,2.3,0,0,0-2.832,0l-8.5,7.056a1.473,1.473,0,0,0,0,2.354h2.038v8.714a2.377,2.377,0,0,0,2.364,2.391H63.506a2.377,2.377,0,0,0,2.366-2.391v-8.714h2.04A1.475,1.475,0,0,0,67.912,189.04Z" transform="translate(-40 -174)"/>
</svg>
