<svg xmlns="http://www.w3.org/2000/svg" width="60" height="60" viewBox="0 0 60 60">
  <metadata><?xpacket begin="﻿" id="W5M0MpCehiHzreSzNTczkc9d"?>
<x:xmpmeta xmlns:x="adobe:ns:meta/" x:xmptk="Adobe XMP Core 5.6-c138 79.159824, 2016/09/14-01:09:01        ">
   <rdf:RDF xmlns:rdf="http://www.w3.org/1999/02/22-rdf-syntax-ns#">
      <rdf:Description rdf:about=""/>
   </rdf:RDF>
</x:xmpmeta>
                                                                                                    
                                                                                                    
                                                                                                    
                                                                                                    
                                                                                                    
                                                                                                    
                                                                                                    
                                                                                                    
                                                                                                    
                                                                                                    
                                                                                                    
                                                                                                    
                                                                                                    
                                                                                                    
                                                                                                    
                                                                                                    
                                                                                                    
                                                                                                    
                                                                                                    
                                                                                                    
                           
<?xpacket end="w"?></metadata>
<defs>
    <style>
      .cls-1 {
        fill: #fbc531;
        fill-rule: evenodd;
      }
    </style>
  </defs>
  <path id="icon_wy_32" class="cls-1" d="M240.674,2321.81H244a1.661,1.661,0,1,0,0-3.32h-3.321A1.661,1.661,0,1,0,240.674,2321.81Zm0,6.52H244a1.661,1.661,0,1,0,0-3.32h-3.321A1.661,1.661,0,1,0,240.674,2328.33Zm10.715-.76v-11.92a5.023,5.023,0,0,0-1.5-3.67,5.347,5.347,0,0,0-3.762-1.53H235.7v-12.57a2.876,2.876,0,0,0-2.864-2.88h-17.7a3.166,3.166,0,0,0-2.915,2.82,0.887,0.887,0,0,0,0,.11v29.18c-4.88,1.32-7.216,2.96-7.216,5.03,0,5.42,16.377,6.86,26,6.86s26-1.44,26-6.86C257,2330.16,255.065,2328.67,251.389,2327.57Zm-15.58-14.14H246c1.031,0,2.635,1.33,2.635,2.22v18.88a70.45,70.45,0,0,1-12.944,1.61v-22.71h0.117Zm-14.183-9.07h4.468a1.661,1.661,0,1,1,0,3.32h-4.468A1.661,1.661,0,1,1,221.626,2304.36Zm0,6.52h4.468a1.661,1.661,0,1,1,0,3.32h-4.468A1.661,1.661,0,1,1,221.626,2310.88Zm0,6.52h4.468a1.661,1.661,0,1,1,0,3.32h-4.468A1.661,1.661,0,1,1,221.626,2317.4Zm-13.879,14.63c0-.21.792-1.17,4.469-2.19v4.4C209.25,2333.43,207.747,2332.56,207.747,2332.03Zm43.642,1.72v-3.42c2.285,0.77,2.864,1.51,2.864,1.7C254.253,2332.45,253.288,2333.1,251.389,2333.75Z" transform="translate(-201 -2287)"/>
</svg>
