<svg xmlns="http://www.w3.org/2000/svg" width="64" height="55" viewBox="0 0 64 55">
  <metadata><?xpacket begin="﻿" id="W5M0MpCehiHzreSzNTczkc9d"?>
<x:xmpmeta xmlns:x="adobe:ns:meta/" x:xmptk="Adobe XMP Core 5.6-c138 79.159824, 2016/09/14-01:09:01        ">
   <rdf:RDF xmlns:rdf="http://www.w3.org/1999/02/22-rdf-syntax-ns#">
      <rdf:Description rdf:about=""/>
   </rdf:RDF>
</x:xmpmeta>
                                                                                                    
                                                                                                    
                                                                                                    
                                                                                                    
                                                                                                    
                                                                                                    
                                                                                                    
                                                                                                    
                                                                                                    
                                                                                                    
                                                                                                    
                                                                                                    
                                                                                                    
                                                                                                    
                                                                                                    
                                                                                                    
                                                                                                    
                                                                                                    
                                                                                                    
                                                                                                    
                           
<?xpacket end="w"?></metadata>
<defs>
    <style>
      .cls-1 {
        fill: #fff;
        fill-rule: evenodd;
      }
    </style>
  </defs>
  <path id="icon_c_sj" class="cls-1" d="M119.486,757.436c-0.459.739-.522,5.085-0.084,9.226L119.755,770l-2.8-1.839c-3.186-2.1-7.276-4.347-8.4-4.425a31.092,31.092,0,0,1-13.274.966,1.6,1.6,0,0,1-1.342-1.8,1.636,1.636,0,0,1,.3-0.689c13.415-2.3,23.56-12.387,23.56-24.453a21.723,21.723,0,0,0-2.812-10.569,1.558,1.558,0,0,1,2.5-.923A21,21,0,0,1,126,742.713,20.51,20.51,0,0,1,119.486,757.436Zm-31.274,2.188a30.465,30.465,0,0,1-8.817-1.307c-1.123.071-5.214,2.315-8.407,4.4l-2.8,1.833,0.36-3.338c0.452-4.148.4-8.488-.12-9.3A20.383,20.383,0,0,1,62,737.244c0.028-12.3,11.84-22.28,26.322-22.244s26.245,10.071,26.216,22.372S102.708,759.652,88.212,759.624Zm-12.54-25.746A3.04,3.04,0,1,0,78.7,736.91,3.035,3.035,0,0,0,75.673,733.878Zm12.667,0.028a3.04,3.04,0,1,0,3.024,3.033A3.04,3.04,0,0,0,88.339,733.906Zm12.024,0.029a3.04,3.04,0,1,0,3.024,3.032A3.039,3.039,0,0,0,100.363,733.935Z" transform="translate(-62 -715)"/>
</svg>
