<svg xmlns="http://www.w3.org/2000/svg" width="60" height="60" viewBox="0 0 60 60">
  <metadata><?xpacket begin="﻿" id="W5M0MpCehiHzreSzNTczkc9d"?>
<x:xmpmeta xmlns:x="adobe:ns:meta/" x:xmptk="Adobe XMP Core 5.6-c138 79.159824, 2016/09/14-01:09:01        ">
   <rdf:RDF xmlns:rdf="http://www.w3.org/1999/02/22-rdf-syntax-ns#">
      <rdf:Description rdf:about=""/>
   </rdf:RDF>
</x:xmpmeta>
                                                                                                    
                                                                                                    
                                                                                                    
                                                                                                    
                                                                                                    
                                                                                                    
                                                                                                    
                                                                                                    
                                                                                                    
                                                                                                    
                                                                                                    
                                                                                                    
                                                                                                    
                                                                                                    
                                                                                                    
                                                                                                    
                                                                                                    
                                                                                                    
                                                                                                    
                                                                                                    
                           
<?xpacket end="w"?></metadata>
<defs>
    <style>
      .cls-1 {
        fill: #fbc531;
        fill-rule: evenodd;
      }
    </style>
  </defs>
  <path id="icon_wy_27" class="cls-1" d="M662.952,1842.19a12.508,12.508,0,0,1,7.785,2.69l4.466-5.62a19.631,19.631,0,0,0-12.251-4.26,19.961,19.961,0,0,0-19.865,18.99H638l8.766,11.25,8.815-11.25h-5.329A12.784,12.784,0,0,1,662.952,1842.19Zm16.251,2.58L670.264,1856h5.387a12.785,12.785,0,0,1-12.7,11.81,12.52,12.52,0,0,1-7.753-2.67l-0.066-.05-4.424,5.65,0.053,0.04a19.61,19.61,0,0,0,12.19,4.22,19.97,19.97,0,0,0,19.865-19H688Z" transform="translate(-633 -1825)"/>
</svg>
