<svg xmlns="http://www.w3.org/2000/svg" width="86" height="86" viewBox="0 0 86 86">
  <metadata><?xpacket begin="﻿" id="W5M0MpCehiHzreSzNTczkc9d"?>
<x:xmpmeta xmlns:x="adobe:ns:meta/" x:xmptk="Adobe XMP Core 5.6-c138 79.159824, 2016/09/14-01:09:01        ">
   <rdf:RDF xmlns:rdf="http://www.w3.org/1999/02/22-rdf-syntax-ns#">
      <rdf:Description rdf:about=""/>
   </rdf:RDF>
</x:xmpmeta>
                                                                                                    
                                                                                                    
                                                                                                    
                                                                                                    
                                                                                                    
                                                                                                    
                                                                                                    
                                                                                                    
                                                                                                    
                                                                                                    
                                                                                                    
                                                                                                    
                                                                                                    
                                                                                                    
                                                                                                    
                                                                                                    
                                                                                                    
                                                                                                    
                                                                                                    
                                                                                                    
                           
<?xpacket end="w"?></metadata>
<defs>
    <style>
      .cls-1 {
        fill: #fff;
        fill-rule: evenodd;
      }
    </style>
  </defs>
  <path id="icon_menu_wxsb" class="cls-1" d="M108.584,377l2.808,2.808s-0.248,3.692,3.222,3.222c0,0,6.723,4.394,7.284,9.585a15.838,15.838,0,0,1-1.409,8.737l-1.97-1.97s0.141-8.161-3.985-7.848l-11.84,11.838-0.313,2.056L91.41,416.791s-5.516.474-5.162-5.162l11.213-11.211,2.192-.2,10.325-10.242s2.465-4.656-3.915-5.414L103.5,382.08ZM98.012,391.312l3.233,3.232-4.486,4.485L93.628,395.9s-5.005,1.878-8.132-.94a10.461,10.461,0,0,1-3.5-7.247c0.04-.676.293-1.348,1.49,0.308,1.9,2.612,4.45,4.228,7.531,1.106,3.526-3.565,1.586-5.661-1.3-8.226-1.227-1.091-.131-1.525,1.243-1.243,0.55,0.116,5.612,1.945,7.036,5.576A8.3,8.3,0,0,1,98.012,391.312Zm20.461,20.3L108.387,402l-4.587,4.586,9.617,10.085a1.1,1.1,0,0,0,1.566,0l3.495-3.494a1.1,1.1,0,0,0,0-1.561h0Zm-5.611,2.338-0.758-2.444,2.091-1.48,2.051,1.531-0.823,2.424Z" transform="translate(-59 -354)"/>
</svg>
