<svg xmlns="http://www.w3.org/2000/svg" width="60" height="60" viewBox="0 0 60 60">
  <metadata><?xpacket begin="﻿" id="W5M0MpCehiHzreSzNTczkc9d"?>
<x:xmpmeta xmlns:x="adobe:ns:meta/" x:xmptk="Adobe XMP Core 5.6-c138 79.159824, 2016/09/14-01:09:01        ">
   <rdf:RDF xmlns:rdf="http://www.w3.org/1999/02/22-rdf-syntax-ns#">
      <rdf:Description rdf:about=""/>
   </rdf:RDF>
</x:xmpmeta>
                                                                                                    
                                                                                                    
                                                                                                    
                                                                                                    
                                                                                                    
                                                                                                    
                                                                                                    
                                                                                                    
                                                                                                    
                                                                                                    
                                                                                                    
                                                                                                    
                                                                                                    
                                                                                                    
                                                                                                    
                                                                                                    
                                                                                                    
                                                                                                    
                                                                                                    
                                                                                                    
                           
<?xpacket end="w"?></metadata>
<defs>
    <style>
      .cls-1 {
        fill: #c874e4;
        fill-rule: evenodd;
      }
    </style>
  </defs>
  <path id="icon_wy_13" class="cls-1" d="M392.879,1249.32H391.9v-2.64a2.659,2.659,0,0,0-2.635-2.68h-26.45a2.659,2.659,0,0,0-2.635,2.68v2.64h-0.029a4.2,4.2,0,0,0-4.151,4.23v5.38a4.2,4.2,0,0,0,4.151,4.23h12.858a1.936,1.936,0,0,1,1.911,1.95v6.26h-1.363a1.129,1.129,0,0,0-1.119,1.14v16.35a1.129,1.129,0,0,0,1.119,1.14h5a1.129,1.129,0,0,0,1.119-1.14v-16.35a1.129,1.129,0,0,0-1.119-1.14h-1.4v-6.26a4.2,4.2,0,0,0-4.1-4.23H360.151a1.931,1.931,0,0,1-1.912-1.95v-5.38a1.937,1.937,0,0,1,1.912-1.95h0.029v2.64a2.668,2.668,0,0,0,2.635,2.69h26.45a2.668,2.668,0,0,0,2.635-2.69v-2.64h0.979A1.14,1.14,0,0,0,392.879,1249.32Z" transform="translate(-345 -1237)"/>
</svg>
