<svg xmlns="http://www.w3.org/2000/svg" width="220" height="220" viewBox="0 0 220 220">
  <metadata><?xpacket begin="﻿" id="W5M0MpCehiHzreSzNTczkc9d"?>
<x:xmpmeta xmlns:x="adobe:ns:meta/" x:xmptk="Adobe XMP Core 5.6-c138 79.159824, 2016/09/14-01:09:01        ">
   <rdf:RDF xmlns:rdf="http://www.w3.org/1999/02/22-rdf-syntax-ns#">
      <rdf:Description rdf:about=""/>
   </rdf:RDF>
</x:xmpmeta>
                                                                                                    
                                                                                                    
                                                                                                    
                                                                                                    
                                                                                                    
                                                                                                    
                                                                                                    
                                                                                                    
                                                                                                    
                                                                                                    
                                                                                                    
                                                                                                    
                                                                                                    
                                                                                                    
                                                                                                    
                                                                                                    
                                                                                                    
                                                                                                    
                                                                                                    
                                                                                                    
                           
<?xpacket end="w"?></metadata>
<defs>
    <style>
      .cls-1 {
        fill: #dfdfdf;
        fill-rule: evenodd;
      }
    </style>
  </defs>
  <path id="icon_null_jf" class="cls-1" d="M441.987,1034.06v46.4h-0.029c-0.237,3-2.15,7.91-11.128,11.62-6.109,2.53-14.147,3.92-22.636,3.92h-0.016c-8.488,0-16.526-1.39-22.635-3.92-8.978-3.71-10.891-8.62-11.128-11.62h-0.029v-46.85h0c0-2.88,1.449-8.31,11.157-12.32,6.112-2.52,14.157-3.91,22.65-3.91s16.538,1.39,22.65,3.91c9.708,4.01,11.157,9.44,11.157,12.32C442,1033.75,442,1033.91,441.987,1034.06Zm-59.893,45.71h0c0,1.26,1.976,3.36,6.389,5.18,5.125,2.12,12.306,3.33,19.7,3.33s14.578-1.21,19.7-3.33c4.414-1.82,6.39-3.92,6.39-5.18h0V1068.9a33.192,33.192,0,0,1-3.449,1.67c-6.109,2.52-14.147,3.91-22.636,3.91h-0.016c-8.488,0-16.526-1.39-22.635-3.91a33.093,33.093,0,0,1-3.449-1.67v10.87Zm0-21.52h0c0,1.27,1.976,3.36,6.39,5.19,5.124,2.11,12.306,3.33,19.7,3.33s14.578-1.22,19.7-3.33c4.414-1.83,6.39-3.92,6.39-5.19h0v-13.99a31.239,31.239,0,0,1-3.436,1.66c-6.112,2.53-14.157,3.92-22.65,3.92s-16.538-1.39-22.65-3.92a29.51,29.51,0,0,1-3.449-1.67v14Zm45.809-29.82c-5.127-2.12-12.311-3.34-19.71-3.34s-14.583,1.22-19.709,3.34c-4.414,1.82-6.39,3.91-6.39,5.18s1.976,3.36,6.39,5.18c5.126,2.12,12.31,3.33,19.709,3.33s14.583-1.21,19.71-3.33c4.258-1.76,6.241-3.77,6.376-5.04v-0.14h0.013C434.292,1032.34,432.316,1030.25,427.9,1028.43Zm-15.545-15.97a3.849,3.849,0,0,1-3.854-3.85V998.091a41.19,41.19,0,0,1-8.515,4.649c-9.381,3.87-21.769,6.01-34.883,6.01s-25.5-2.14-34.882-6.01a41.173,41.173,0,0,1-8.516-4.649v26.159h0c0,3.45,4.283,7.27,11.457,10.24,8.469,3.49,19.813,5.42,31.941,5.42a3.855,3.855,0,0,1,0,7.71c-13.114,0-25.5-2.13-34.882-6a41.221,41.221,0,0,1-8.516-4.65v21.22h0c0,3.45,4.283,7.28,11.457,10.24,8.469,3.5,19.812,5.42,31.941,5.42a3.86,3.86,0,0,1,0,7.72c-13.114,0-25.5-2.14-34.882-6.01-9.9-4.09-15.589-9.84-16.167-16.28H314V985.373h0c0-6.877,5.762-13.044,16.224-17.365,9.38-3.875,21.768-6.008,34.882-6.008s25.5,2.133,34.883,6.008c10.461,4.321,16.223,10.488,16.223,17.365,0,0.1-.013.2-0.016,0.3,0,0.054.016,0.105,0.016,0.159v22.774A3.849,3.849,0,0,1,412.358,1012.46Zm-15.31-37.322c-8.469-3.5-19.813-5.424-31.942-5.424s-23.472,1.926-31.941,5.424c-7.174,2.963-11.457,6.789-11.457,10.235s4.283,7.272,11.457,10.235c8.469,3.5,19.813,5.422,31.941,5.422s23.473-1.924,31.942-5.422c7.173-2.963,11.456-6.789,11.456-10.235S404.221,978.1,397.048,975.138ZM282.859,1052.07a5.011,5.011,0,0,0-5.707-4.15q-4.565.285-.7-2.17a4.99,4.99,0,0,0,2.18-6.7q-1.68-4.26,1.846-1.35a4.984,4.984,0,0,0,7.054,0q3.526-2.91,1.846,1.35a4.99,4.99,0,0,0,2.18,6.7q3.859,2.46-.7,2.17a5.011,5.011,0,0,0-5.707,4.15Q284,1056.495,282.859,1052.07Zm174.4-47.08q3.273-5.52-1.5-9.727t1.46-2.848q6.233,1.361,8.8-4.514t3.148,0.486q0.579,6.36,6.939,6.939t0.485,3.148q-5.874,2.574-4.513,8.806t-2.848,1.46q-4.211-4.785-9.728-1.5Q453.991,1010.51,457.263,1004.99Z" transform="translate(-267.031 -919)"/>
</svg>
