<svg xmlns="http://www.w3.org/2000/svg" width="60" height="60" viewBox="0 0 60 60">
  <metadata><?xpacket begin="﻿" id="W5M0MpCehiHzreSzNTczkc9d"?>
<x:xmpmeta xmlns:x="adobe:ns:meta/" x:xmptk="Adobe XMP Core 5.6-c138 79.159824, 2016/09/14-01:09:01        ">
   <rdf:RDF xmlns:rdf="http://www.w3.org/1999/02/22-rdf-syntax-ns#">
      <rdf:Description rdf:about=""/>
   </rdf:RDF>
</x:xmpmeta>
                                                                                                    
                                                                                                    
                                                                                                    
                                                                                                    
                                                                                                    
                                                                                                    
                                                                                                    
                                                                                                    
                                                                                                    
                                                                                                    
                                                                                                    
                                                                                                    
                                                                                                    
                                                                                                    
                                                                                                    
                                                                                                    
                                                                                                    
                                                                                                    
                                                                                                    
                                                                                                    
                           
<?xpacket end="w"?></metadata>
<defs>
    <style>
      .cls-1 {
        fill: #6ee18c;
        fill-rule: evenodd;
      }
    </style>
  </defs>
  <path id="icon_wy_26" class="cls-1" d="M509.8,1867.42l2.422-2.39s0.007,0,.011.01a6.332,6.332,0,0,0,3.556-.03,6.135,6.135,0,0,0,4.369-5.85,5.958,5.958,0,0,0-.042-0.72h0l-1.438-.29-2.985,2.95-3.526-3.45,2.817-2.86-0.122-1.69h0a6.676,6.676,0,0,0-.9-0.07,6.122,6.122,0,0,0-6.2,6.13,6.047,6.047,0,0,0,.155,1.36c0.038,0.17.082,0.33,0.134,0.49l-0.652.64-3.424,3.37-0.53.52-4.108,4.04-0.835.82a2.98,2.98,0,0,0,4.075,4.15l0.05-.05,0.9-.89,0.758-.74,3.829-3.78Zm29.533-21.83a5.4,5.4,0,0,0-3.16-1.24H523.422l8.39-7.83,0.011-.01a2.073,2.073,0,0,0,.187-2.76l-0.033-.04a1.456,1.456,0,0,0-1.061-.42,3.439,3.439,0,0,0-1.812.71l-0.014.01-8.935,7.98-9.353-8.01a2.755,2.755,0,0,0-1.834-.98,1.489,1.489,0,0,0-1.159.59,0.138,0.138,0,0,1-.033.03,1.622,1.622,0,0,0-.5,1.44,3.062,3.062,0,0,0,.854,1.53l0.019,0.02,8.707,7.74h-14.03a5.347,5.347,0,0,0-3.2,1.25,3.868,3.868,0,0,0-1.627,2.87v19.15c0,0.32,5.315-4.79,5.315-4.79v-9.93a2.924,2.924,0,0,1,3.026-2.93h13.987a2.884,2.884,0,0,1,2.978,2.93v13.82a2.941,2.941,0,0,1-2.978,3h-9.353l-3.736,3.68-0.739.73-0.877.87h31.051a4.8,4.8,0,0,0,4.327-4.28v-22.25A3.912,3.912,0,0,0,539.334,1845.59Zm-7.977,12.12a3.755,3.755,0,1,1,3.8-3.75A3.777,3.777,0,0,1,531.357,1857.71Z" transform="translate(-489.5 -1824)"/>
</svg>
