<svg xmlns="http://www.w3.org/2000/svg" width="40" height="40" viewBox="0 0 40 40">
  <metadata><?xpacket begin="﻿" id="W5M0MpCehiHzreSzNTczkc9d"?>
<x:xmpmeta xmlns:x="adobe:ns:meta/" x:xmptk="Adobe XMP Core 5.6-c138 79.159824, 2016/09/14-01:09:01        ">
   <rdf:RDF xmlns:rdf="http://www.w3.org/1999/02/22-rdf-syntax-ns#">
      <rdf:Description rdf:about=""/>
   </rdf:RDF>
</x:xmpmeta>
                                                                                                    
                                                                                                    
                                                                                                    
                                                                                                    
                                                                                                    
                                                                                                    
                                                                                                    
                                                                                                    
                                                                                                    
                                                                                                    
                                                                                                    
                                                                                                    
                                                                                                    
                                                                                                    
                                                                                                    
                                                                                                    
                                                                                                    
                                                                                                    
                                                                                                    
                                                                                                    
                           
<?xpacket end="w"?></metadata>
<defs>
    <style>
      .cls-1 {
        fill: #0b8ffe;
        fill-rule: evenodd;
      }
    </style>
  </defs>
  <path id="icon_shop_head" class="cls-1" d="M91.157,171.489a0.4,0.4,0,0,0-.009-0.044,0.935,0.935,0,0,0-.055-0.182l-2.547-6.331a3.2,3.2,0,0,0-3.191-2.121H67.473a3.1,3.1,0,0,0-3.092,2.058l-2.739,6.46a1.348,1.348,0,0,0-.039.152,5.958,5.958,0,0,0,2.869,7.128,5.909,5.909,0,0,0,2.813.646h0a5.952,5.952,0,0,0,4.562-2.125,5.9,5.9,0,0,0,9.055,0,5.954,5.954,0,0,0,10.543-3.8A5.88,5.88,0,0,0,91.157,171.489Zm-6.331,1.058H67.436a1.085,1.085,0,1,1,0-2.17H84.826A1.085,1.085,0,1,1,84.826,172.547Zm4.369,8.681a1.085,1.085,0,0,0-1.087-1.085,1,1,0,0,0-.314.064h0a6.752,6.752,0,0,1-2.613.447,6.575,6.575,0,0,1-4.276-1.5,7.025,7.025,0,0,1-4.507,1.672,6.916,6.916,0,0,1-4.546-1.5,6.934,6.934,0,0,1-4.56,1.587H67.286a6.473,6.473,0,0,1-2.576-.546,0.769,0.769,0,0,0-.08-0.03l-0.127-.046a1.944,1.944,0,0,0-.242-0.027h0a1.085,1.085,0,0,0-1.085,1.087l0.008,5.814a2.782,2.782,0,0,0,2.785,2.774l20.452-.013a2.79,2.79,0,0,0,2.781-2.782Z" transform="translate(-56.375 -156.375)"/>
</svg>
