<svg xmlns="http://www.w3.org/2000/svg" width="60" height="60" viewBox="0 0 60 60">
  <metadata><?xpacket begin="﻿" id="W5M0MpCehiHzreSzNTczkc9d"?>
<x:xmpmeta xmlns:x="adobe:ns:meta/" x:xmptk="Adobe XMP Core 5.6-c138 79.159824, 2016/09/14-01:09:01        ">
   <rdf:RDF xmlns:rdf="http://www.w3.org/1999/02/22-rdf-syntax-ns#">
      <rdf:Description rdf:about=""/>
   </rdf:RDF>
</x:xmpmeta>
                                                                                                    
                                                                                                    
                                                                                                    
                                                                                                    
                                                                                                    
                                                                                                    
                                                                                                    
                                                                                                    
                                                                                                    
                                                                                                    
                                                                                                    
                                                                                                    
                                                                                                    
                                                                                                    
                                                                                                    
                                                                                                    
                                                                                                    
                                                                                                    
                                                                                                    
                                                                                                    
                           
<?xpacket end="w"?></metadata>
<defs>
    <style>
      .cls-1 {
        fill: #69e156;
        fill-rule: evenodd;
      }
    </style>
  </defs>
  <path id="icon_wy_11" class="cls-1" d="M378.1,1120.29l0.637-.45a13.294,13.294,0,0,0,1.993-1.57,8.316,8.316,0,0,0,2.048-3.54,7.215,7.215,0,0,0,.1-1.76l0.014-.67c0.27,0.5.533,1,.8,1.49l0.346,0.66c0.446,0.84,1.7,2.83,3.636,3.06a3.062,3.062,0,0,0,2.734-1.12,5.541,5.541,0,0,0,1-4.5,35.053,35.053,0,0,0-.851-3.95l-0.138-.57a9.567,9.567,0,0,0-1.205-3.14,14.416,14.416,0,0,0-1.159-1.46c-0.183-.21-0.366-0.52-0.543-0.73a31.474,31.474,0,0,0-7.66-6.6,7.26,7.26,0,0,0,.712-7.01,6.882,6.882,0,1,0-12.643,5.41,7.232,7.232,0,0,0,4.483,4.1,10.851,10.851,0,0,1-.912,1.37,11.526,11.526,0,0,0-1.793,2.6,8.215,8.215,0,0,0-.491,4.18l0.045,0.84c0.021,0.79.062,1.58,0.107,2.37,0.049,0.92.1,1.85,0.111,3.1,0.007,0.25.014,0.61,0,.68a2.9,2.9,0,0,1-.5.39,7.407,7.407,0,0,0-.675.51,18.359,18.359,0,0,0-2.446,2.64,23.513,23.513,0,0,0-3.194,5.4,18.344,18.344,0,0,0-1.858,8.17c0.139,2.27,1.177,3.86,2.844,4.36a9.415,9.415,0,0,0,2.741.45,6.4,6.4,0,0,0,1.484-.17,4.345,4.345,0,0,0,3.024-3.21l0.18-.48c0.329-.79.661-1.6,1-2.39,0.561-1.32,1.139-2.64,1.775-3.93l0.17-.35a9.355,9.355,0,0,1,1.2-2.06,8.593,8.593,0,0,1,1.8-1.39C377.375,1120.78,377.739,1120.54,378.1,1120.29Zm-7-27.82a3.571,3.571,0,0,1,1.7-4.73,3.054,3.054,0,0,1,1.25-.26,3.692,3.692,0,0,1,3.325,2.31A3.423,3.423,0,1,1,371.1,1092.47Zm4.976,24.99c-0.308.23-.623,0.43-0.931,0.63a11.422,11.422,0,0,0-2.512,2.02,11.955,11.955,0,0,0-1.727,2.83l-0.162.34c-0.661,1.34-1.267,2.71-1.851,4.09q-0.525,1.23-1.021,2.46l-0.222.58c-0.342.93-.425,0.99-0.6,1.04a4.824,4.824,0,0,1-2.4-.23,1.676,1.676,0,0,1-.387-1.24,15.353,15.353,0,0,1,1.585-6.6,20.426,20.426,0,0,1,2.719-4.6,15.625,15.625,0,0,1,1.99-2.16,4.869,4.869,0,0,1,.4-0.3,4.916,4.916,0,0,0,1.335-1.22,4.753,4.753,0,0,0,.641-3.05c-0.007-.98-0.063-1.96-0.115-2.94-0.041-.76-0.083-1.51-0.1-2.26-0.007-.31-0.028-0.64-0.048-0.98a5.985,5.985,0,0,1,.131-2.41,8.043,8.043,0,0,1,1.256-1.81,11.6,11.6,0,0,1,1.384-1.29l0.322-.28,2.879-.89a26.616,26.616,0,0,1,6.214,5.28c0.208,0.25.429,0.49,0.647,0.73a9.227,9.227,0,0,1,.855,1.04,6.377,6.377,0,0,1,.7,1.99l0.156,0.61a31.179,31.179,0,0,1,.772,3.55,2.814,2.814,0,0,1-.066,1.52,3.951,3.951,0,0,1-.827-1.1l-0.343-.65c-0.8-1.5-1.584-3-2.494-4.42l-0.3-.46a8.147,8.147,0,0,1-.485-0.8,2.162,2.162,0,0,0-1.64-1.07l-0.955.02-0.422.66a3.058,3.058,0,0,0-.339,2.3l0.457,4.47v0.53a2.464,2.464,0,0,1-.575.52c-0.194.81-1.46,1.65-1.7,1.9a10.327,10.327,0,0,1-1.5,1.16Zm14.166,8.65-6.405-8.59-2.772,2.09,6.408,8.58c1.1,1.47,1.094,2.13,1.066,2.3a0.64,0.64,0,0,1-.37.44,1.894,1.894,0,0,1-2.353-.24c-0.855-1.06-1.671-2.13-2.446-3.24a38.369,38.369,0,0,1-2.716-4.42c-0.187-.36-0.36-0.72-0.519-1.09l-3.177,1.38c0.19,0.44.4,0.88,0.619,1.3a40.456,40.456,0,0,0,2.959,4.83c0.82,1.18,1.692,2.32,2.619,3.46a5.355,5.355,0,0,0,6.952.9,4.094,4.094,0,0,0,1.844-2.75C392.188,1129.59,391.631,1127.97,390.237,1126.11Zm-24.865-12.26a11.223,11.223,0,0,0,2.595-2.08c0.273-.26.543-0.52,0.81-0.76l-2.277-2.62q-0.466.42-.945,0.9a9.077,9.077,0,0,1-1.782,1.48,8.347,8.347,0,0,1-1.335.4c-0.069-.92.346-1.72,1.429-2.77a9.386,9.386,0,0,1,1.951-1.39,12.386,12.386,0,0,0,2.706-1.99l-2.457-2.45a8.858,8.858,0,0,1-2,1.44,12.991,12.991,0,0,0-2.6,1.88,6.927,6.927,0,0,0-2.478,5.53,3.153,3.153,0,0,0,1.616,2.62,4.016,4.016,0,0,0,2.017.48A6.126,6.126,0,0,0,365.372,1113.85Z" transform="translate(-345.5 -1079.485)"/>
</svg>
