<svg xmlns="http://www.w3.org/2000/svg" width="60" height="60" viewBox="0 0 60 60">
  <metadata><?xpacket begin="﻿" id="W5M0MpCehiHzreSzNTczkc9d"?>
<x:xmpmeta xmlns:x="adobe:ns:meta/" x:xmptk="Adobe XMP Core 5.6-c138 79.159824, 2016/09/14-01:09:01        ">
   <rdf:RDF xmlns:rdf="http://www.w3.org/1999/02/22-rdf-syntax-ns#">
      <rdf:Description rdf:about=""/>
   </rdf:RDF>
</x:xmpmeta>
                                                                                                    
                                                                                                    
                                                                                                    
                                                                                                    
                                                                                                    
                                                                                                    
                                                                                                    
                                                                                                    
                                                                                                    
                                                                                                    
                                                                                                    
                                                                                                    
                                                                                                    
                                                                                                    
                                                                                                    
                                                                                                    
                                                                                                    
                                                                                                    
                                                                                                    
                                                                                                    
                           
<?xpacket end="w"?></metadata>
<defs>
    <style>
      .cls-1 {
        fill: #9c88ff;
        fill-rule: evenodd;
      }
    </style>
  </defs>
  <path id="icon_wy_15" class="cls-1" d="M684.675,1248.83c-0.532-.27-19-8.83-21.043-8.83h-0.266c-2.042,0-20.865,8.74-20.865,8.74a0.793,0.793,0,0,0-.444.97c0.266,0.62,1.953,3,2.574,4.15a14.314,14.314,0,0,1,1.155,3.36,0.682,0.682,0,0,0,.266-0.09v0.09a72.81,72.81,0,0,1,17.936-2.56c4.972,0,10.3.61,14.916,2.64v-0.08c0.089,0,.178.08,0.267,0.08,0.266-2.2,2.752-4.67,2.752-4.67l2.841-3.1A0.365,0.365,0,0,0,684.675,1248.83Zm-17.491-.88-1.776,1.67,0.444,2.39a0.524,0.524,0,0,1-.088.35c-0.089,0-.089.09-0.178,0.09h-0.178l-2.131-1.15-2.22,1.06a0.267,0.267,0,0,1-.355,0,0.262,0.262,0,0,1-.089-0.35l0.444-2.39-1.775-1.67a0.438,0.438,0,0,1-.089-0.36,0.741,0.741,0,0,1,.266-0.26l2.4-.35,1.066-2.21a0.339,0.339,0,0,1,.622,0l1.065,2.21,2.4,0.35a0.284,0.284,0,0,1,.266.26,0.546,0.546,0,0,1-.089.36h0Zm11.986,15.89a24.734,24.734,0,0,0-.977-3.27,1.566,1.566,0,0,0,.534-0.62c-0.267-.7-17.4-4.76-30.988,0a6.121,6.121,0,0,0,.888.89,6.794,6.794,0,0,0-1.154,3.09c-3.818,1.41-3.374,4.85-3.374,5.82,0.088,4.51,5.593,6.27,5.593,6.27s2.486,8.74,13.674,9.98c11.01-1.06,13.673-9.8,13.673-9.8s5.683-2.38,5.683-6.53A6.653,6.653,0,0,0,679.17,1263.84Zm-7.161,9.62s-2.509,6.65-8.642,7.21c-6.761-.7-8.921-7.49-8.921-7.49s-4.6-.9-3.206-4.23c0,0.28,2.3,1.04,2.439-.97a10.976,10.976,0,0,1,.279-3.05,17.828,17.828,0,0,0,9.2,2.71,17.347,17.347,0,0,0,9.549-2.64,8.421,8.421,0,0,1,.279,3.05c-0.07,1.25,1.6,1.6,2.509.83,1.463,3.54-3.486,4.58-3.486,4.58h0Z" transform="translate(-633.5 -1233)"/>
</svg>
