<svg xmlns="http://www.w3.org/2000/svg" width="60" height="60" viewBox="0 0 60 60">
  <metadata><?xpacket begin="﻿" id="W5M0MpCehiHzreSzNTczkc9d"?>
<x:xmpmeta xmlns:x="adobe:ns:meta/" x:xmptk="Adobe XMP Core 5.6-c138 79.159824, 2016/09/14-01:09:01        ">
   <rdf:RDF xmlns:rdf="http://www.w3.org/1999/02/22-rdf-syntax-ns#">
      <rdf:Description rdf:about=""/>
   </rdf:RDF>
</x:xmpmeta>
                                                                                                    
                                                                                                    
                                                                                                    
                                                                                                    
                                                                                                    
                                                                                                    
                                                                                                    
                                                                                                    
                                                                                                    
                                                                                                    
                                                                                                    
                                                                                                    
                                                                                                    
                                                                                                    
                                                                                                    
                                                                                                    
                                                                                                    
                                                                                                    
                                                                                                    
                                                                                                    
                           
<?xpacket end="w"?></metadata>
<defs>
    <style>
      .cls-1 {
        fill: #69e156;
        fill-rule: evenodd;
      }
    </style>
  </defs>
  <path id="icon_wy_06" class="cls-1" d="M540.455,799.45c-0.34-1.033-2.264-2.41-3.057-2.869l-15.993-9.021a0.883,0.883,0,0,0-.141-0.061,5.779,5.779,0,0,0-2.207-.5,5.555,5.555,0,0,0-2.378.513L500.6,796.581a5.647,5.647,0,0,0-3.511,6.182c0,0.013,0,.024,0,0.037v5.259a1.508,1.508,0,0,0,.453,1.492,1.854,1.854,0,0,0,1.585.345h4.5a0.778,0.778,0,0,0,.769-0.7,14.737,14.737,0,0,1,29.379,1.5,1.81,1.81,0,0,1-.409,1.436,0.841,0.841,0,0,1-.093.1,2.5,2.5,0,0,1-1.762.526H508.373a0.788,0.788,0,0,0-.746,1.008,11.9,11.9,0,0,0,21.619,2.895s0.906-1.378,2.152-.8a1.328,1.328,0,0,1,.582,1.767,0.791,0.791,0,0,1-.071.167,14.816,14.816,0,0,1-12.852,7.478,14.646,14.646,0,0,1-14.393-11.864,0.778,0.778,0,0,0-.762-0.647h-6.02a0.786,0.786,0,0,0-.79.787v4.931c0,0.013,0,.025,0,0.038a9.222,9.222,0,0,0,.454,3.312,8.5,8.5,0,0,0,3.17,2.87l15.858,8.893a0.723,0.723,0,0,0,.185.074,8.047,8.047,0,0,0,2.185.33h0.114a6.5,6.5,0,0,0,2.264-.344l16.077-9.068a5.648,5.648,0,0,0,3.511-6.182c0-.013,0-0.024,0-0.038V802.8c0-.013,0-0.024,0-0.037A9.249,9.249,0,0,0,540.455,799.45Zm-9.85,10.331a1.131,1.131,0,0,0,.113-1.033,11.887,11.887,0,0,0-23.55,1.262h22.418A1.331,1.331,0,0,0,530.605,809.781Z" transform="translate(-489 -780.5)"/>
</svg>
