<svg xmlns="http://www.w3.org/2000/svg" width="60" height="60" viewBox="0 0 60 60">
  <metadata><?xpacket begin="﻿" id="W5M0MpCehiHzreSzNTczkc9d"?>
<x:xmpmeta xmlns:x="adobe:ns:meta/" x:xmptk="Adobe XMP Core 5.6-c138 79.159824, 2016/09/14-01:09:01        ">
   <rdf:RDF xmlns:rdf="http://www.w3.org/1999/02/22-rdf-syntax-ns#">
      <rdf:Description rdf:about=""/>
   </rdf:RDF>
</x:xmpmeta>
                                                                                                    
                                                                                                    
                                                                                                    
                                                                                                    
                                                                                                    
                                                                                                    
                                                                                                    
                                                                                                    
                                                                                                    
                                                                                                    
                                                                                                    
                                                                                                    
                                                                                                    
                                                                                                    
                                                                                                    
                                                                                                    
                                                                                                    
                                                                                                    
                                                                                                    
                                                                                                    
                           
<?xpacket end="w"?></metadata>
<defs>
    <style>
      .cls-1 {
        fill: #fbc531;
        fill-rule: evenodd;
      }
    </style>
  </defs>
  <path id="icon_wy_03" class="cls-1" d="M384.674,549.807H388a1.659,1.659,0,1,0,0-3.317h-3.321A1.659,1.659,0,1,0,384.674,549.807Zm0,6.518H388a1.659,1.659,0,1,0,0-3.317h-3.321A1.659,1.659,0,1,0,384.674,556.325Zm10.715-.751V543.648a5.032,5.032,0,0,0-1.5-3.671,5.365,5.365,0,0,0-3.763-1.531H379.814a1.143,1.143,0,0,0-.117,0V525.876A2.877,2.877,0,0,0,376.833,523h-17.58a1.143,1.143,0,0,0-.117,0,3.16,3.16,0,0,0-2.915,2.818,0.847,0.847,0,0,0,0,.113v29.178c-4.88,1.315-7.216,2.955-7.216,5.026,0,5.423,16.377,6.861,26,6.861s26-1.438,26-6.861C401,558.156,399.065,556.669,395.389,555.574Zm-15.58-14.14H390c1.031,0,2.635,1.331,2.635,2.214v18.881a70.013,70.013,0,0,1-12.944,1.61V541.43C379.733,541.43,379.773,541.434,379.809,541.434Zm-14.183-9.074H370.1a1.659,1.659,0,1,1,0,3.317h-4.469A1.659,1.659,0,1,1,365.626,532.36Zm0,6.522H370.1a1.66,1.66,0,1,1,0,3.318h-4.469A1.66,1.66,0,1,1,365.626,538.882Zm0,6.518H370.1a1.66,1.66,0,1,1,0,3.318h-4.469A1.66,1.66,0,1,1,365.626,545.4Zm-13.879,14.631c0-.206.792-1.173,4.469-2.194v4.4C353.25,561.43,351.747,560.561,351.747,560.031Zm43.642,1.718v-3.416c2.285,0.765,2.864,1.511,2.864,1.7C398.253,560.453,397.288,561.1,395.389,561.749Z" transform="translate(-345 -515)"/>
</svg>
