<svg xmlns="http://www.w3.org/2000/svg" width="30" height="30" viewBox="0 0 30 30">
  <metadata><?xpacket begin="﻿" id="W5M0MpCehiHzreSzNTczkc9d"?>
<x:xmpmeta xmlns:x="adobe:ns:meta/" x:xmptk="Adobe XMP Core 5.6-c138 79.159824, 2016/09/14-01:09:01        ">
   <rdf:RDF xmlns:rdf="http://www.w3.org/1999/02/22-rdf-syntax-ns#">
      <rdf:Description rdf:about=""/>
   </rdf:RDF>
</x:xmpmeta>
                                                                                                    
                                                                                                    
                                                                                                    
                                                                                                    
                                                                                                    
                                                                                                    
                                                                                                    
                                                                                                    
                                                                                                    
                                                                                                    
                                                                                                    
                                                                                                    
                                                                                                    
                                                                                                    
                                                                                                    
                                                                                                    
                                                                                                    
                                                                                                    
                                                                                                    
                                                                                                    
                           
<?xpacket end="w"?></metadata>
<defs>
    <style>
      .cls-1 {
        fill: #fff;
        fill-rule: evenodd;
      }
    </style>
  </defs>
  <path id="icon_star" class="cls-1" d="M436.943,334.289a1.79,1.79,0,0,0-1.264-1.1l-8.455-1.264-3.714-7.973a1.561,1.561,0,0,0-1.422-.948,1.492,1.492,0,0,0-1.422.869l-3.951,7.974-8.376,1.342a1.663,1.663,0,0,0-1.264,1.026,1.478,1.478,0,0,0,.4,1.579l6.163,6.4-1.422,8.842a1.716,1.716,0,0,0,.632,1.579,1.575,1.575,0,0,0,1.659.079l7.507-4.105,7.506,4.184a1.34,1.34,0,0,0,.791.237,1.188,1.188,0,0,0,.869-0.316,1.581,1.581,0,0,0,.632-1.5l-1.422-8.921,6.163-6.316a1.844,1.844,0,0,0,.395-1.658h0Z" transform="translate(-407 -323)"/>
</svg>
