<svg xmlns="http://www.w3.org/2000/svg" width="60" height="60" viewBox="0 0 60 60">
  <metadata><?xpacket begin="﻿" id="W5M0MpCehiHzreSzNTczkc9d"?>
<x:xmpmeta xmlns:x="adobe:ns:meta/" x:xmptk="Adobe XMP Core 5.6-c138 79.159824, 2016/09/14-01:09:01        ">
   <rdf:RDF xmlns:rdf="http://www.w3.org/1999/02/22-rdf-syntax-ns#">
      <rdf:Description rdf:about=""/>
   </rdf:RDF>
</x:xmpmeta>
                                                                                                    
                                                                                                    
                                                                                                    
                                                                                                    
                                                                                                    
                                                                                                    
                                                                                                    
                                                                                                    
                                                                                                    
                                                                                                    
                                                                                                    
                                                                                                    
                                                                                                    
                                                                                                    
                                                                                                    
                                                                                                    
                                                                                                    
                                                                                                    
                                                                                                    
                                                                                                    
                           
<?xpacket end="w"?></metadata>
<defs>
    <style>
      .cls-1 {
        fill: #0b8ffe;
        fill-rule: evenodd;
      }
    </style>
  </defs>
  <path id="icon_wy_28" class="cls-1" d="M249.852,2003.72l-16.594-13.78a4.51,4.51,0,0,0-5.525,0l-16.589,13.78a2.881,2.881,0,0,0,0,4.6h3.977v17.01a4.641,4.641,0,0,0,4.612,4.67h21.525a4.642,4.642,0,0,0,4.615-4.67v-17.01h3.979A2.884,2.884,0,0,0,249.852,2003.72Zm-9.086,18.29H228v-2.73h1.763v-3.69l-1.525,1.61a13.726,13.726,0,0,0-1.285-1.29v6.59h-3.052v-5.78a23.475,23.475,0,0,1-1.767,2.97,15.932,15.932,0,0,1-.481-1.77q-0.242-1.2-.4-1.77a15.539,15.539,0,0,0,2.329-4.25H221.5v-2.89h2.408v-1.85a4.407,4.407,0,0,1-1.043.08,7.783,7.783,0,0,1-.964.08c-0.054-.64-0.161-1.5-0.321-2.57,0,0.11-.028,0-0.08-0.32,0.321,0,.749-0.03,1.284-0.08q3.691-.165,5.941-0.48l0.564,2.81q-1.2.075-2.329,0.24v2.09h2.249v2.89h-2.249v2.08l0.8-.88a3.8,3.8,0,0,0,.4.32c0.7,0.59,1.232,1.05,1.607,1.37v-10.52h9.8v15.01h1.2v2.73Zm-7.867-9.95h3.452v2.25H232.9v-2.25Zm0,4.98h3.452v2.24H232.9v-2.24Zm0-9.96h3.452v2.25H232.9v-2.25Z" transform="translate(-200.516 -1979.5)"/>
</svg>
