<svg xmlns="http://www.w3.org/2000/svg" width="30" height="30" viewBox="0 0 30 30">
  <metadata><?xpacket begin="﻿" id="W5M0MpCehiHzreSzNTczkc9d"?>
<x:xmpmeta xmlns:x="adobe:ns:meta/" x:xmptk="Adobe XMP Core 5.6-c138 79.159824, 2016/09/14-01:09:01        ">
   <rdf:RDF xmlns:rdf="http://www.w3.org/1999/02/22-rdf-syntax-ns#">
      <rdf:Description rdf:about=""/>
   </rdf:RDF>
</x:xmpmeta>
                                                                                                    
                                                                                                    
                                                                                                    
                                                                                                    
                                                                                                    
                                                                                                    
                                                                                                    
                                                                                                    
                                                                                                    
                                                                                                    
                                                                                                    
                                                                                                    
                                                                                                    
                                                                                                    
                                                                                                    
                                                                                                    
                                                                                                    
                                                                                                    
                                                                                                    
                                                                                                    
                           
<?xpacket end="w"?></metadata>
<defs>
    <style>
      .cls-1 {
        fill: #fff;
        fill-rule: evenodd;
      }
    </style>
  </defs>
  <path id="icon_sex_woman_w" class="cls-1" d="M493.871,511a11.145,11.145,0,0,0-9.391,17.139l-1.772,1.772L481.1,528.3a1.662,1.662,0,0,0-2.353,0h0a1.671,1.671,0,0,0,0,2.359l1.61,1.615-1.872,1.875a1.672,1.672,0,0,0,0,2.362h0a1.664,1.664,0,0,0,2.356,0l1.873-1.879,1.456,1.461a1.663,1.663,0,0,0,2.354,0h0a1.669,1.669,0,0,0,0-2.358l-1.456-1.46,1.605-1.608A11.148,11.148,0,1,0,493.871,511Zm0,18.985a7.824,7.824,0,1,1,7.809-7.824A7.824,7.824,0,0,1,493.874,529.985Z" transform="translate(-476.5 -509)"/>
</svg>
