<svg xmlns="http://www.w3.org/2000/svg" width="88" height="88" viewBox="0 0 88 88">
  <metadata><?xpacket begin="﻿" id="W5M0MpCehiHzreSzNTczkc9d"?>
<x:xmpmeta xmlns:x="adobe:ns:meta/" x:xmptk="Adobe XMP Core 5.6-c138 79.159824, 2016/09/14-01:09:01        ">
   <rdf:RDF xmlns:rdf="http://www.w3.org/1999/02/22-rdf-syntax-ns#">
      <rdf:Description rdf:about=""/>
   </rdf:RDF>
</x:xmpmeta>
                                                                                                    
                                                                                                    
                                                                                                    
                                                                                                    
                                                                                                    
                                                                                                    
                                                                                                    
                                                                                                    
                                                                                                    
                                                                                                    
                                                                                                    
                                                                                                    
                                                                                                    
                                                                                                    
                                                                                                    
                                                                                                    
                                                                                                    
                                                                                                    
                                                                                                    
                                                                                                    
                           
<?xpacket end="w"?></metadata>
<defs>
    <style>
      .cls-1 {
        fill: #fff;
        fill-rule: evenodd;
      }
    </style>
  </defs>
  <path id="icon_set" class="cls-1" d="M728.756,86.92a2.988,2.988,0,0,0-.276-0.172,4.817,4.817,0,0,1-.064-5.463,2.948,2.948,0,0,0,.34-0.206c1.3-.9,1.592-2.536.833-4.364a5.261,5.261,0,0,0-.742-1.3A2.976,2.976,0,0,0,725.6,74.29a4.816,4.816,0,0,1-3.91-3.821,2.974,2.974,0,0,0-1.1-3.317,5.367,5.367,0,0,0-1.3-.741c-1.829-.757-3.461-0.466-4.365.833a3.026,3.026,0,0,0-.171.276,4.818,4.818,0,0,1-5.464.064,2.954,2.954,0,0,0-.206-0.34c-0.9-1.3-2.535-1.593-4.366-.833a5.3,5.3,0,0,0-1.3.739A2.975,2.975,0,0,0,702.29,70.4a4.808,4.808,0,0,1-3.821,3.907,2.972,2.972,0,0,0-3.319,1.109,5.351,5.351,0,0,0-.739,1.295c-0.759,1.828-.466,3.463.833,4.366a3.114,3.114,0,0,0,.276.172,4.817,4.817,0,0,1,.064,5.463,2.8,2.8,0,0,0-.34.206c-1.3.9-1.592,2.536-.833,4.364a5.321,5.321,0,0,0,.741,1.3A2.976,2.976,0,0,0,698.4,93.71a4.817,4.817,0,0,1,3.911,3.821,2.973,2.973,0,0,0,1.1,3.318,5.327,5.327,0,0,0,1.3.741c1.829,0.757,3.461.466,4.364-.833a3.026,3.026,0,0,0,.172-0.276,4.818,4.818,0,0,1,5.464-.064,3.262,3.262,0,0,0,.2.34c0.9,1.3,2.536,1.592,4.367.833a5.315,5.315,0,0,0,1.293-.739A2.976,2.976,0,0,0,721.71,97.6a4.809,4.809,0,0,1,3.82-3.907,2.97,2.97,0,0,0,3.319-1.111,5.337,5.337,0,0,0,.74-1.293C730.348,89.457,730.054,87.823,728.756,86.92ZM712,90.994a6.994,6.994,0,0,1,0-13.988h0A6.994,6.994,0,1,1,712,90.994Z" transform="translate(-668 -40)"/>
</svg>
