<svg xmlns="http://www.w3.org/2000/svg" width="30" height="30" viewBox="0 0 30 30">
  <metadata><?xpacket begin="﻿" id="W5M0MpCehiHzreSzNTczkc9d"?>
<x:xmpmeta xmlns:x="adobe:ns:meta/" x:xmptk="Adobe XMP Core 5.6-c138 79.159824, 2016/09/14-01:09:01        ">
   <rdf:RDF xmlns:rdf="http://www.w3.org/1999/02/22-rdf-syntax-ns#">
      <rdf:Description rdf:about=""/>
   </rdf:RDF>
</x:xmpmeta>
                                                                                                    
                                                                                                    
                                                                                                    
                                                                                                    
                                                                                                    
                                                                                                    
                                                                                                    
                                                                                                    
                                                                                                    
                                                                                                    
                                                                                                    
                                                                                                    
                                                                                                    
                                                                                                    
                                                                                                    
                                                                                                    
                                                                                                    
                                                                                                    
                                                                                                    
                                                                                                    
                           
<?xpacket end="w"?></metadata>
<defs>
    <style>
      .cls-1 {
        fill: #8a8a8a;
        fill-rule: evenodd;
      }
    </style>
  </defs>
  <path id="icon_login_pass" class="cls-1" d="M127.345,810H109.654A2.669,2.669,0,0,1,107,807.323v-10.71a2.669,2.669,0,0,1,2.654-2.677h17.691A2.669,2.669,0,0,1,130,796.613v10.71A2.669,2.669,0,0,1,127.345,810Zm-15.038-15.172a0.888,0.888,0,0,1-.884-0.892v-1.8A7.185,7.185,0,0,1,118.784,785a7.716,7.716,0,0,1,6.746,4.155,0.9,0.9,0,0,1-.387,1.2,0.883,0.883,0,0,1-1.19-.391,5.91,5.91,0,0,0-5.169-3.179,5.425,5.425,0,0,0-5.592,5.346v1.8A0.888,0.888,0,0,1,112.307,794.828Z" transform="translate(-103.5 -782.5)"/>
</svg>
